G04 #@! TF.GenerationSoftware,KiCad,Pcbnew,no-vcs-found-835c19f~60~ubuntu16.04.1*
G04 #@! TF.CreationDate,2017-10-18T23:24:13+01:00*
G04 #@! TF.ProjectId,altimeter,616C74696D657465722E6B696361645F,rev?*
G04 #@! TF.SameCoordinates,Original*
G04 #@! TF.FileFunction,Copper,L2,Bot,Signal*
G04 #@! TF.FilePolarity,Positive*
%FSLAX46Y46*%
G04 Gerber Fmt 4.6, Leading zero omitted, Abs format (unit mm)*
G04 Created by KiCad (PCBNEW no-vcs-found-835c19f~60~ubuntu16.04.1) date Wed Oct 18 23:24:13 2017*
%MOMM*%
%LPD*%
G01*
G04 APERTURE LIST*
%ADD10C,1.524000*%
%ADD11C,0.600000*%
%ADD12C,0.800000*%
%ADD13C,0.300000*%
%ADD14C,0.250000*%
%ADD15C,0.400000*%
G04 APERTURE END LIST*
D10*
X100000000Y-74000000D03*
X100000000Y-126000000D03*
D11*
X98300000Y-97500000D03*
X98300000Y-100000000D03*
X98300000Y-102500000D03*
X100800000Y-97500000D03*
X100800000Y-100000000D03*
X100800000Y-102500000D03*
X103300000Y-97500000D03*
X103300000Y-100000000D03*
X103300000Y-102500000D03*
D10*
X97500000Y-134250000D03*
X102500000Y-134250000D03*
D12*
X92300000Y-89500000D03*
X92300000Y-91900000D03*
X100000000Y-128500000D03*
X107800000Y-132100000D03*
X92300000Y-111200000D03*
X107300000Y-81900000D03*
X108000000Y-90000000D03*
X103500000Y-86000000D03*
X98800000Y-78800000D03*
X105200000Y-78600000D03*
X105300000Y-74800000D03*
X95500000Y-80600000D03*
X97200000Y-80100000D03*
X93200000Y-83600000D03*
X106600000Y-112400000D03*
X103750000Y-136050000D03*
X106565000Y-122835000D03*
X108100000Y-97200000D03*
X108100000Y-98800000D03*
X107300000Y-96000000D03*
X103200000Y-108100000D03*
X92350000Y-95050000D03*
X93500000Y-103200000D03*
X93000000Y-104400000D03*
X92400000Y-103100000D03*
X96400000Y-91900000D03*
X97200000Y-93100000D03*
X104100000Y-89500000D03*
X104100000Y-90300000D03*
X103500000Y-84700000D03*
D11*
X92225000Y-100725000D03*
X93375000Y-99275000D03*
D12*
X97300000Y-114600000D03*
X93100000Y-73700000D03*
D11*
X94200000Y-76000000D03*
D12*
X107000000Y-100300000D03*
X104000000Y-104900000D03*
X103100000Y-128600000D03*
X94500000Y-131300000D03*
X94900000Y-105800000D03*
X94000000Y-94000000D03*
X94000000Y-82000000D03*
X101300000Y-116400000D03*
X102200000Y-71800000D03*
X92300000Y-77500000D03*
X97200000Y-72800000D03*
D11*
X95900000Y-100900000D03*
D12*
X95900000Y-84600000D03*
X97300000Y-117800000D03*
X97300000Y-124600000D03*
X98400000Y-111400000D03*
X102300000Y-113500000D03*
X102300000Y-109900000D03*
D11*
X105200000Y-98200000D03*
D12*
X98500000Y-90700000D03*
X102500000Y-94300000D03*
X97300000Y-91200000D03*
X100700000Y-113500000D03*
D11*
X102700000Y-95300000D03*
D12*
X102300000Y-124700000D03*
X99900000Y-117300000D03*
D11*
X101800000Y-95100000D03*
D12*
X101300000Y-79700000D03*
X100800000Y-87500000D03*
X96400000Y-129700000D03*
D11*
X98800000Y-95300000D03*
D13*
X92300000Y-91900000D02*
X92300000Y-89500000D01*
X92350000Y-95050000D02*
X92350000Y-91950000D01*
X92350000Y-91950000D02*
X92300000Y-91900000D01*
D14*
X100000000Y-126000000D02*
X100000000Y-128500000D01*
D13*
X94000000Y-82000000D02*
X94400000Y-82400000D01*
X94400000Y-82400000D02*
X94400000Y-93600000D01*
X94400000Y-93600000D02*
X94000000Y-94000000D01*
X94400000Y-95200000D02*
X94400000Y-95000000D01*
X94400000Y-94400000D02*
X94400000Y-95000000D01*
X94000000Y-94000000D02*
X94400000Y-94400000D01*
X107000000Y-101900000D02*
X107000000Y-100300000D01*
X104000000Y-104900000D02*
X107000000Y-101900000D01*
X101300000Y-121900000D02*
X101300000Y-116400000D01*
X103100000Y-123700000D02*
X101300000Y-121900000D01*
X103100000Y-128600000D02*
X103100000Y-123700000D01*
X94900000Y-130900000D02*
X94500000Y-131300000D01*
X94900000Y-105800000D02*
X94900000Y-130900000D01*
X94400000Y-105300000D02*
X94900000Y-105800000D01*
X94400000Y-95200000D02*
X94400000Y-105300000D01*
D15*
X97200000Y-72234315D02*
X97000000Y-72034315D01*
X97000000Y-72034315D02*
X96765685Y-71800000D01*
D14*
X102200000Y-71800000D02*
X97234315Y-71800000D01*
X97234315Y-71800000D02*
X97000000Y-72034315D01*
D15*
X92000000Y-77200000D02*
X92300000Y-77500000D01*
X92000000Y-72600000D02*
X92000000Y-77200000D01*
X92800000Y-71800000D02*
X92000000Y-72600000D01*
X96765685Y-71800000D02*
X92800000Y-71800000D01*
X97200000Y-72800000D02*
X97200000Y-72234315D01*
D14*
X95600000Y-85100000D02*
X95600000Y-100600000D01*
X95900000Y-84600000D02*
X95600000Y-84900000D01*
X95600000Y-84900000D02*
X95600000Y-85100000D01*
X95600000Y-100600000D02*
X95900000Y-100900000D01*
X98400000Y-116700000D02*
X98400000Y-114700000D01*
X97300000Y-117800000D02*
X98400000Y-116700000D01*
X97300000Y-118400000D02*
X97300000Y-117800000D01*
X97300000Y-124600000D02*
X97300000Y-118400000D01*
X98400000Y-114700000D02*
X98400000Y-111400000D01*
X102300000Y-112800000D02*
X102300000Y-113500000D01*
X102300000Y-109900000D02*
X102300000Y-112800000D01*
X105200000Y-98200000D02*
X105200000Y-94600000D01*
X105200000Y-94600000D02*
X104000000Y-93400000D01*
X101200000Y-93400000D02*
X104000000Y-93400000D01*
X98500000Y-90700000D02*
X101200000Y-93400000D01*
X100400000Y-94300000D02*
X102500000Y-94300000D01*
X97300000Y-91200000D02*
X100400000Y-94300000D01*
X102700000Y-95300000D02*
X102300000Y-95700000D01*
X102300000Y-95700000D02*
X102300000Y-108500000D01*
X102300000Y-108500000D02*
X100700000Y-110100000D01*
X100700000Y-110100000D02*
X100700000Y-113500000D01*
X99900000Y-117300000D02*
X99900000Y-122300000D01*
X102300000Y-124700000D02*
X99900000Y-122300000D01*
X99900000Y-114000000D02*
X99900000Y-117300000D01*
X99900000Y-113100000D02*
X99900000Y-114000000D01*
X100200000Y-112800000D02*
X99900000Y-113100000D01*
X100200000Y-109900000D02*
X100200000Y-112800000D01*
X101800000Y-108300000D02*
X100200000Y-109900000D01*
X101800000Y-104600000D02*
X101800000Y-108300000D01*
X101800000Y-95100000D02*
X101800000Y-104600000D01*
X100800000Y-80200000D02*
X101300000Y-79700000D01*
X100800000Y-87500000D02*
X100800000Y-80200000D01*
X96400000Y-129700000D02*
X96400000Y-104600000D01*
X96400000Y-104600000D02*
X96600000Y-104400000D01*
X96600000Y-96000000D02*
X96600000Y-104400000D01*
X97300000Y-95300000D02*
X96600000Y-96000000D01*
X98800000Y-95300000D02*
X97300000Y-95300000D01*
X99968251Y-62452269D02*
X99968251Y-62452269D01*
X101385812Y-62689769D02*
X98618004Y-62689769D01*
X101979010Y-62927269D02*
X98016153Y-62927269D01*
X102433307Y-63164769D02*
X97576907Y-63164769D01*
X102748608Y-63402269D02*
X97248240Y-63402269D01*
X99335929Y-63639769D02*
X96961152Y-63639769D01*
X103043998Y-63639769D02*
X100664159Y-63639769D01*
X98585715Y-63877269D02*
X96706241Y-63877269D01*
X103288169Y-63877269D02*
X101410050Y-63877269D01*
X98153842Y-64114769D02*
X96512541Y-64114769D01*
X103487455Y-64114769D02*
X101847631Y-64114769D01*
X97808353Y-64352269D02*
X96318841Y-64352269D01*
X103686741Y-64352269D02*
X102197759Y-64352269D01*
X97565826Y-64589769D02*
X96155375Y-64589769D01*
X103839977Y-64589769D02*
X102433606Y-64589769D01*
X97336578Y-64827269D02*
X96029094Y-64827269D01*
X103970544Y-64827269D02*
X102668651Y-64827269D01*
X97173959Y-65064769D02*
X95902813Y-65064769D01*
X104101112Y-65064769D02*
X102826446Y-65064769D01*
X97011339Y-65302269D02*
X95784648Y-65302269D01*
X104209854Y-65302269D02*
X102984240Y-65302269D01*
X96899368Y-65539769D02*
X95712942Y-65539769D01*
X104285194Y-65539769D02*
X103102816Y-65539769D01*
X96797576Y-65777269D02*
X95641236Y-65777269D01*
X104360533Y-65777269D02*
X103200707Y-65777269D01*
X96707751Y-66014769D02*
X95569531Y-66014769D01*
X104435872Y-66014769D02*
X103296564Y-66014769D01*
X96657269Y-66252269D02*
X95525472Y-66252269D01*
X104470649Y-66252269D02*
X103343591Y-66252269D01*
X96606787Y-66489769D02*
X95502185Y-66489769D01*
X104497289Y-66489769D02*
X103390617Y-66489769D01*
X96578328Y-66727269D02*
X95478899Y-66727269D01*
X104523929Y-66727269D02*
X103424265Y-66727269D01*
X96575012Y-66964769D02*
X95455612Y-66964769D01*
X104549743Y-66964769D02*
X103420949Y-66964769D01*
X96571695Y-67202269D02*
X95432324Y-67202269D01*
X104567361Y-67202269D02*
X103417632Y-67202269D01*
X96598356Y-67439769D02*
X95408862Y-67439769D01*
X104592324Y-67439769D02*
X103412519Y-67439769D01*
X96641945Y-67677269D02*
X95344779Y-67677269D01*
X104654945Y-67677269D02*
X103358561Y-67677269D01*
X96685535Y-67914769D02*
X95270929Y-67914769D01*
X104729202Y-67914769D02*
X103304602Y-67914769D01*
X96772377Y-68152269D02*
X95151313Y-68152269D01*
X104848677Y-68152269D02*
X103236266Y-68152269D01*
X96866410Y-68389769D02*
X95015515Y-68389769D01*
X104984293Y-68389769D02*
X103130524Y-68389769D01*
X96973896Y-68627269D02*
X94822030Y-68627269D01*
X105178883Y-68627269D02*
X103024782Y-68627269D01*
X97126955Y-68864769D02*
X94574501Y-68864769D01*
X105425133Y-68864769D02*
X102876152Y-68864769D01*
X97280013Y-69102269D02*
X94242991Y-69102269D01*
X105755492Y-69102269D02*
X102708614Y-69102269D01*
X97497974Y-69339769D02*
X93694345Y-69339769D01*
X106306136Y-69339769D02*
X102509719Y-69339769D01*
X97727325Y-69577269D02*
X92392480Y-69577269D01*
X107605484Y-69577269D02*
X102260320Y-69577269D01*
X98048405Y-69814769D02*
X92016010Y-69814769D01*
X107984077Y-69814769D02*
X101956898Y-69814769D01*
X98430966Y-70052269D02*
X91785125Y-70052269D01*
X108215226Y-70052269D02*
X101582658Y-70052269D01*
X99012178Y-70289769D02*
X91632963Y-70289769D01*
X108367195Y-70289769D02*
X100990022Y-70289769D01*
X108466236Y-70527269D02*
X91533592Y-70527269D01*
X108524215Y-70764769D02*
X91475222Y-70764769D01*
X108549178Y-71002269D02*
X91451935Y-71002269D01*
X92675670Y-71239769D02*
X91450000Y-71239769D01*
X101664366Y-71239769D02*
X96892182Y-71239769D01*
X108550000Y-71239769D02*
X102735924Y-71239769D01*
X92309559Y-71477269D02*
X91450000Y-71477269D01*
X108550000Y-71477269D02*
X102905266Y-71477269D01*
X92072059Y-71714769D02*
X91450000Y-71714769D01*
X108550000Y-71714769D02*
X102973204Y-71714769D01*
X91834559Y-71952269D02*
X91450000Y-71952269D01*
X108550000Y-71952269D02*
X102960189Y-71952269D01*
X91597059Y-72189769D02*
X91450000Y-72189769D01*
X108550000Y-72189769D02*
X102873512Y-72189769D01*
X91454406Y-72427269D02*
X91450000Y-72427269D01*
X96516533Y-72427269D02*
X92985903Y-72427269D01*
X101744514Y-72427269D02*
X97882858Y-72427269D01*
X108550000Y-72427269D02*
X102658006Y-72427269D01*
X96436397Y-72664769D02*
X92748403Y-72664769D01*
X108550000Y-72664769D02*
X97963304Y-72664769D01*
X96430790Y-72902269D02*
X92575000Y-72902269D01*
X99686411Y-72902269D02*
X97971548Y-72902269D01*
X108550000Y-72902269D02*
X100307035Y-72902269D01*
X96500954Y-73139769D02*
X92575000Y-73139769D01*
X99253304Y-73139769D02*
X97897104Y-73139769D01*
X108550000Y-73139769D02*
X100748200Y-73139769D01*
X96680039Y-73377269D02*
X92575000Y-73377269D01*
X99048343Y-73377269D02*
X97717663Y-73377269D01*
X108550000Y-73377269D02*
X100951392Y-73377269D01*
X98928026Y-73614769D02*
X92575000Y-73614769D01*
X108550000Y-73614769D02*
X101071064Y-73614769D01*
X98868951Y-73852269D02*
X92575000Y-73852269D01*
X108550000Y-73852269D02*
X101129872Y-73852269D01*
X98861588Y-74089769D02*
X92575000Y-74089769D01*
X108550000Y-74089769D02*
X101134237Y-74089769D01*
X98906648Y-74327269D02*
X92575000Y-74327269D01*
X108550000Y-74327269D02*
X101091671Y-74327269D01*
X99011252Y-74564769D02*
X92575000Y-74564769D01*
X108550000Y-74564769D02*
X100993088Y-74564769D01*
X99194058Y-74802269D02*
X92575000Y-74802269D01*
X108550000Y-74802269D02*
X100806340Y-74802269D01*
X99539795Y-75039769D02*
X92575000Y-75039769D01*
X108550000Y-75039769D02*
X100463593Y-75039769D01*
X108550000Y-75277269D02*
X92575000Y-75277269D01*
X108550000Y-75514769D02*
X92575000Y-75514769D01*
X108550000Y-75752269D02*
X92575000Y-75752269D01*
X108550000Y-75989769D02*
X92575000Y-75989769D01*
X108550000Y-76227269D02*
X92575000Y-76227269D01*
X108550000Y-76464769D02*
X92575000Y-76464769D01*
X108550000Y-76702269D02*
X92575000Y-76702269D01*
X108550000Y-76939769D02*
X92835924Y-76939769D01*
X108550000Y-77177269D02*
X93005266Y-77177269D01*
X91466759Y-77414769D02*
X91450000Y-77414769D01*
X108550000Y-77414769D02*
X93073204Y-77414769D01*
X91539967Y-77652269D02*
X91450000Y-77652269D01*
X108550000Y-77652269D02*
X93060189Y-77652269D01*
X91629152Y-77889769D02*
X91450000Y-77889769D01*
X108550000Y-77889769D02*
X92973512Y-77889769D01*
X91844514Y-78127269D02*
X91450000Y-78127269D01*
X108550000Y-78127269D02*
X92758006Y-78127269D01*
X108550000Y-78364769D02*
X91450000Y-78364769D01*
X108550000Y-78602269D02*
X91450000Y-78602269D01*
X108550000Y-78839769D02*
X91450000Y-78839769D01*
X100836211Y-79077269D02*
X91450000Y-79077269D01*
X108550000Y-79077269D02*
X101762749Y-79077269D01*
X100624468Y-79314769D02*
X91450000Y-79314769D01*
X108550000Y-79314769D02*
X101974553Y-79314769D01*
X100539054Y-79552269D02*
X91450000Y-79552269D01*
X108550000Y-79552269D02*
X102060829Y-79552269D01*
X100503125Y-79789769D02*
X91450000Y-79789769D01*
X108550000Y-79789769D02*
X102072718Y-79789769D01*
X100332459Y-80027269D02*
X91450000Y-80027269D01*
X108550000Y-80027269D02*
X102002669Y-80027269D01*
X100300000Y-80264769D02*
X91450000Y-80264769D01*
X108550000Y-80264769D02*
X101830790Y-80264769D01*
X100300000Y-80502269D02*
X91450000Y-80502269D01*
X108550000Y-80502269D02*
X101300000Y-80502269D01*
X100300000Y-80739769D02*
X91450000Y-80739769D01*
X108550000Y-80739769D02*
X101300000Y-80739769D01*
X100300000Y-80977269D02*
X91450000Y-80977269D01*
X108550000Y-80977269D02*
X101300000Y-80977269D01*
X100300000Y-81214769D02*
X91450000Y-81214769D01*
X108550000Y-81214769D02*
X101300000Y-81214769D01*
X93451602Y-81452269D02*
X91450000Y-81452269D01*
X100300000Y-81452269D02*
X94548337Y-81452269D01*
X108550000Y-81452269D02*
X101300000Y-81452269D01*
X93289745Y-81689769D02*
X91450000Y-81689769D01*
X100300000Y-81689769D02*
X94710418Y-81689769D01*
X108550000Y-81689769D02*
X101300000Y-81689769D01*
X93225907Y-81927269D02*
X91450000Y-81927269D01*
X100300000Y-81927269D02*
X94774987Y-81927269D01*
X108550000Y-81927269D02*
X101300000Y-81927269D01*
X93242261Y-82164769D02*
X91450000Y-82164769D01*
X100300000Y-82164769D02*
X94866688Y-82164769D01*
X108550000Y-82164769D02*
X101300000Y-82164769D01*
X93337207Y-82402269D02*
X91450000Y-82402269D01*
X100300000Y-82402269D02*
X94925000Y-82402269D01*
X108550000Y-82402269D02*
X101300000Y-82402269D01*
X93562499Y-82639769D02*
X91450000Y-82639769D01*
X100300000Y-82639769D02*
X94925000Y-82639769D01*
X108550000Y-82639769D02*
X101300000Y-82639769D01*
X93875000Y-82877269D02*
X91450000Y-82877269D01*
X100300000Y-82877269D02*
X94925000Y-82877269D01*
X108550000Y-82877269D02*
X101300000Y-82877269D01*
X93875000Y-83114769D02*
X91450000Y-83114769D01*
X100300000Y-83114769D02*
X94925000Y-83114769D01*
X108550000Y-83114769D02*
X101300000Y-83114769D01*
X93875000Y-83352269D02*
X91450000Y-83352269D01*
X100300000Y-83352269D02*
X94925000Y-83352269D01*
X108550000Y-83352269D02*
X101300000Y-83352269D01*
X93875000Y-83589769D02*
X91450000Y-83589769D01*
X100300000Y-83589769D02*
X94925000Y-83589769D01*
X108550000Y-83589769D02*
X101300000Y-83589769D01*
X93875000Y-83827269D02*
X91450000Y-83827269D01*
X95814669Y-83827269D02*
X94925000Y-83827269D01*
X100300000Y-83827269D02*
X95989942Y-83827269D01*
X108550000Y-83827269D02*
X101300000Y-83827269D01*
X93875000Y-84064769D02*
X91450000Y-84064769D01*
X95338837Y-84064769D02*
X94925000Y-84064769D01*
X100300000Y-84064769D02*
X96460750Y-84064769D01*
X108550000Y-84064769D02*
X101300000Y-84064769D01*
X93875000Y-84302269D02*
X91450000Y-84302269D01*
X95184388Y-84302269D02*
X94925000Y-84302269D01*
X100300000Y-84302269D02*
X96615570Y-84302269D01*
X108550000Y-84302269D02*
X101300000Y-84302269D01*
X93875000Y-84539769D02*
X91450000Y-84539769D01*
X95125732Y-84539769D02*
X94925000Y-84539769D01*
X100300000Y-84539769D02*
X96674812Y-84539769D01*
X108550000Y-84539769D02*
X101300000Y-84539769D01*
X92708471Y-84777269D02*
X91450000Y-84777269D01*
X93875000Y-84777269D02*
X93410829Y-84777269D01*
X95116882Y-84777269D02*
X94925000Y-84777269D01*
X100300000Y-84777269D02*
X96654509Y-84777269D01*
X108550000Y-84777269D02*
X101300000Y-84777269D01*
X92385832Y-85014769D02*
X91450000Y-85014769D01*
X93875000Y-85014769D02*
X93732889Y-85014769D01*
X95100000Y-85014769D02*
X94925000Y-85014769D01*
X100300000Y-85014769D02*
X96555877Y-85014769D01*
X108550000Y-85014769D02*
X101300000Y-85014769D01*
X92248014Y-85252269D02*
X91450000Y-85252269D01*
X93875000Y-85252269D02*
X93871783Y-85252269D01*
X95100000Y-85252269D02*
X94925000Y-85252269D01*
X100300000Y-85252269D02*
X96318613Y-85252269D01*
X108550000Y-85252269D02*
X101300000Y-85252269D01*
X92186123Y-85489769D02*
X91450000Y-85489769D01*
X95100000Y-85489769D02*
X94925000Y-85489769D01*
X100300000Y-85489769D02*
X96100000Y-85489769D01*
X108550000Y-85489769D02*
X101300000Y-85489769D01*
X92197559Y-85727269D02*
X91450000Y-85727269D01*
X95100000Y-85727269D02*
X94925000Y-85727269D01*
X98018984Y-85727269D02*
X96100000Y-85727269D01*
X100300000Y-85727269D02*
X98264477Y-85727269D01*
X108550000Y-85727269D02*
X101300000Y-85727269D01*
X92271609Y-85964769D02*
X91450000Y-85964769D01*
X93875000Y-85964769D02*
X93846092Y-85964769D01*
X95100000Y-85964769D02*
X94925000Y-85964769D01*
X97532916Y-85964769D02*
X96100000Y-85964769D01*
X100300000Y-85964769D02*
X98747347Y-85964769D01*
X108550000Y-85964769D02*
X101300000Y-85964769D01*
X92445438Y-86202269D02*
X91450000Y-86202269D01*
X93875000Y-86202269D02*
X93674374Y-86202269D01*
X95100000Y-86202269D02*
X94925000Y-86202269D01*
X97356302Y-86202269D02*
X96100000Y-86202269D01*
X100300000Y-86202269D02*
X98924580Y-86202269D01*
X108550000Y-86202269D02*
X101300000Y-86202269D01*
X92900042Y-86439769D02*
X91450000Y-86439769D01*
X93875000Y-86439769D02*
X93217477Y-86439769D01*
X95100000Y-86439769D02*
X94925000Y-86439769D01*
X97278409Y-86439769D02*
X96100000Y-86439769D01*
X100300000Y-86439769D02*
X99001290Y-86439769D01*
X108550000Y-86439769D02*
X101300000Y-86439769D01*
X93875000Y-86677269D02*
X91450000Y-86677269D01*
X95100000Y-86677269D02*
X94925000Y-86677269D01*
X97265446Y-86677269D02*
X96100000Y-86677269D01*
X100300000Y-86677269D02*
X99012691Y-86677269D01*
X108550000Y-86677269D02*
X101300000Y-86677269D01*
X92525896Y-86914769D02*
X91450000Y-86914769D01*
X93875000Y-86914769D02*
X93592618Y-86914769D01*
X95100000Y-86914769D02*
X94925000Y-86914769D01*
X97325478Y-86914769D02*
X96100000Y-86914769D01*
X100289896Y-86914769D02*
X98955477Y-86914769D01*
X108550000Y-86914769D02*
X101311098Y-86914769D01*
X92313594Y-87152269D02*
X91450000Y-87152269D01*
X93875000Y-87152269D02*
X93805786Y-87152269D01*
X95100000Y-87152269D02*
X94925000Y-87152269D01*
X97461702Y-87152269D02*
X96100000Y-87152269D01*
X100105818Y-87152269D02*
X98817738Y-87152269D01*
X108550000Y-87152269D02*
X101494961Y-87152269D01*
X92212438Y-87389769D02*
X91450000Y-87389769D01*
X95100000Y-87389769D02*
X94925000Y-87389769D01*
X97773466Y-87389769D02*
X96100000Y-87389769D01*
X100031083Y-87389769D02*
X98510704Y-87389769D01*
X108550000Y-87389769D02*
X101568254Y-87389769D01*
X92184650Y-87627269D02*
X91450000Y-87627269D01*
X95100000Y-87627269D02*
X94925000Y-87627269D01*
X100035379Y-87627269D02*
X96100000Y-87627269D01*
X108550000Y-87627269D02*
X101565869Y-87627269D01*
X92219347Y-87864769D02*
X91450000Y-87864769D01*
X95100000Y-87864769D02*
X94925000Y-87864769D01*
X100113040Y-87864769D02*
X96100000Y-87864769D01*
X108550000Y-87864769D02*
X101485973Y-87864769D01*
X92335591Y-88102269D02*
X91450000Y-88102269D01*
X93875000Y-88102269D02*
X93784295Y-88102269D01*
X95100000Y-88102269D02*
X94925000Y-88102269D01*
X100308544Y-88102269D02*
X96100000Y-88102269D01*
X108550000Y-88102269D02*
X101291410Y-88102269D01*
X92575326Y-88339769D02*
X91450000Y-88339769D01*
X93875000Y-88339769D02*
X93544705Y-88339769D01*
X95100000Y-88339769D02*
X94925000Y-88339769D01*
X108550000Y-88339769D02*
X96100000Y-88339769D01*
X93875000Y-88577269D02*
X91450000Y-88577269D01*
X95100000Y-88577269D02*
X94925000Y-88577269D01*
X108550000Y-88577269D02*
X96100000Y-88577269D01*
X93875000Y-88814769D02*
X91450000Y-88814769D01*
X95100000Y-88814769D02*
X94925000Y-88814769D01*
X108550000Y-88814769D02*
X96100000Y-88814769D01*
X93875000Y-89052269D02*
X91450000Y-89052269D01*
X95100000Y-89052269D02*
X94925000Y-89052269D01*
X108550000Y-89052269D02*
X96100000Y-89052269D01*
X93875000Y-89289769D02*
X91450000Y-89289769D01*
X95100000Y-89289769D02*
X94925000Y-89289769D01*
X108550000Y-89289769D02*
X96100000Y-89289769D01*
X93875000Y-89527269D02*
X91450000Y-89527269D01*
X95100000Y-89527269D02*
X94925000Y-89527269D01*
X108550000Y-89527269D02*
X96100000Y-89527269D01*
X93875000Y-89764769D02*
X91450000Y-89764769D01*
X95100000Y-89764769D02*
X94925000Y-89764769D01*
X108550000Y-89764769D02*
X96100000Y-89764769D01*
X93875000Y-90002269D02*
X91450000Y-90002269D01*
X95100000Y-90002269D02*
X94925000Y-90002269D01*
X98158019Y-90002269D02*
X96100000Y-90002269D01*
X108550000Y-90002269D02*
X98840169Y-90002269D01*
X93875000Y-90239769D02*
X91450000Y-90239769D01*
X95100000Y-90239769D02*
X94925000Y-90239769D01*
X97875822Y-90239769D02*
X96100000Y-90239769D01*
X108550000Y-90239769D02*
X99124724Y-90239769D01*
X93875000Y-90477269D02*
X91450000Y-90477269D01*
X95100000Y-90477269D02*
X94925000Y-90477269D01*
X97019896Y-90477269D02*
X96100000Y-90477269D01*
X97754996Y-90477269D02*
X97580697Y-90477269D01*
X108550000Y-90477269D02*
X99245979Y-90477269D01*
X93875000Y-90714769D02*
X91450000Y-90714769D01*
X95100000Y-90714769D02*
X94925000Y-90714769D01*
X96692940Y-90714769D02*
X96100000Y-90714769D01*
X108550000Y-90714769D02*
X99273765Y-90714769D01*
X93875000Y-90952269D02*
X91450000Y-90952269D01*
X95100000Y-90952269D02*
X94925000Y-90952269D01*
X96562958Y-90952269D02*
X96100000Y-90952269D01*
X108550000Y-90952269D02*
X99459376Y-90952269D01*
X93875000Y-91189769D02*
X91450000Y-91189769D01*
X95100000Y-91189769D02*
X94925000Y-91189769D01*
X96525034Y-91189769D02*
X96100000Y-91189769D01*
X108550000Y-91189769D02*
X99696876Y-91189769D01*
X93875000Y-91427269D02*
X91450000Y-91427269D01*
X95100000Y-91427269D02*
X94925000Y-91427269D01*
X96556412Y-91427269D02*
X96100000Y-91427269D01*
X108550000Y-91427269D02*
X99934376Y-91427269D01*
X93875000Y-91664769D02*
X91450000Y-91664769D01*
X95100000Y-91664769D02*
X94925000Y-91664769D01*
X96677486Y-91664769D02*
X96100000Y-91664769D01*
X108550000Y-91664769D02*
X100171876Y-91664769D01*
X93875000Y-91902269D02*
X91450000Y-91902269D01*
X95100000Y-91902269D02*
X94925000Y-91902269D01*
X96971536Y-91902269D02*
X96100000Y-91902269D01*
X108550000Y-91902269D02*
X100409376Y-91902269D01*
X93875000Y-92139769D02*
X91450000Y-92139769D01*
X95100000Y-92139769D02*
X94925000Y-92139769D01*
X97532663Y-92139769D02*
X96100000Y-92139769D01*
X108550000Y-92139769D02*
X100646876Y-92139769D01*
X93875000Y-92377269D02*
X91450000Y-92377269D01*
X95100000Y-92377269D02*
X94925000Y-92377269D01*
X97770163Y-92377269D02*
X96100000Y-92377269D01*
X108550000Y-92377269D02*
X100884376Y-92377269D01*
X93875000Y-92614769D02*
X91450000Y-92614769D01*
X95100000Y-92614769D02*
X94925000Y-92614769D01*
X98007663Y-92614769D02*
X96100000Y-92614769D01*
X108550000Y-92614769D02*
X101121876Y-92614769D01*
X93875000Y-92852269D02*
X91450000Y-92852269D01*
X95100000Y-92852269D02*
X94925000Y-92852269D01*
X98245163Y-92852269D02*
X96100000Y-92852269D01*
X108550000Y-92852269D02*
X101359376Y-92852269D01*
X93875000Y-93089769D02*
X91450000Y-93089769D01*
X95100000Y-93089769D02*
X94925000Y-93089769D01*
X98482663Y-93089769D02*
X96100000Y-93089769D01*
X108550000Y-93089769D02*
X104396876Y-93089769D01*
X93612619Y-93327269D02*
X91450000Y-93327269D01*
X95100000Y-93327269D02*
X94925000Y-93327269D01*
X98720163Y-93327269D02*
X96100000Y-93327269D01*
X108550000Y-93327269D02*
X104634376Y-93327269D01*
X93358704Y-93564769D02*
X91450000Y-93564769D01*
X95100000Y-93564769D02*
X94925000Y-93564769D01*
X98957663Y-93564769D02*
X96100000Y-93564769D01*
X108550000Y-93564769D02*
X104871876Y-93564769D01*
X93249682Y-93802269D02*
X91450000Y-93802269D01*
X95100000Y-93802269D02*
X94884409Y-93802269D01*
X99195163Y-93802269D02*
X96100000Y-93802269D01*
X108550000Y-93802269D02*
X105109376Y-93802269D01*
X93224336Y-94039769D02*
X91450000Y-94039769D01*
X95100000Y-94039769D02*
X94780993Y-94039769D01*
X99432663Y-94039769D02*
X96100000Y-94039769D01*
X103932662Y-94039769D02*
X103231027Y-94039769D01*
X108550000Y-94039769D02*
X105346876Y-94039769D01*
X93276208Y-94277269D02*
X91450000Y-94277269D01*
X95100000Y-94277269D02*
X94908734Y-94277269D01*
X99670163Y-94277269D02*
X96100000Y-94277269D01*
X104170162Y-94277269D02*
X103274289Y-94277269D01*
X108550000Y-94277269D02*
X105579093Y-94277269D01*
X93419683Y-94514769D02*
X91450000Y-94514769D01*
X95100000Y-94514769D02*
X94925000Y-94514769D01*
X99907663Y-94514769D02*
X96100000Y-94514769D01*
X104407662Y-94514769D02*
X103245989Y-94514769D01*
X108550000Y-94514769D02*
X105692059Y-94514769D01*
X93812266Y-94752269D02*
X91450000Y-94752269D01*
X95100000Y-94752269D02*
X94925000Y-94752269D01*
X98404234Y-94752269D02*
X96100000Y-94752269D01*
X100189751Y-94752269D02*
X99195105Y-94752269D01*
X104645162Y-94752269D02*
X103129424Y-94752269D01*
X108550000Y-94752269D02*
X105700000Y-94752269D01*
X93875000Y-94989769D02*
X91450000Y-94989769D01*
X95100000Y-94989769D02*
X94925000Y-94989769D01*
X96903125Y-94989769D02*
X96100000Y-94989769D01*
X101133321Y-94989769D02*
X99402252Y-94989769D01*
X104700000Y-94989769D02*
X103302252Y-94989769D01*
X108550000Y-94989769D02*
X105700000Y-94989769D01*
X93875000Y-95227269D02*
X91450000Y-95227269D01*
X95100000Y-95227269D02*
X94925000Y-95227269D01*
X96665625Y-95227269D02*
X96100000Y-95227269D01*
X101137054Y-95227269D02*
X99473734Y-95227269D01*
X104700000Y-95227269D02*
X103373734Y-95227269D01*
X108550000Y-95227269D02*
X105700000Y-95227269D01*
X93875000Y-95464769D02*
X91450000Y-95464769D01*
X95100000Y-95464769D02*
X94925000Y-95464769D01*
X96428125Y-95464769D02*
X96100000Y-95464769D01*
X101232013Y-95464769D02*
X99454796Y-95464769D01*
X104700000Y-95464769D02*
X103354796Y-95464769D01*
X108550000Y-95464769D02*
X105700000Y-95464769D01*
X93875000Y-95702269D02*
X91450000Y-95702269D01*
X95100000Y-95702269D02*
X94925000Y-95702269D01*
X96200238Y-95702269D02*
X96100000Y-95702269D01*
X101300000Y-95702269D02*
X99342312Y-95702269D01*
X104700000Y-95702269D02*
X103242312Y-95702269D01*
X108550000Y-95702269D02*
X105700000Y-95702269D01*
X93875000Y-95939769D02*
X91450000Y-95939769D01*
X95100000Y-95939769D02*
X94925000Y-95939769D01*
X96105944Y-95939769D02*
X96100000Y-95939769D01*
X98578272Y-95939769D02*
X97367337Y-95939769D01*
X101300000Y-95939769D02*
X99017233Y-95939769D01*
X104700000Y-95939769D02*
X102917233Y-95939769D01*
X108550000Y-95939769D02*
X105700000Y-95939769D01*
X93875000Y-96177269D02*
X91450000Y-96177269D01*
X95100000Y-96177269D02*
X94925000Y-96177269D01*
X101300000Y-96177269D02*
X97129837Y-96177269D01*
X104700000Y-96177269D02*
X102800000Y-96177269D01*
X108550000Y-96177269D02*
X105700000Y-96177269D01*
X93875000Y-96414769D02*
X91450000Y-96414769D01*
X95100000Y-96414769D02*
X94925000Y-96414769D01*
X101300000Y-96414769D02*
X97100000Y-96414769D01*
X104700000Y-96414769D02*
X102800000Y-96414769D01*
X108550000Y-96414769D02*
X105700000Y-96414769D01*
X93875000Y-96652269D02*
X91450000Y-96652269D01*
X95100000Y-96652269D02*
X94925000Y-96652269D01*
X101300000Y-96652269D02*
X97100000Y-96652269D01*
X104700000Y-96652269D02*
X102800000Y-96652269D01*
X108550000Y-96652269D02*
X105700000Y-96652269D01*
X93875000Y-96889769D02*
X91450000Y-96889769D01*
X95100000Y-96889769D02*
X94925000Y-96889769D01*
X101300000Y-96889769D02*
X97100000Y-96889769D01*
X104700000Y-96889769D02*
X102800000Y-96889769D01*
X108550000Y-96889769D02*
X105700000Y-96889769D01*
X93875000Y-97127269D02*
X91450000Y-97127269D01*
X95100000Y-97127269D02*
X94925000Y-97127269D01*
X101300000Y-97127269D02*
X97100000Y-97127269D01*
X104700000Y-97127269D02*
X102800000Y-97127269D01*
X108550000Y-97127269D02*
X105700000Y-97127269D01*
X93875000Y-97364769D02*
X91450000Y-97364769D01*
X95100000Y-97364769D02*
X94925000Y-97364769D01*
X101300000Y-97364769D02*
X97100000Y-97364769D01*
X104700000Y-97364769D02*
X102800000Y-97364769D01*
X108550000Y-97364769D02*
X105700000Y-97364769D01*
X93875000Y-97602269D02*
X91450000Y-97602269D01*
X95100000Y-97602269D02*
X94925000Y-97602269D01*
X101300000Y-97602269D02*
X97100000Y-97602269D01*
X104700000Y-97602269D02*
X102800000Y-97602269D01*
X108550000Y-97602269D02*
X105700000Y-97602269D01*
X93875000Y-97839769D02*
X91450000Y-97839769D01*
X95100000Y-97839769D02*
X94925000Y-97839769D01*
X101300000Y-97839769D02*
X97100000Y-97839769D01*
X104628552Y-97839769D02*
X102800000Y-97839769D01*
X108550000Y-97839769D02*
X105771099Y-97839769D01*
X93875000Y-98077269D02*
X91450000Y-98077269D01*
X95100000Y-98077269D02*
X94925000Y-98077269D01*
X101300000Y-98077269D02*
X97100000Y-98077269D01*
X104535978Y-98077269D02*
X102800000Y-98077269D01*
X108550000Y-98077269D02*
X105863833Y-98077269D01*
X93875000Y-98314769D02*
X91450000Y-98314769D01*
X95100000Y-98314769D02*
X94925000Y-98314769D01*
X101300000Y-98314769D02*
X97100000Y-98314769D01*
X104534760Y-98314769D02*
X102800000Y-98314769D01*
X108550000Y-98314769D02*
X105866156Y-98314769D01*
X93875000Y-98552269D02*
X91450000Y-98552269D01*
X95100000Y-98552269D02*
X94925000Y-98552269D01*
X101300000Y-98552269D02*
X97100000Y-98552269D01*
X104623957Y-98552269D02*
X102800000Y-98552269D01*
X108550000Y-98552269D02*
X105777583Y-98552269D01*
X93875000Y-98789769D02*
X91450000Y-98789769D01*
X95100000Y-98789769D02*
X94925000Y-98789769D01*
X101300000Y-98789769D02*
X97100000Y-98789769D01*
X104865785Y-98789769D02*
X102800000Y-98789769D01*
X108550000Y-98789769D02*
X105530462Y-98789769D01*
X93875000Y-99027269D02*
X91450000Y-99027269D01*
X95100000Y-99027269D02*
X94925000Y-99027269D01*
X101300000Y-99027269D02*
X97100000Y-99027269D01*
X108550000Y-99027269D02*
X102800000Y-99027269D01*
X93875000Y-99264769D02*
X91450000Y-99264769D01*
X95100000Y-99264769D02*
X94925000Y-99264769D01*
X101300000Y-99264769D02*
X97100000Y-99264769D01*
X108550000Y-99264769D02*
X102800000Y-99264769D01*
X93875000Y-99502269D02*
X91450000Y-99502269D01*
X95100000Y-99502269D02*
X94925000Y-99502269D01*
X101300000Y-99502269D02*
X97100000Y-99502269D01*
X108550000Y-99502269D02*
X102800000Y-99502269D01*
X93875000Y-99739769D02*
X91450000Y-99739769D01*
X95100000Y-99739769D02*
X94925000Y-99739769D01*
X101300000Y-99739769D02*
X97100000Y-99739769D01*
X106464366Y-99739769D02*
X102800000Y-99739769D01*
X108550000Y-99739769D02*
X107535924Y-99739769D01*
X93875000Y-99977269D02*
X91450000Y-99977269D01*
X95100000Y-99977269D02*
X94925000Y-99977269D01*
X101300000Y-99977269D02*
X97100000Y-99977269D01*
X106295103Y-99977269D02*
X102800000Y-99977269D01*
X108550000Y-99977269D02*
X107705266Y-99977269D01*
X93875000Y-100214769D02*
X91450000Y-100214769D01*
X95100000Y-100214769D02*
X94925000Y-100214769D01*
X101300000Y-100214769D02*
X97100000Y-100214769D01*
X106226082Y-100214769D02*
X102800000Y-100214769D01*
X108550000Y-100214769D02*
X107773204Y-100214769D01*
X93875000Y-100452269D02*
X91450000Y-100452269D01*
X95100000Y-100452269D02*
X94925000Y-100452269D01*
X101300000Y-100452269D02*
X97100000Y-100452269D01*
X106239967Y-100452269D02*
X102800000Y-100452269D01*
X108550000Y-100452269D02*
X107760189Y-100452269D01*
X93875000Y-100689769D02*
X91450000Y-100689769D01*
X95108338Y-100689769D02*
X94925000Y-100689769D01*
X101300000Y-100689769D02*
X97100000Y-100689769D01*
X106329152Y-100689769D02*
X102800000Y-100689769D01*
X108550000Y-100689769D02*
X107673512Y-100689769D01*
X93875000Y-100927269D02*
X91450000Y-100927269D01*
X95224525Y-100927269D02*
X94925000Y-100927269D01*
X101300000Y-100927269D02*
X97100000Y-100927269D01*
X106475000Y-100927269D02*
X102800000Y-100927269D01*
X108550000Y-100927269D02*
X107525000Y-100927269D01*
X93875000Y-101164769D02*
X91450000Y-101164769D01*
X95278817Y-101164769D02*
X94925000Y-101164769D01*
X101300000Y-101164769D02*
X97100000Y-101164769D01*
X106475000Y-101164769D02*
X102800000Y-101164769D01*
X108550000Y-101164769D02*
X107525000Y-101164769D01*
X93875000Y-101402269D02*
X91450000Y-101402269D01*
X95446634Y-101402269D02*
X94925000Y-101402269D01*
X101300000Y-101402269D02*
X97100000Y-101402269D01*
X106475000Y-101402269D02*
X102800000Y-101402269D01*
X108550000Y-101402269D02*
X107525000Y-101402269D01*
X93875000Y-101639769D02*
X91450000Y-101639769D01*
X96100000Y-101639769D02*
X94925000Y-101639769D01*
X101300000Y-101639769D02*
X97100000Y-101639769D01*
X106475000Y-101639769D02*
X102800000Y-101639769D01*
X108550000Y-101639769D02*
X107525000Y-101639769D01*
X93875000Y-101877269D02*
X91450000Y-101877269D01*
X96100000Y-101877269D02*
X94925000Y-101877269D01*
X101300000Y-101877269D02*
X97100000Y-101877269D01*
X106280269Y-101877269D02*
X102800000Y-101877269D01*
X108550000Y-101877269D02*
X107525000Y-101877269D01*
X93875000Y-102114769D02*
X91450000Y-102114769D01*
X96100000Y-102114769D02*
X94925000Y-102114769D01*
X101300000Y-102114769D02*
X97100000Y-102114769D01*
X106042769Y-102114769D02*
X102800000Y-102114769D01*
X108550000Y-102114769D02*
X107478175Y-102114769D01*
X93875000Y-102352269D02*
X91450000Y-102352269D01*
X96100000Y-102352269D02*
X94925000Y-102352269D01*
X101300000Y-102352269D02*
X97100000Y-102352269D01*
X105805269Y-102352269D02*
X102800000Y-102352269D01*
X108550000Y-102352269D02*
X107290193Y-102352269D01*
X93875000Y-102589769D02*
X91450000Y-102589769D01*
X96100000Y-102589769D02*
X94925000Y-102589769D01*
X101300000Y-102589769D02*
X97100000Y-102589769D01*
X105567769Y-102589769D02*
X102800000Y-102589769D01*
X108550000Y-102589769D02*
X107052693Y-102589769D01*
X93875000Y-102827269D02*
X91450000Y-102827269D01*
X96100000Y-102827269D02*
X94925000Y-102827269D01*
X101300000Y-102827269D02*
X97100000Y-102827269D01*
X105330269Y-102827269D02*
X102800000Y-102827269D01*
X108550000Y-102827269D02*
X106815193Y-102827269D01*
X93875000Y-103064769D02*
X91450000Y-103064769D01*
X96100000Y-103064769D02*
X94925000Y-103064769D01*
X101300000Y-103064769D02*
X97100000Y-103064769D01*
X105092769Y-103064769D02*
X102800000Y-103064769D01*
X108550000Y-103064769D02*
X106577693Y-103064769D01*
X93875000Y-103302269D02*
X91450000Y-103302269D01*
X96100000Y-103302269D02*
X94925000Y-103302269D01*
X101300000Y-103302269D02*
X97100000Y-103302269D01*
X104855269Y-103302269D02*
X102800000Y-103302269D01*
X108550000Y-103302269D02*
X106340193Y-103302269D01*
X93875000Y-103539769D02*
X91450000Y-103539769D01*
X96100000Y-103539769D02*
X94925000Y-103539769D01*
X101300000Y-103539769D02*
X97100000Y-103539769D01*
X104617769Y-103539769D02*
X102800000Y-103539769D01*
X108550000Y-103539769D02*
X106102693Y-103539769D01*
X93875000Y-103777269D02*
X91450000Y-103777269D01*
X96100000Y-103777269D02*
X94925000Y-103777269D01*
X101300000Y-103777269D02*
X97100000Y-103777269D01*
X104380269Y-103777269D02*
X102800000Y-103777269D01*
X108550000Y-103777269D02*
X105865193Y-103777269D01*
X93875000Y-104014769D02*
X91450000Y-104014769D01*
X96100000Y-104014769D02*
X94925000Y-104014769D01*
X101300000Y-104014769D02*
X97100000Y-104014769D01*
X104142769Y-104014769D02*
X102800000Y-104014769D01*
X108550000Y-104014769D02*
X105627693Y-104014769D01*
X93875000Y-104252269D02*
X91450000Y-104252269D01*
X96041665Y-104252269D02*
X94925000Y-104252269D01*
X101300000Y-104252269D02*
X97100000Y-104252269D01*
X103574415Y-104252269D02*
X102800000Y-104252269D01*
X108550000Y-104252269D02*
X105390193Y-104252269D01*
X93875000Y-104489769D02*
X91450000Y-104489769D01*
X95912917Y-104489769D02*
X94925000Y-104489769D01*
X101300000Y-104489769D02*
X97091056Y-104489769D01*
X103341586Y-104489769D02*
X102800000Y-104489769D01*
X108550000Y-104489769D02*
X105152693Y-104489769D01*
X93875000Y-104727269D02*
X91450000Y-104727269D01*
X95900000Y-104727269D02*
X94925000Y-104727269D01*
X101300000Y-104727269D02*
X96975144Y-104727269D01*
X103244368Y-104727269D02*
X102800000Y-104727269D01*
X108550000Y-104727269D02*
X104915193Y-104727269D01*
X93875000Y-104964769D02*
X91450000Y-104964769D01*
X95900000Y-104964769D02*
X94925000Y-104964769D01*
X101300000Y-104964769D02*
X96900000Y-104964769D01*
X103223987Y-104964769D02*
X102800000Y-104964769D01*
X108550000Y-104964769D02*
X104773067Y-104964769D01*
X93875000Y-105202269D02*
X91450000Y-105202269D01*
X95900000Y-105202269D02*
X95398684Y-105202269D01*
X101300000Y-105202269D02*
X96900000Y-105202269D01*
X103286107Y-105202269D02*
X102800000Y-105202269D01*
X108550000Y-105202269D02*
X104713800Y-105202269D01*
X93896410Y-105439769D02*
X91450000Y-105439769D01*
X95900000Y-105439769D02*
X95589809Y-105439769D01*
X101300000Y-105439769D02*
X96900000Y-105439769D01*
X103443825Y-105439769D02*
X102800000Y-105439769D01*
X108550000Y-105439769D02*
X104557042Y-105439769D01*
X94034807Y-105677269D02*
X91450000Y-105677269D01*
X95900000Y-105677269D02*
X95665779Y-105677269D01*
X101300000Y-105677269D02*
X96900000Y-105677269D01*
X108550000Y-105677269D02*
X102800000Y-105677269D01*
X94133085Y-105914769D02*
X91450000Y-105914769D01*
X95900000Y-105914769D02*
X95668709Y-105914769D01*
X101300000Y-105914769D02*
X96900000Y-105914769D01*
X108550000Y-105914769D02*
X102800000Y-105914769D01*
X94205903Y-106152269D02*
X91450000Y-106152269D01*
X95900000Y-106152269D02*
X95591539Y-106152269D01*
X101300000Y-106152269D02*
X96900000Y-106152269D01*
X108550000Y-106152269D02*
X102800000Y-106152269D01*
X94375000Y-106389769D02*
X91450000Y-106389769D01*
X95900000Y-106389769D02*
X95425000Y-106389769D01*
X101300000Y-106389769D02*
X96900000Y-106389769D01*
X108550000Y-106389769D02*
X102800000Y-106389769D01*
X94375000Y-106627269D02*
X91450000Y-106627269D01*
X95900000Y-106627269D02*
X95425000Y-106627269D01*
X101300000Y-106627269D02*
X96900000Y-106627269D01*
X108550000Y-106627269D02*
X102800000Y-106627269D01*
X94375000Y-106864769D02*
X91450000Y-106864769D01*
X95900000Y-106864769D02*
X95425000Y-106864769D01*
X101300000Y-106864769D02*
X96900000Y-106864769D01*
X108550000Y-106864769D02*
X102800000Y-106864769D01*
X94375000Y-107102269D02*
X91450000Y-107102269D01*
X95900000Y-107102269D02*
X95425000Y-107102269D01*
X101300000Y-107102269D02*
X96900000Y-107102269D01*
X108550000Y-107102269D02*
X102800000Y-107102269D01*
X94375000Y-107339769D02*
X91450000Y-107339769D01*
X95900000Y-107339769D02*
X95425000Y-107339769D01*
X101300000Y-107339769D02*
X96900000Y-107339769D01*
X108550000Y-107339769D02*
X102800000Y-107339769D01*
X94375000Y-107577269D02*
X91450000Y-107577269D01*
X95900000Y-107577269D02*
X95425000Y-107577269D01*
X101300000Y-107577269D02*
X96900000Y-107577269D01*
X108550000Y-107577269D02*
X102800000Y-107577269D01*
X94375000Y-107814769D02*
X91450000Y-107814769D01*
X95900000Y-107814769D02*
X95425000Y-107814769D01*
X101300000Y-107814769D02*
X96900000Y-107814769D01*
X108550000Y-107814769D02*
X102800000Y-107814769D01*
X94375000Y-108052269D02*
X91450000Y-108052269D01*
X95900000Y-108052269D02*
X95425000Y-108052269D01*
X101300000Y-108052269D02*
X96900000Y-108052269D01*
X108550000Y-108052269D02*
X102800000Y-108052269D01*
X94375000Y-108289769D02*
X91450000Y-108289769D01*
X95900000Y-108289769D02*
X95425000Y-108289769D01*
X101103125Y-108289769D02*
X96900000Y-108289769D01*
X108550000Y-108289769D02*
X102800000Y-108289769D01*
X94375000Y-108527269D02*
X91450000Y-108527269D01*
X95900000Y-108527269D02*
X95425000Y-108527269D01*
X100865625Y-108527269D02*
X96900000Y-108527269D01*
X108550000Y-108527269D02*
X102797675Y-108527269D01*
X94375000Y-108764769D02*
X91450000Y-108764769D01*
X95900000Y-108764769D02*
X95425000Y-108764769D01*
X100628125Y-108764769D02*
X96900000Y-108764769D01*
X108550000Y-108764769D02*
X102722666Y-108764769D01*
X94375000Y-109002269D02*
X91450000Y-109002269D01*
X95900000Y-109002269D02*
X95425000Y-109002269D01*
X100390625Y-109002269D02*
X96900000Y-109002269D01*
X108550000Y-109002269D02*
X102504838Y-109002269D01*
X94375000Y-109239769D02*
X91450000Y-109239769D01*
X95900000Y-109239769D02*
X95425000Y-109239769D01*
X100153125Y-109239769D02*
X96900000Y-109239769D01*
X108550000Y-109239769D02*
X102707153Y-109239769D01*
X94375000Y-109477269D02*
X91450000Y-109477269D01*
X95900000Y-109477269D02*
X95425000Y-109477269D01*
X99915625Y-109477269D02*
X96900000Y-109477269D01*
X108550000Y-109477269D02*
X102949639Y-109477269D01*
X94375000Y-109714769D02*
X91450000Y-109714769D01*
X95900000Y-109714769D02*
X95425000Y-109714769D01*
X99736281Y-109714769D02*
X96900000Y-109714769D01*
X108550000Y-109714769D02*
X103053404Y-109714769D01*
X94375000Y-109952269D02*
X91450000Y-109952269D01*
X95900000Y-109952269D02*
X95425000Y-109952269D01*
X99700000Y-109952269D02*
X96900000Y-109952269D01*
X108550000Y-109952269D02*
X103073242Y-109952269D01*
X94375000Y-110189769D02*
X91450000Y-110189769D01*
X95900000Y-110189769D02*
X95425000Y-110189769D01*
X99700000Y-110189769D02*
X96900000Y-110189769D01*
X101581157Y-110189769D02*
X101317337Y-110189769D01*
X108550000Y-110189769D02*
X103019366Y-110189769D01*
X94375000Y-110427269D02*
X91450000Y-110427269D01*
X95900000Y-110427269D02*
X95425000Y-110427269D01*
X99700000Y-110427269D02*
X96900000Y-110427269D01*
X101731754Y-110427269D02*
X101200000Y-110427269D01*
X108550000Y-110427269D02*
X102870169Y-110427269D01*
X94375000Y-110664769D02*
X91450000Y-110664769D01*
X95900000Y-110664769D02*
X95425000Y-110664769D01*
X98150835Y-110664769D02*
X96900000Y-110664769D01*
X99700000Y-110664769D02*
X98650961Y-110664769D01*
X101800000Y-110664769D02*
X101200000Y-110664769D01*
X108550000Y-110664769D02*
X102800000Y-110664769D01*
X94375000Y-110902269D02*
X91450000Y-110902269D01*
X95900000Y-110902269D02*
X95425000Y-110902269D01*
X97801499Y-110902269D02*
X96900000Y-110902269D01*
X99700000Y-110902269D02*
X98997989Y-110902269D01*
X101800000Y-110902269D02*
X101200000Y-110902269D01*
X108550000Y-110902269D02*
X102800000Y-110902269D01*
X94375000Y-111139769D02*
X91450000Y-111139769D01*
X95900000Y-111139769D02*
X95425000Y-111139769D01*
X97668316Y-111139769D02*
X96900000Y-111139769D01*
X99700000Y-111139769D02*
X99131027Y-111139769D01*
X101800000Y-111139769D02*
X101200000Y-111139769D01*
X108550000Y-111139769D02*
X102800000Y-111139769D01*
X94375000Y-111377269D02*
X91450000Y-111377269D01*
X95900000Y-111377269D02*
X95425000Y-111377269D01*
X97625209Y-111377269D02*
X96900000Y-111377269D01*
X99700000Y-111377269D02*
X99174289Y-111377269D01*
X101800000Y-111377269D02*
X101200000Y-111377269D01*
X108550000Y-111377269D02*
X102800000Y-111377269D01*
X94375000Y-111614769D02*
X91450000Y-111614769D01*
X95900000Y-111614769D02*
X95425000Y-111614769D01*
X97651462Y-111614769D02*
X96900000Y-111614769D01*
X99700000Y-111614769D02*
X99145989Y-111614769D01*
X101800000Y-111614769D02*
X101200000Y-111614769D01*
X108550000Y-111614769D02*
X102800000Y-111614769D01*
X94375000Y-111852269D02*
X91450000Y-111852269D01*
X95900000Y-111852269D02*
X95425000Y-111852269D01*
X97769430Y-111852269D02*
X96900000Y-111852269D01*
X99700000Y-111852269D02*
X99029424Y-111852269D01*
X101800000Y-111852269D02*
X101200000Y-111852269D01*
X108550000Y-111852269D02*
X102800000Y-111852269D01*
X94375000Y-112089769D02*
X91450000Y-112089769D01*
X95900000Y-112089769D02*
X95425000Y-112089769D01*
X97900000Y-112089769D02*
X96900000Y-112089769D01*
X99700000Y-112089769D02*
X98900000Y-112089769D01*
X101800000Y-112089769D02*
X101200000Y-112089769D01*
X108550000Y-112089769D02*
X102800000Y-112089769D01*
X94375000Y-112327269D02*
X91450000Y-112327269D01*
X95900000Y-112327269D02*
X95425000Y-112327269D01*
X97900000Y-112327269D02*
X96900000Y-112327269D01*
X99700000Y-112327269D02*
X98900000Y-112327269D01*
X101800000Y-112327269D02*
X101200000Y-112327269D01*
X108550000Y-112327269D02*
X102800000Y-112327269D01*
X94375000Y-112564769D02*
X91450000Y-112564769D01*
X95900000Y-112564769D02*
X95425000Y-112564769D01*
X97900000Y-112564769D02*
X96900000Y-112564769D01*
X99700000Y-112564769D02*
X98900000Y-112564769D01*
X101800000Y-112564769D02*
X101200000Y-112564769D01*
X108550000Y-112564769D02*
X102800000Y-112564769D01*
X94375000Y-112802269D02*
X91450000Y-112802269D01*
X95900000Y-112802269D02*
X95425000Y-112802269D01*
X97900000Y-112802269D02*
X96900000Y-112802269D01*
X99500238Y-112802269D02*
X98900000Y-112802269D01*
X101800000Y-112802269D02*
X101200000Y-112802269D01*
X108550000Y-112802269D02*
X102800000Y-112802269D01*
X94375000Y-113039769D02*
X91450000Y-113039769D01*
X95900000Y-113039769D02*
X95425000Y-113039769D01*
X97900000Y-113039769D02*
X96900000Y-113039769D01*
X99405944Y-113039769D02*
X98900000Y-113039769D01*
X101675822Y-113039769D02*
X101324724Y-113039769D01*
X108550000Y-113039769D02*
X102924724Y-113039769D01*
X94375000Y-113277269D02*
X91450000Y-113277269D01*
X95900000Y-113277269D02*
X95425000Y-113277269D01*
X97900000Y-113277269D02*
X96900000Y-113277269D01*
X99400000Y-113277269D02*
X98900000Y-113277269D01*
X101554996Y-113277269D02*
X101445979Y-113277269D01*
X108550000Y-113277269D02*
X103045979Y-113277269D01*
X94375000Y-113514769D02*
X91450000Y-113514769D01*
X95900000Y-113514769D02*
X95425000Y-113514769D01*
X97900000Y-113514769D02*
X96900000Y-113514769D01*
X99400000Y-113514769D02*
X98900000Y-113514769D01*
X101524685Y-113514769D02*
X101473765Y-113514769D01*
X108550000Y-113514769D02*
X103073765Y-113514769D01*
X94375000Y-113752269D02*
X91450000Y-113752269D01*
X95900000Y-113752269D02*
X95425000Y-113752269D01*
X97900000Y-113752269D02*
X96900000Y-113752269D01*
X99400000Y-113752269D02*
X98900000Y-113752269D01*
X101566310Y-113752269D02*
X101436062Y-113752269D01*
X108550000Y-113752269D02*
X103036062Y-113752269D01*
X94375000Y-113989769D02*
X91450000Y-113989769D01*
X95900000Y-113989769D02*
X95425000Y-113989769D01*
X97900000Y-113989769D02*
X96900000Y-113989769D01*
X99400000Y-113989769D02*
X98900000Y-113989769D01*
X101695541Y-113989769D02*
X101302970Y-113989769D01*
X108550000Y-113989769D02*
X102902970Y-113989769D01*
X94375000Y-114227269D02*
X91450000Y-114227269D01*
X95900000Y-114227269D02*
X95425000Y-114227269D01*
X97900000Y-114227269D02*
X96900000Y-114227269D01*
X99400000Y-114227269D02*
X98900000Y-114227269D01*
X100428759Y-114227269D02*
X100400000Y-114227269D01*
X102028759Y-114227269D02*
X100968187Y-114227269D01*
X108550000Y-114227269D02*
X102568187Y-114227269D01*
X94375000Y-114464769D02*
X91450000Y-114464769D01*
X95900000Y-114464769D02*
X95425000Y-114464769D01*
X97900000Y-114464769D02*
X96900000Y-114464769D01*
X99400000Y-114464769D02*
X98900000Y-114464769D01*
X108550000Y-114464769D02*
X100400000Y-114464769D01*
X94375000Y-114702269D02*
X91450000Y-114702269D01*
X95900000Y-114702269D02*
X95425000Y-114702269D01*
X97900000Y-114702269D02*
X96900000Y-114702269D01*
X99400000Y-114702269D02*
X98900000Y-114702269D01*
X108550000Y-114702269D02*
X100400000Y-114702269D01*
X94375000Y-114939769D02*
X91450000Y-114939769D01*
X95900000Y-114939769D02*
X95425000Y-114939769D01*
X97900000Y-114939769D02*
X96900000Y-114939769D01*
X99400000Y-114939769D02*
X98900000Y-114939769D01*
X108550000Y-114939769D02*
X100400000Y-114939769D01*
X94375000Y-115177269D02*
X91450000Y-115177269D01*
X95900000Y-115177269D02*
X95425000Y-115177269D01*
X97900000Y-115177269D02*
X96900000Y-115177269D01*
X99400000Y-115177269D02*
X98900000Y-115177269D01*
X108550000Y-115177269D02*
X100400000Y-115177269D01*
X94375000Y-115414769D02*
X91450000Y-115414769D01*
X95900000Y-115414769D02*
X95425000Y-115414769D01*
X97900000Y-115414769D02*
X96900000Y-115414769D01*
X99400000Y-115414769D02*
X98900000Y-115414769D01*
X108550000Y-115414769D02*
X100400000Y-115414769D01*
X94375000Y-115652269D02*
X91450000Y-115652269D01*
X95900000Y-115652269D02*
X95425000Y-115652269D01*
X97900000Y-115652269D02*
X96900000Y-115652269D01*
X99400000Y-115652269D02*
X98900000Y-115652269D01*
X101083614Y-115652269D02*
X100400000Y-115652269D01*
X108550000Y-115652269D02*
X101511732Y-115652269D01*
X94375000Y-115889769D02*
X91450000Y-115889769D01*
X95900000Y-115889769D02*
X95425000Y-115889769D01*
X97900000Y-115889769D02*
X96900000Y-115889769D01*
X99400000Y-115889769D02*
X98900000Y-115889769D01*
X100713308Y-115889769D02*
X100400000Y-115889769D01*
X108550000Y-115889769D02*
X101885576Y-115889769D01*
X94375000Y-116127269D02*
X91450000Y-116127269D01*
X95900000Y-116127269D02*
X95425000Y-116127269D01*
X97900000Y-116127269D02*
X96900000Y-116127269D01*
X99400000Y-116127269D02*
X98900000Y-116127269D01*
X100573673Y-116127269D02*
X100400000Y-116127269D01*
X108550000Y-116127269D02*
X102025874Y-116127269D01*
X94375000Y-116364769D02*
X91450000Y-116364769D01*
X95900000Y-116364769D02*
X95425000Y-116364769D01*
X97900000Y-116364769D02*
X96900000Y-116364769D01*
X99400000Y-116364769D02*
X98900000Y-116364769D01*
X100525383Y-116364769D02*
X100400000Y-116364769D01*
X108550000Y-116364769D02*
X102074463Y-116364769D01*
X94375000Y-116602269D02*
X91450000Y-116602269D01*
X95900000Y-116602269D02*
X95425000Y-116602269D01*
X97790625Y-116602269D02*
X96900000Y-116602269D01*
X99400000Y-116602269D02*
X98900000Y-116602269D01*
X100549144Y-116602269D02*
X100400000Y-116602269D01*
X108550000Y-116602269D02*
X102048829Y-116602269D01*
X94375000Y-116839769D02*
X91450000Y-116839769D01*
X95900000Y-116839769D02*
X95425000Y-116839769D01*
X97553125Y-116839769D02*
X96900000Y-116839769D01*
X99275822Y-116839769D02*
X98877713Y-116839769D01*
X100661375Y-116839769D02*
X100524724Y-116839769D01*
X108550000Y-116839769D02*
X101938241Y-116839769D01*
X94375000Y-117077269D02*
X91450000Y-117077269D01*
X95900000Y-117077269D02*
X95425000Y-117077269D01*
X97019896Y-117077269D02*
X96900000Y-117077269D01*
X99154996Y-117077269D02*
X98729837Y-117077269D01*
X100775000Y-117077269D02*
X100645979Y-117077269D01*
X108550000Y-117077269D02*
X101825000Y-117077269D01*
X94375000Y-117314769D02*
X91450000Y-117314769D01*
X95900000Y-117314769D02*
X95425000Y-117314769D01*
X99124685Y-117314769D02*
X98492337Y-117314769D01*
X100775000Y-117314769D02*
X100673765Y-117314769D01*
X108550000Y-117314769D02*
X101825000Y-117314769D01*
X94375000Y-117552269D02*
X91450000Y-117552269D01*
X95900000Y-117552269D02*
X95425000Y-117552269D01*
X99166310Y-117552269D02*
X98254837Y-117552269D01*
X100775000Y-117552269D02*
X100636062Y-117552269D01*
X108550000Y-117552269D02*
X101825000Y-117552269D01*
X94375000Y-117789769D02*
X91450000Y-117789769D01*
X95900000Y-117789769D02*
X95425000Y-117789769D01*
X99295541Y-117789769D02*
X98074114Y-117789769D01*
X100775000Y-117789769D02*
X100502970Y-117789769D01*
X108550000Y-117789769D02*
X101825000Y-117789769D01*
X94375000Y-118027269D02*
X91450000Y-118027269D01*
X95900000Y-118027269D02*
X95425000Y-118027269D01*
X99400000Y-118027269D02*
X98043149Y-118027269D01*
X100775000Y-118027269D02*
X100400000Y-118027269D01*
X108550000Y-118027269D02*
X101825000Y-118027269D01*
X94375000Y-118264769D02*
X91450000Y-118264769D01*
X95900000Y-118264769D02*
X95425000Y-118264769D01*
X99400000Y-118264769D02*
X97920606Y-118264769D01*
X100775000Y-118264769D02*
X100400000Y-118264769D01*
X108550000Y-118264769D02*
X101825000Y-118264769D01*
X94375000Y-118502269D02*
X91450000Y-118502269D01*
X95900000Y-118502269D02*
X95425000Y-118502269D01*
X99400000Y-118502269D02*
X97800000Y-118502269D01*
X100775000Y-118502269D02*
X100400000Y-118502269D01*
X108550000Y-118502269D02*
X101825000Y-118502269D01*
X94375000Y-118739769D02*
X91450000Y-118739769D01*
X95900000Y-118739769D02*
X95425000Y-118739769D01*
X99400000Y-118739769D02*
X97800000Y-118739769D01*
X100775000Y-118739769D02*
X100400000Y-118739769D01*
X108550000Y-118739769D02*
X101825000Y-118739769D01*
X94375000Y-118977269D02*
X91450000Y-118977269D01*
X95900000Y-118977269D02*
X95425000Y-118977269D01*
X99400000Y-118977269D02*
X97800000Y-118977269D01*
X100775000Y-118977269D02*
X100400000Y-118977269D01*
X108550000Y-118977269D02*
X101825000Y-118977269D01*
X94375000Y-119214769D02*
X91450000Y-119214769D01*
X95900000Y-119214769D02*
X95425000Y-119214769D01*
X99400000Y-119214769D02*
X97800000Y-119214769D01*
X100775000Y-119214769D02*
X100400000Y-119214769D01*
X108550000Y-119214769D02*
X101825000Y-119214769D01*
X94375000Y-119452269D02*
X91450000Y-119452269D01*
X95900000Y-119452269D02*
X95425000Y-119452269D01*
X99400000Y-119452269D02*
X97800000Y-119452269D01*
X100775000Y-119452269D02*
X100400000Y-119452269D01*
X108550000Y-119452269D02*
X101825000Y-119452269D01*
X94375000Y-119689769D02*
X91450000Y-119689769D01*
X95900000Y-119689769D02*
X95425000Y-119689769D01*
X99400000Y-119689769D02*
X97800000Y-119689769D01*
X100775000Y-119689769D02*
X100400000Y-119689769D01*
X108550000Y-119689769D02*
X101825000Y-119689769D01*
X94375000Y-119927269D02*
X91450000Y-119927269D01*
X95900000Y-119927269D02*
X95425000Y-119927269D01*
X99400000Y-119927269D02*
X97800000Y-119927269D01*
X100775000Y-119927269D02*
X100400000Y-119927269D01*
X108550000Y-119927269D02*
X101825000Y-119927269D01*
X94375000Y-120164769D02*
X91450000Y-120164769D01*
X95900000Y-120164769D02*
X95425000Y-120164769D01*
X99400000Y-120164769D02*
X97800000Y-120164769D01*
X100775000Y-120164769D02*
X100400000Y-120164769D01*
X108550000Y-120164769D02*
X101825000Y-120164769D01*
X94375000Y-120402269D02*
X91450000Y-120402269D01*
X95900000Y-120402269D02*
X95425000Y-120402269D01*
X99400000Y-120402269D02*
X97800000Y-120402269D01*
X100775000Y-120402269D02*
X100400000Y-120402269D01*
X108550000Y-120402269D02*
X101825000Y-120402269D01*
X94375000Y-120639769D02*
X91450000Y-120639769D01*
X95900000Y-120639769D02*
X95425000Y-120639769D01*
X99400000Y-120639769D02*
X97800000Y-120639769D01*
X100775000Y-120639769D02*
X100400000Y-120639769D01*
X108550000Y-120639769D02*
X101825000Y-120639769D01*
X94375000Y-120877269D02*
X91450000Y-120877269D01*
X95900000Y-120877269D02*
X95425000Y-120877269D01*
X99400000Y-120877269D02*
X97800000Y-120877269D01*
X100775000Y-120877269D02*
X100400000Y-120877269D01*
X108550000Y-120877269D02*
X101825000Y-120877269D01*
X94375000Y-121114769D02*
X91450000Y-121114769D01*
X95900000Y-121114769D02*
X95425000Y-121114769D01*
X99400000Y-121114769D02*
X97800000Y-121114769D01*
X100775000Y-121114769D02*
X100400000Y-121114769D01*
X108550000Y-121114769D02*
X101825000Y-121114769D01*
X94375000Y-121352269D02*
X91450000Y-121352269D01*
X95900000Y-121352269D02*
X95425000Y-121352269D01*
X99400000Y-121352269D02*
X97800000Y-121352269D01*
X100775000Y-121352269D02*
X100400000Y-121352269D01*
X108550000Y-121352269D02*
X101825000Y-121352269D01*
X94375000Y-121589769D02*
X91450000Y-121589769D01*
X95900000Y-121589769D02*
X95425000Y-121589769D01*
X99400000Y-121589769D02*
X97800000Y-121589769D01*
X100775000Y-121589769D02*
X100400000Y-121589769D01*
X108550000Y-121589769D02*
X101825000Y-121589769D01*
X94375000Y-121827269D02*
X91450000Y-121827269D01*
X95900000Y-121827269D02*
X95425000Y-121827269D01*
X99400000Y-121827269D02*
X97800000Y-121827269D01*
X100775000Y-121827269D02*
X100400000Y-121827269D01*
X108550000Y-121827269D02*
X101969731Y-121827269D01*
X94375000Y-122064769D02*
X91450000Y-122064769D01*
X95900000Y-122064769D02*
X95425000Y-122064769D01*
X99400000Y-122064769D02*
X97800000Y-122064769D01*
X100803771Y-122064769D02*
X100400000Y-122064769D01*
X108550000Y-122064769D02*
X102207231Y-122064769D01*
X94375000Y-122302269D02*
X91450000Y-122302269D01*
X95900000Y-122302269D02*
X95425000Y-122302269D01*
X99400222Y-122302269D02*
X97800000Y-122302269D01*
X100959807Y-122302269D02*
X100609376Y-122302269D01*
X108550000Y-122302269D02*
X102444731Y-122302269D01*
X94375000Y-122539769D02*
X91450000Y-122539769D01*
X95900000Y-122539769D02*
X95425000Y-122539769D01*
X99463791Y-122539769D02*
X97800000Y-122539769D01*
X101197307Y-122539769D02*
X100846876Y-122539769D01*
X108550000Y-122539769D02*
X102682231Y-122539769D01*
X94375000Y-122777269D02*
X91450000Y-122777269D01*
X95900000Y-122777269D02*
X95425000Y-122777269D01*
X99670162Y-122777269D02*
X97800000Y-122777269D01*
X101434807Y-122777269D02*
X101084376Y-122777269D01*
X108550000Y-122777269D02*
X102919731Y-122777269D01*
X94375000Y-123014769D02*
X91450000Y-123014769D01*
X95900000Y-123014769D02*
X95425000Y-123014769D01*
X99907662Y-123014769D02*
X97800000Y-123014769D01*
X101672307Y-123014769D02*
X101321876Y-123014769D01*
X108550000Y-123014769D02*
X103157231Y-123014769D01*
X94375000Y-123252269D02*
X91450000Y-123252269D01*
X95900000Y-123252269D02*
X95425000Y-123252269D01*
X100145162Y-123252269D02*
X97800000Y-123252269D01*
X101909807Y-123252269D02*
X101559376Y-123252269D01*
X108550000Y-123252269D02*
X103394731Y-123252269D01*
X94375000Y-123489769D02*
X91450000Y-123489769D01*
X95900000Y-123489769D02*
X95425000Y-123489769D01*
X100382662Y-123489769D02*
X97800000Y-123489769D01*
X102147307Y-123489769D02*
X101796876Y-123489769D01*
X108550000Y-123489769D02*
X103579981Y-123489769D01*
X94375000Y-123727269D02*
X91450000Y-123727269D01*
X95900000Y-123727269D02*
X95425000Y-123727269D01*
X100620162Y-123727269D02*
X97800000Y-123727269D01*
X102384807Y-123727269D02*
X102034376Y-123727269D01*
X108550000Y-123727269D02*
X103625000Y-123727269D01*
X94375000Y-123964769D02*
X91450000Y-123964769D01*
X95900000Y-123964769D02*
X95425000Y-123964769D01*
X100857662Y-123964769D02*
X97800000Y-123964769D01*
X102575000Y-123964769D02*
X102550961Y-123964769D01*
X108550000Y-123964769D02*
X103625000Y-123964769D01*
X94375000Y-124202269D02*
X91450000Y-124202269D01*
X95900000Y-124202269D02*
X95425000Y-124202269D01*
X101095162Y-124202269D02*
X97966249Y-124202269D01*
X108550000Y-124202269D02*
X103625000Y-124202269D01*
X94375000Y-124439769D02*
X91450000Y-124439769D01*
X95900000Y-124439769D02*
X95425000Y-124439769D01*
X101332662Y-124439769D02*
X98058354Y-124439769D01*
X108550000Y-124439769D02*
X103625000Y-124439769D01*
X94375000Y-124677269D02*
X91450000Y-124677269D01*
X95900000Y-124677269D02*
X95425000Y-124677269D01*
X101525209Y-124677269D02*
X98072892Y-124677269D01*
X108550000Y-124677269D02*
X103625000Y-124677269D01*
X94375000Y-124914769D02*
X91450000Y-124914769D01*
X95900000Y-124914769D02*
X95425000Y-124914769D01*
X99658262Y-124914769D02*
X98008235Y-124914769D01*
X101551462Y-124914769D02*
X100339749Y-124914769D01*
X108550000Y-124914769D02*
X103625000Y-124914769D01*
X94375000Y-125152269D02*
X91450000Y-125152269D01*
X95900000Y-125152269D02*
X95425000Y-125152269D01*
X99306915Y-125152269D02*
X97843916Y-125152269D01*
X101669430Y-125152269D02*
X100693086Y-125152269D01*
X108550000Y-125152269D02*
X103625000Y-125152269D01*
X94375000Y-125389769D02*
X91450000Y-125389769D01*
X95900000Y-125389769D02*
X95425000Y-125389769D01*
X99039029Y-125389769D02*
X96900000Y-125389769D01*
X99410982Y-125389769D02*
X99368556Y-125389769D01*
X100631444Y-125389769D02*
X100589018Y-125389769D01*
X101942924Y-125389769D02*
X100965862Y-125389769D01*
X108550000Y-125389769D02*
X103625000Y-125389769D01*
X94375000Y-125627269D02*
X91450000Y-125627269D01*
X95900000Y-125627269D02*
X95425000Y-125627269D01*
X98925724Y-125627269D02*
X96900000Y-125627269D01*
X99648482Y-125627269D02*
X99606056Y-125627269D01*
X100393944Y-125627269D02*
X100351518Y-125627269D01*
X102575000Y-125627269D02*
X101076708Y-125627269D01*
X108550000Y-125627269D02*
X103625000Y-125627269D01*
X94375000Y-125864769D02*
X91450000Y-125864769D01*
X95900000Y-125864769D02*
X95425000Y-125864769D01*
X98871055Y-125864769D02*
X96900000Y-125864769D01*
X99885982Y-125864769D02*
X99843556Y-125864769D01*
X100156444Y-125864769D02*
X100114018Y-125864769D01*
X102575000Y-125864769D02*
X101130199Y-125864769D01*
X108550000Y-125864769D02*
X103625000Y-125864769D01*
X94375000Y-126102269D02*
X91450000Y-126102269D01*
X95900000Y-126102269D02*
X95425000Y-126102269D01*
X98867422Y-126102269D02*
X96900000Y-126102269D01*
X99918944Y-126102269D02*
X99876518Y-126102269D01*
X100123482Y-126102269D02*
X100081056Y-126102269D01*
X102575000Y-126102269D02*
X101133063Y-126102269D01*
X108550000Y-126102269D02*
X103625000Y-126102269D01*
X94375000Y-126339769D02*
X91450000Y-126339769D01*
X95900000Y-126339769D02*
X95425000Y-126339769D01*
X98914227Y-126339769D02*
X96900000Y-126339769D01*
X99681444Y-126339769D02*
X99639018Y-126339769D01*
X100360982Y-126339769D02*
X100318556Y-126339769D01*
X102575000Y-126339769D02*
X101085224Y-126339769D01*
X108550000Y-126339769D02*
X103625000Y-126339769D01*
X94375000Y-126577269D02*
X91450000Y-126577269D01*
X95900000Y-126577269D02*
X95425000Y-126577269D01*
X99017523Y-126577269D02*
X96900000Y-126577269D01*
X99443944Y-126577269D02*
X99401518Y-126577269D01*
X100598482Y-126577269D02*
X100556056Y-126577269D01*
X102575000Y-126577269D02*
X100979713Y-126577269D01*
X108550000Y-126577269D02*
X103625000Y-126577269D01*
X94375000Y-126814769D02*
X91450000Y-126814769D01*
X95900000Y-126814769D02*
X95425000Y-126814769D01*
X99293880Y-126814769D02*
X96900000Y-126814769D01*
X102575000Y-126814769D02*
X100706119Y-126814769D01*
X108550000Y-126814769D02*
X103625000Y-126814769D01*
X94375000Y-127052269D02*
X91450000Y-127052269D01*
X95900000Y-127052269D02*
X95425000Y-127052269D01*
X99561006Y-127052269D02*
X96900000Y-127052269D01*
X102575000Y-127052269D02*
X100438064Y-127052269D01*
X108550000Y-127052269D02*
X103625000Y-127052269D01*
X94375000Y-127289769D02*
X91450000Y-127289769D01*
X95900000Y-127289769D02*
X95425000Y-127289769D01*
X102575000Y-127289769D02*
X96900000Y-127289769D01*
X108550000Y-127289769D02*
X103625000Y-127289769D01*
X94375000Y-127527269D02*
X91450000Y-127527269D01*
X95900000Y-127527269D02*
X95425000Y-127527269D01*
X102575000Y-127527269D02*
X96900000Y-127527269D01*
X108550000Y-127527269D02*
X103625000Y-127527269D01*
X94375000Y-127764769D02*
X91450000Y-127764769D01*
X95900000Y-127764769D02*
X95425000Y-127764769D01*
X102575000Y-127764769D02*
X96900000Y-127764769D01*
X108550000Y-127764769D02*
X103625000Y-127764769D01*
X94375000Y-128002269D02*
X91450000Y-128002269D01*
X95900000Y-128002269D02*
X95425000Y-128002269D01*
X102575000Y-128002269D02*
X96900000Y-128002269D01*
X108550000Y-128002269D02*
X103625000Y-128002269D01*
X94375000Y-128239769D02*
X91450000Y-128239769D01*
X95900000Y-128239769D02*
X95425000Y-128239769D01*
X102411175Y-128239769D02*
X96900000Y-128239769D01*
X108550000Y-128239769D02*
X103789809Y-128239769D01*
X94375000Y-128477269D02*
X91450000Y-128477269D01*
X95900000Y-128477269D02*
X95425000Y-128477269D01*
X102333740Y-128477269D02*
X96900000Y-128477269D01*
X108550000Y-128477269D02*
X103865779Y-128477269D01*
X94375000Y-128714769D02*
X91450000Y-128714769D01*
X95900000Y-128714769D02*
X95425000Y-128714769D01*
X102333085Y-128714769D02*
X96900000Y-128714769D01*
X108550000Y-128714769D02*
X103868709Y-128714769D01*
X94375000Y-128952269D02*
X91450000Y-128952269D01*
X95900000Y-128952269D02*
X95425000Y-128952269D01*
X102405903Y-128952269D02*
X96900000Y-128952269D01*
X108550000Y-128952269D02*
X103791539Y-128952269D01*
X94375000Y-129189769D02*
X91450000Y-129189769D01*
X95813308Y-129189769D02*
X95425000Y-129189769D01*
X102592110Y-129189769D02*
X96985576Y-129189769D01*
X108550000Y-129189769D02*
X103604537Y-129189769D01*
X94375000Y-129427269D02*
X91450000Y-129427269D01*
X95673673Y-129427269D02*
X95425000Y-129427269D01*
X108550000Y-129427269D02*
X97125874Y-129427269D01*
X94375000Y-129664769D02*
X91450000Y-129664769D01*
X95625383Y-129664769D02*
X95425000Y-129664769D01*
X108550000Y-129664769D02*
X97174463Y-129664769D01*
X94375000Y-129902269D02*
X91450000Y-129902269D01*
X95649144Y-129902269D02*
X95425000Y-129902269D01*
X108550000Y-129902269D02*
X97148829Y-129902269D01*
X94375000Y-130139769D02*
X91450000Y-130139769D01*
X95761375Y-130139769D02*
X95425000Y-130139769D01*
X108550000Y-130139769D02*
X97038241Y-130139769D01*
X94375000Y-130377269D02*
X91450000Y-130377269D01*
X96016454Y-130377269D02*
X95425000Y-130377269D01*
X108550000Y-130377269D02*
X96779219Y-130377269D01*
X94131721Y-130614769D02*
X91450000Y-130614769D01*
X108550000Y-130614769D02*
X95425000Y-130614769D01*
X93867263Y-130852269D02*
X91450000Y-130852269D01*
X108550000Y-130852269D02*
X95425000Y-130852269D01*
X93752339Y-131089769D02*
X91450000Y-131089769D01*
X108550000Y-131089769D02*
X95388349Y-131089769D01*
X93724511Y-131327269D02*
X91450000Y-131327269D01*
X108550000Y-131327269D02*
X95273591Y-131327269D01*
X93771259Y-131564769D02*
X91450000Y-131564769D01*
X108550000Y-131564769D02*
X95230496Y-131564769D01*
X93907612Y-131802269D02*
X91450000Y-131802269D01*
X108550000Y-131802269D02*
X95094153Y-131802269D01*
X94257370Y-132039769D02*
X91450000Y-132039769D01*
X108550000Y-132039769D02*
X94735960Y-132039769D01*
X108550000Y-132277269D02*
X91450000Y-132277269D01*
X108550000Y-132514769D02*
X91450000Y-132514769D01*
X108550000Y-132752269D02*
X91450000Y-132752269D01*
X108550000Y-132989769D02*
X91450000Y-132989769D01*
X96996037Y-133227269D02*
X91450000Y-133227269D01*
X101996037Y-133227269D02*
X98001219Y-133227269D01*
X108550000Y-133227269D02*
X103001219Y-133227269D01*
X96676716Y-133464769D02*
X91450000Y-133464769D01*
X101676716Y-133464769D02*
X98322678Y-133464769D01*
X108550000Y-133464769D02*
X103322678Y-133464769D01*
X96497674Y-133702269D02*
X91450000Y-133702269D01*
X101497674Y-133702269D02*
X98501223Y-133702269D01*
X108550000Y-133702269D02*
X103501223Y-133702269D01*
X96403492Y-133939769D02*
X91450000Y-133939769D01*
X101403492Y-133939769D02*
X98597696Y-133939769D01*
X108550000Y-133939769D02*
X103597696Y-133939769D01*
X96363857Y-134177269D02*
X91450000Y-134177269D01*
X101363857Y-134177269D02*
X98636506Y-134177269D01*
X108550000Y-134177269D02*
X103636506Y-134177269D01*
X96374200Y-134414769D02*
X91450000Y-134414769D01*
X101374200Y-134414769D02*
X98628590Y-134414769D01*
X108550000Y-134414769D02*
X103628590Y-134414769D01*
X96436343Y-134652269D02*
X91450000Y-134652269D01*
X101436343Y-134652269D02*
X98565552Y-134652269D01*
X108550000Y-134652269D02*
X103565552Y-134652269D01*
X96559586Y-134889769D02*
X91450000Y-134889769D01*
X101559586Y-134889769D02*
X98440182Y-134889769D01*
X108550000Y-134889769D02*
X103440182Y-134889769D01*
X96769897Y-135127269D02*
X91450000Y-135127269D01*
X101769897Y-135127269D02*
X98227582Y-135127269D01*
X108550000Y-135127269D02*
X103227582Y-135127269D01*
X97275145Y-135364769D02*
X91450000Y-135364769D01*
X102275145Y-135364769D02*
X97725830Y-135364769D01*
X108550000Y-135364769D02*
X102725830Y-135364769D01*
X108550000Y-135602269D02*
X91450000Y-135602269D01*
X108550000Y-135839769D02*
X91450000Y-135839769D01*
X108550000Y-136077269D02*
X91450000Y-136077269D01*
X108550000Y-136314769D02*
X91450000Y-136314769D01*
X108550000Y-136552269D02*
X91450000Y-136552269D01*
X108550000Y-136789769D02*
X91450000Y-136789769D01*
X108550000Y-137027269D02*
X91450000Y-137027269D01*
X108550000Y-137264769D02*
X91450000Y-137264769D01*
X108550000Y-137502269D02*
X91450000Y-137502269D01*
X108550000Y-137739769D02*
X91450000Y-137739769D01*
X108550000Y-137977269D02*
X91450000Y-137977269D01*
X108550000Y-138214769D02*
X91450000Y-138214769D01*
X108550000Y-138452269D02*
X91450000Y-138452269D01*
X108550000Y-138689769D02*
X91450000Y-138689769D01*
X108550000Y-138927269D02*
X91450000Y-138927269D01*
X108531687Y-139164769D02*
X91468379Y-139164769D01*
X108487681Y-139402269D02*
X91511952Y-139402269D01*
X99335929Y-139639769D02*
X91594706Y-139639769D01*
X108404502Y-139639769D02*
X100664159Y-139639769D01*
X98585715Y-139877269D02*
X91726481Y-139877269D01*
X108272343Y-139877269D02*
X101410050Y-139877269D01*
X98153842Y-140114769D02*
X91929528Y-140114769D01*
X108069163Y-140114769D02*
X101847631Y-140114769D01*
X97808353Y-140352269D02*
X92261996Y-140352269D01*
X107737839Y-140352269D02*
X102197759Y-140352269D01*
X97565826Y-140589769D02*
X93427599Y-140589769D01*
X106584544Y-140589769D02*
X102433606Y-140589769D01*
X97336578Y-140827269D02*
X94111989Y-140827269D01*
X105887326Y-140827269D02*
X102668651Y-140827269D01*
X97173959Y-141064769D02*
X94488472Y-141064769D01*
X105510673Y-141064769D02*
X102826446Y-141064769D01*
X97011339Y-141302269D02*
X94762824Y-141302269D01*
X105235485Y-141302269D02*
X102984240Y-141302269D01*
X96899368Y-141539769D02*
X94959303Y-141539769D01*
X105041737Y-141539769D02*
X103102816Y-141539769D01*
X96797576Y-141777269D02*
X95113224Y-141777269D01*
X104886153Y-141777269D02*
X103200707Y-141777269D01*
X96707751Y-142014769D02*
X95241605Y-142014769D01*
X104759871Y-142014769D02*
X103296564Y-142014769D01*
X96657269Y-142252269D02*
X95323244Y-142252269D01*
X104676495Y-142252269D02*
X103343591Y-142252269D01*
X96606787Y-142489769D02*
X95394462Y-142489769D01*
X104605653Y-142489769D02*
X103390617Y-142489769D01*
X96578328Y-142727269D02*
X95425233Y-142727269D01*
X104574584Y-142727269D02*
X103424265Y-142727269D01*
X96575012Y-142964769D02*
X95447962Y-142964769D01*
X104551297Y-142964769D02*
X103420949Y-142964769D01*
X96571695Y-143202269D02*
X95468168Y-143202269D01*
X104528010Y-143202269D02*
X103417632Y-143202269D01*
X96598356Y-143439769D02*
X95494808Y-143439769D01*
X104504723Y-143439769D02*
X103412519Y-143439769D01*
X96641945Y-143677269D02*
X95521448Y-143677269D01*
X104481436Y-143677269D02*
X103358561Y-143677269D01*
X96685535Y-143914769D02*
X95548087Y-143914769D01*
X104451743Y-143914769D02*
X103304602Y-143914769D01*
X96772377Y-144152269D02*
X95617115Y-144152269D01*
X104380037Y-144152269D02*
X103236266Y-144152269D01*
X96866410Y-144389769D02*
X95692455Y-144389769D01*
X104308332Y-144389769D02*
X103130524Y-144389769D01*
X96973896Y-144627269D02*
X95767794Y-144627269D01*
X104236626Y-144627269D02*
X103024782Y-144627269D01*
X97126955Y-144864769D02*
X95860151Y-144864769D01*
X104134653Y-144864769D02*
X102876152Y-144864769D01*
X97280013Y-145102269D02*
X95990718Y-145102269D01*
X104008372Y-145102269D02*
X102708614Y-145102269D01*
X97497974Y-145339769D02*
X96121285Y-145339769D01*
X103882091Y-145339769D02*
X102509719Y-145339769D01*
X97727325Y-145577269D02*
X96254133Y-145577269D01*
X103738626Y-145577269D02*
X102260320Y-145577269D01*
X98048405Y-145814769D02*
X96453420Y-145814769D01*
X103544926Y-145814769D02*
X101956898Y-145814769D01*
X98430966Y-146052269D02*
X96652706Y-146052269D01*
X103351226Y-146052269D02*
X101582658Y-146052269D01*
X99012178Y-146289769D02*
X96868365Y-146289769D01*
X103124022Y-146289769D02*
X100990022Y-146289769D01*
X102836934Y-146527269D02*
X97163755Y-146527269D01*
X102549846Y-146764769D02*
X97459145Y-146764769D01*
X102114163Y-147002269D02*
X97886208Y-147002269D01*
X101609623Y-147239769D02*
X98374780Y-147239769D01*
X100702152Y-147477269D02*
X99257502Y-147477269D01*
X108550000Y-138977994D02*
X108550000Y-71010088D01*
X108312500Y-139812798D02*
X108312500Y-70188611D01*
X108075000Y-140109940D02*
X108075000Y-69888924D01*
X107837500Y-140298382D02*
X107837500Y-69700633D01*
X107600000Y-99804295D02*
X107600000Y-69574352D01*
X107600000Y-140426797D02*
X107600000Y-100793981D01*
X107362500Y-99611657D02*
X107362500Y-69500312D01*
X107362500Y-140500358D02*
X107362500Y-102279962D01*
X107125000Y-99534466D02*
X107125000Y-69464414D01*
X107125000Y-140535801D02*
X107125000Y-102517462D01*
X106887500Y-99532451D02*
X106887500Y-69441126D01*
X106887500Y-140557926D02*
X106887500Y-102754962D01*
X106650000Y-99605508D02*
X106650000Y-69417839D01*
X106650000Y-140582889D02*
X106650000Y-102992462D01*
X106412500Y-99790559D02*
X106412500Y-69371881D01*
X106412500Y-101745038D02*
X106412500Y-100807330D01*
X106412500Y-140627156D02*
X106412500Y-103229962D01*
X106175000Y-101982538D02*
X106175000Y-69300176D01*
X106175000Y-140700675D02*
X106175000Y-103467462D01*
X105937500Y-102220038D02*
X105937500Y-69199044D01*
X105937500Y-140800140D02*
X105937500Y-103704962D01*
X105700000Y-94600000D02*
X105700000Y-69072763D01*
X105700000Y-102457538D02*
X105700000Y-98655996D01*
X105700000Y-140928555D02*
X105700000Y-103942462D01*
X105462500Y-94155394D02*
X105462500Y-68895244D01*
X105462500Y-102695038D02*
X105462500Y-98822212D01*
X105462500Y-141104620D02*
X105462500Y-104179962D01*
X105225000Y-93917894D02*
X105225000Y-68683013D01*
X105225000Y-102932538D02*
X105225000Y-98875700D01*
X105225000Y-141315066D02*
X105225000Y-104417462D01*
X104987500Y-93680394D02*
X104987500Y-68394668D01*
X104987500Y-103170038D02*
X104987500Y-98843800D01*
X104987500Y-141606269D02*
X104987500Y-104654962D01*
X104750000Y-93442894D02*
X104750000Y-67964994D01*
X104750000Y-103407538D02*
X104750000Y-98705754D01*
X104750000Y-142035286D02*
X104750000Y-105097118D01*
X104512500Y-93205394D02*
X104512500Y-66625372D01*
X104512500Y-103645038D02*
X104512500Y-94619606D01*
X104512500Y-143360451D02*
X104512500Y-105482187D01*
X104275000Y-92982821D02*
X104275000Y-65507632D01*
X104275000Y-103882538D02*
X104275000Y-94382106D01*
X104275000Y-144500166D02*
X104275000Y-105624627D01*
X104037500Y-92903473D02*
X104037500Y-64949059D01*
X104037500Y-104120038D02*
X104037500Y-94144606D01*
X104037500Y-145047485D02*
X104037500Y-105675989D01*
X103800000Y-92900000D02*
X103800000Y-64517049D01*
X103800000Y-104149143D02*
X103800000Y-93907106D01*
X103800000Y-128264496D02*
X103800000Y-105649571D01*
X103800000Y-145494157D02*
X103800000Y-128933266D01*
X103562500Y-92900000D02*
X103562500Y-64204203D01*
X103562500Y-104260065D02*
X103562500Y-93900000D01*
X103562500Y-123456889D02*
X103562500Y-105539769D01*
X103562500Y-133843991D02*
X103562500Y-129224418D01*
X103562500Y-145793220D02*
X103562500Y-134659126D01*
X103325000Y-66158383D02*
X103325000Y-63921161D01*
X103325000Y-92900000D02*
X103325000Y-67824989D01*
X103325000Y-95044963D02*
X103325000Y-93900000D01*
X103325000Y-104513991D02*
X103325000Y-95555849D01*
X103325000Y-123182538D02*
X103325000Y-105283326D01*
X103325000Y-133467108D02*
X103325000Y-129344021D01*
X103325000Y-142158383D02*
X103325000Y-135034500D01*
X103325000Y-146084424D02*
X103325000Y-143824989D01*
X103087500Y-65502610D02*
X103087500Y-63674745D01*
X103087500Y-92900000D02*
X103087500Y-68486404D01*
X103087500Y-104965164D02*
X103087500Y-95853572D01*
X103087500Y-122945038D02*
X103087500Y-104965164D01*
X103087500Y-133274747D02*
X103087500Y-129374941D01*
X103087500Y-141502610D02*
X103087500Y-135223852D01*
X103087500Y-146319982D02*
X103087500Y-144486404D01*
X102850000Y-65100223D02*
X102850000Y-63483790D01*
X102850000Y-71377814D02*
X102850000Y-68901843D01*
X102850000Y-92900000D02*
X102850000Y-72223101D01*
X102850000Y-104965164D02*
X102850000Y-95958993D01*
X102850000Y-109353945D02*
X102850000Y-104965164D01*
X102850000Y-112953945D02*
X102850000Y-110446476D01*
X102850000Y-122707538D02*
X102850000Y-114046476D01*
X102850000Y-133163703D02*
X102850000Y-129336548D01*
X102850000Y-141100223D02*
X102850000Y-135333829D01*
X102850000Y-146516459D02*
X102850000Y-144901843D01*
X102612500Y-64769917D02*
X102612500Y-63292834D01*
X102612500Y-71143377D02*
X102612500Y-69238521D01*
X102612500Y-92900000D02*
X102612500Y-72456149D01*
X102612500Y-109190639D02*
X102612500Y-108894607D01*
X102612500Y-122470038D02*
X102612500Y-114210082D01*
X102612500Y-133113710D02*
X102612500Y-129205018D01*
X102612500Y-140769917D02*
X102612500Y-135384753D01*
X102612500Y-146712936D02*
X102612500Y-145238521D01*
X102375000Y-64530753D02*
X102375000Y-63134286D01*
X102375000Y-71044729D02*
X102375000Y-69468061D01*
X102375000Y-92900000D02*
X102375000Y-72556133D01*
X102375000Y-122232538D02*
X102375000Y-114273766D01*
X102375000Y-123925472D02*
X102375000Y-123717462D01*
X102375000Y-128324171D02*
X102375000Y-125473766D01*
X102375000Y-133116293D02*
X102375000Y-128874216D01*
X102375000Y-140530753D02*
X102375000Y-135384679D01*
X102375000Y-146861234D02*
X102375000Y-145468061D01*
X102137500Y-64310289D02*
X102137500Y-63010124D01*
X102137500Y-71024512D02*
X102137500Y-69694230D01*
X102137500Y-92900000D02*
X102137500Y-72573894D01*
X102137500Y-121995038D02*
X102137500Y-114257816D01*
X102137500Y-123830394D02*
X102137500Y-123479962D01*
X102137500Y-133170113D02*
X102137500Y-125457816D01*
X102137500Y-140310289D02*
X102137500Y-135332455D01*
X102137500Y-146989650D02*
X102137500Y-145694230D01*
X101900000Y-64150093D02*
X101900000Y-62885963D01*
X101900000Y-71085307D02*
X101900000Y-69850878D01*
X101900000Y-79204295D02*
X101900000Y-72514704D01*
X101900000Y-92900000D02*
X101900000Y-80193981D01*
X101900000Y-115904295D02*
X101900000Y-114165832D01*
X101900000Y-121757538D02*
X101900000Y-116893981D01*
X101900000Y-123592894D02*
X101900000Y-123242462D01*
X101900000Y-133283766D02*
X101900000Y-125365832D01*
X101900000Y-140150093D02*
X101900000Y-135217692D01*
X101900000Y-147118066D02*
X101900000Y-145850878D01*
X101662500Y-63989897D02*
X101662500Y-62771202D01*
X101662500Y-71241596D02*
X101662500Y-70001600D01*
X101662500Y-79011657D02*
X101662500Y-72359106D01*
X101662500Y-92900000D02*
X101662500Y-80387880D01*
X101662500Y-113059224D02*
X101662500Y-110341514D01*
X101662500Y-115711657D02*
X101662500Y-113941514D01*
X101662500Y-123355394D02*
X101662500Y-123004962D01*
X101662500Y-133478689D02*
X101662500Y-125141514D01*
X101662500Y-139989897D02*
X101662500Y-135019589D01*
X101662500Y-147223400D02*
X101662500Y-146001600D01*
X101425000Y-63883554D02*
X101425000Y-62701302D01*
X101425000Y-71300000D02*
X101425000Y-70121053D01*
X101425000Y-78934466D02*
X101425000Y-72300000D01*
X101425000Y-87040186D02*
X101425000Y-80464949D01*
X101425000Y-92900000D02*
X101425000Y-87958541D01*
X101425000Y-113225149D02*
X101425000Y-110082106D01*
X101425000Y-115634466D02*
X101425000Y-113777115D01*
X101425000Y-123117894D02*
X101425000Y-122767462D01*
X101425000Y-133871828D02*
X101425000Y-124532106D01*
X101425000Y-139883554D02*
X101425000Y-134623618D01*
X101425000Y-147296919D02*
X101425000Y-146121053D01*
X101187500Y-63783718D02*
X101187500Y-62631402D01*
X101187500Y-71300000D02*
X101187500Y-70213173D01*
X101187500Y-78932451D02*
X101187500Y-72300000D01*
X101187500Y-92680394D02*
X101187500Y-88172015D01*
X101187500Y-94815545D02*
X101187500Y-94800000D01*
X101187500Y-108205393D02*
X101187500Y-95386698D01*
X101187500Y-115632451D02*
X101187500Y-114105994D01*
X101187500Y-122880394D02*
X101187500Y-122529962D01*
X101187500Y-134345602D02*
X101187500Y-124294606D01*
X101187500Y-139783718D02*
X101187500Y-134345602D01*
X101187500Y-147370437D02*
X101187500Y-146213173D01*
X100950000Y-63698444D02*
X100950000Y-62561502D01*
X100950000Y-71300000D02*
X100950000Y-70305293D01*
X100950000Y-73375174D02*
X100950000Y-72300000D01*
X100950000Y-79005508D02*
X100950000Y-74625852D01*
X100950000Y-92442894D02*
X100950000Y-88260541D01*
X100950000Y-108442893D02*
X100950000Y-94800000D01*
X100950000Y-115705508D02*
X100950000Y-114234324D01*
X100950000Y-122642894D02*
X100950000Y-122292462D01*
X100950000Y-125366031D02*
X100950000Y-124057106D01*
X100950000Y-134345602D02*
X100950000Y-126629527D01*
X100950000Y-139698444D02*
X100950000Y-134345602D01*
X100950000Y-147443955D02*
X100950000Y-146305293D01*
X100712500Y-63649693D02*
X100712500Y-62520000D01*
X100712500Y-71300000D02*
X100712500Y-70352353D01*
X100712500Y-73109060D02*
X100712500Y-72300000D01*
X100712500Y-79190559D02*
X100712500Y-74891632D01*
X100712500Y-92205394D02*
X100712500Y-88273370D01*
X100712500Y-108680393D02*
X100712500Y-94800000D01*
X100712500Y-115890559D02*
X100712500Y-114275465D01*
X100712500Y-122405394D02*
X100712500Y-116907330D01*
X100712500Y-125201366D02*
X100712500Y-123819606D01*
X100712500Y-125308713D02*
X100712500Y-125266287D01*
X100712500Y-126733713D02*
X100712500Y-126691287D01*
X100712500Y-134345602D02*
X100712500Y-126798635D01*
X100712500Y-139649693D02*
X100712500Y-134345602D01*
X100712500Y-147476181D02*
X100712500Y-146352353D01*
X100475000Y-63600941D02*
X100475000Y-62498386D01*
X100475000Y-71300000D02*
X100475000Y-70394230D01*
X100475000Y-72966248D02*
X100475000Y-72300000D01*
X100475000Y-79817894D02*
X100475000Y-75035345D01*
X100475000Y-91967894D02*
X100475000Y-88203782D01*
X100475000Y-108917893D02*
X100475000Y-94800000D01*
X100475000Y-116779120D02*
X100475000Y-114244075D01*
X100475000Y-122167894D02*
X100475000Y-117822669D01*
X100475000Y-124962137D02*
X100475000Y-123582106D01*
X100475000Y-125546213D02*
X100475000Y-125503787D01*
X100475000Y-126496213D02*
X100475000Y-126453787D01*
X100475000Y-134345602D02*
X100475000Y-127033751D01*
X100475000Y-139600941D02*
X100475000Y-134345602D01*
X100475000Y-147501143D02*
X100475000Y-146394230D01*
X100237500Y-63576428D02*
X100237500Y-62476772D01*
X100237500Y-71300000D02*
X100237500Y-70430873D01*
X100237500Y-72887996D02*
X100237500Y-72300000D01*
X100237500Y-86966078D02*
X100237500Y-75112712D01*
X100237500Y-91730394D02*
X100237500Y-88033218D01*
X100237500Y-109155393D02*
X100237500Y-94770669D01*
X100237500Y-124883835D02*
X100237500Y-123344606D01*
X100237500Y-125783713D02*
X100237500Y-125741287D01*
X100237500Y-126258713D02*
X100237500Y-126216287D01*
X100237500Y-134345602D02*
X100237500Y-127113899D01*
X100237500Y-139576428D02*
X100237500Y-134345602D01*
X100237500Y-147526105D02*
X100237500Y-146430873D01*
X100000000Y-63574770D02*
X100000000Y-62455158D01*
X100000000Y-71300000D02*
X100000000Y-70425898D01*
X100000000Y-72862925D02*
X100000000Y-72300000D01*
X100000000Y-87565164D02*
X100000000Y-75137297D01*
X100000000Y-91492894D02*
X100000000Y-87565164D01*
X100000000Y-109392893D02*
X100000000Y-94607106D01*
X100000000Y-124860042D02*
X100000000Y-123107106D01*
X100000000Y-126000000D02*
X100000000Y-125978787D01*
X100000000Y-126021213D02*
X100000000Y-126000000D01*
X100000000Y-134345602D02*
X100000000Y-127139958D01*
X100000000Y-139574770D02*
X100000000Y-134345602D01*
X100000000Y-147544842D02*
X100000000Y-146425898D01*
X99762500Y-63573112D02*
X99762500Y-62473895D01*
X99762500Y-71300000D02*
X99762500Y-70420923D01*
X99762500Y-72887753D02*
X99762500Y-72300000D01*
X99762500Y-87565164D02*
X99762500Y-75111988D01*
X99762500Y-91255394D02*
X99762500Y-87565164D01*
X99762500Y-109662886D02*
X99762500Y-94369606D01*
X99762500Y-124886101D02*
X99762500Y-122869606D01*
X99762500Y-125783713D02*
X99762500Y-125741287D01*
X99762500Y-126258713D02*
X99762500Y-126216287D01*
X99762500Y-134345602D02*
X99762500Y-127116165D01*
X99762500Y-139573112D02*
X99762500Y-134345602D01*
X99762500Y-147523228D02*
X99762500Y-146420923D01*
X99525000Y-63603701D02*
X99525000Y-62498857D01*
X99525000Y-71300000D02*
X99525000Y-70402520D01*
X99525000Y-72965566D02*
X99525000Y-72300000D01*
X99525000Y-87565164D02*
X99525000Y-75033305D01*
X99525000Y-91017894D02*
X99525000Y-87565164D01*
X99525000Y-112772557D02*
X99525000Y-94132106D01*
X99525000Y-124966249D02*
X99525000Y-122627857D01*
X99525000Y-125546213D02*
X99525000Y-125503787D01*
X99525000Y-126496213D02*
X99525000Y-126453787D01*
X99525000Y-134345602D02*
X99525000Y-127037863D01*
X99525000Y-139603701D02*
X99525000Y-134345602D01*
X99525000Y-147501614D02*
X99525000Y-146402520D01*
X99287500Y-63649007D02*
X99287500Y-62523819D01*
X99287500Y-71300000D02*
X99287500Y-70350302D01*
X99287500Y-73107384D02*
X99287500Y-72300000D01*
X99287500Y-87565164D02*
X99287500Y-74889503D01*
X99287500Y-90780394D02*
X99287500Y-87565164D01*
X99287500Y-94832931D02*
X99287500Y-93894606D01*
X99287500Y-116822713D02*
X99287500Y-95767900D01*
X99287500Y-125201365D02*
X99287500Y-117780306D01*
X99287500Y-125308713D02*
X99287500Y-125266287D01*
X99287500Y-126733713D02*
X99287500Y-126691287D01*
X99287500Y-134345602D02*
X99287500Y-126798634D01*
X99287500Y-139649007D02*
X99287500Y-134345602D01*
X99287500Y-147480000D02*
X99287500Y-146350302D01*
X99050000Y-63694312D02*
X99050000Y-62556045D01*
X99050000Y-71300000D02*
X99050000Y-70298084D01*
X99050000Y-73374847D02*
X99050000Y-72300000D01*
X99050000Y-87565164D02*
X99050000Y-74624894D01*
X99050000Y-90153945D02*
X99050000Y-87565164D01*
X99050000Y-94672846D02*
X99050000Y-93657106D01*
X99050000Y-110977814D02*
X99050000Y-95927060D01*
X99050000Y-125247890D02*
X99050000Y-111823101D01*
X99050000Y-125370473D02*
X99050000Y-125247890D01*
X99050000Y-126752110D02*
X99050000Y-126633969D01*
X99050000Y-134345602D02*
X99050000Y-126752110D01*
X99050000Y-139694312D02*
X99050000Y-134345602D01*
X99050000Y-147438498D02*
X99050000Y-146298084D01*
X98812500Y-63785641D02*
X98812500Y-62629563D01*
X98812500Y-71300000D02*
X98812500Y-70218956D01*
X98812500Y-74095602D02*
X98812500Y-72300000D01*
X98812500Y-86030379D02*
X98812500Y-74095602D01*
X98812500Y-87565164D02*
X98812500Y-87159695D01*
X98812500Y-89990639D02*
X98812500Y-87565164D01*
X98812500Y-94625042D02*
X98812500Y-93419606D01*
X98812500Y-110743377D02*
X98812500Y-95975438D01*
X98812500Y-125247890D02*
X98812500Y-116982552D01*
X98812500Y-125970139D02*
X98812500Y-125247890D01*
X98812500Y-126752110D02*
X98812500Y-125970139D01*
X98812500Y-134345602D02*
X98812500Y-126752110D01*
X98812500Y-139785641D02*
X98812500Y-134345602D01*
X98812500Y-147368598D02*
X98812500Y-146218956D01*
X98575000Y-63881597D02*
X98575000Y-62703082D01*
X98575000Y-71300000D02*
X98575000Y-70115195D01*
X98575000Y-74095602D02*
X98575000Y-72300000D01*
X98575000Y-85832925D02*
X98575000Y-74095602D01*
X98575000Y-87565164D02*
X98575000Y-87355313D01*
X98575000Y-89925472D02*
X98575000Y-87565164D01*
X98575000Y-94662863D02*
X98575000Y-93182106D01*
X98575000Y-110644729D02*
X98575000Y-95938339D01*
X98575000Y-125247890D02*
X98575000Y-117232106D01*
X98575000Y-125970139D02*
X98575000Y-125247890D01*
X98575000Y-126752110D02*
X98575000Y-125970139D01*
X98575000Y-133874319D02*
X98575000Y-126752110D01*
X98575000Y-139881597D02*
X98575000Y-134631050D01*
X98575000Y-147298698D02*
X98575000Y-146115195D01*
X98337500Y-63994586D02*
X98337500Y-62776600D01*
X98337500Y-71300000D02*
X98337500Y-70011434D01*
X98337500Y-74095602D02*
X98337500Y-72300000D01*
X98337500Y-85742259D02*
X98337500Y-74095602D01*
X98337500Y-87565164D02*
X98337500Y-87448712D01*
X98337500Y-89941989D02*
X98337500Y-87565164D01*
X98337500Y-94800000D02*
X98337500Y-92944606D01*
X98337500Y-110624512D02*
X98337500Y-95800000D01*
X98337500Y-125247890D02*
X98337500Y-117469606D01*
X98337500Y-125970139D02*
X98337500Y-125247890D01*
X98337500Y-126752110D02*
X98337500Y-125970139D01*
X98337500Y-133479696D02*
X98337500Y-126752110D01*
X98337500Y-139994586D02*
X98337500Y-135022597D01*
X98337500Y-147228798D02*
X98337500Y-146011434D01*
X98100000Y-64150001D02*
X98100000Y-62881934D01*
X98100000Y-71300000D02*
X98100000Y-69850627D01*
X98100000Y-74095602D02*
X98100000Y-72300000D01*
X98100000Y-85719663D02*
X98100000Y-74095602D01*
X98100000Y-87565164D02*
X98100000Y-87469391D01*
X98100000Y-90035526D02*
X98100000Y-87565164D01*
X98100000Y-94800000D02*
X98100000Y-92707106D01*
X98100000Y-110685307D02*
X98100000Y-95800000D01*
X98100000Y-125247890D02*
X98100000Y-117707106D01*
X98100000Y-125970139D02*
X98100000Y-125247890D01*
X98100000Y-126752110D02*
X98100000Y-125970139D01*
X98100000Y-133283178D02*
X98100000Y-126752110D01*
X98100000Y-140150001D02*
X98100000Y-135215919D01*
X98100000Y-147114037D02*
X98100000Y-145850627D01*
X97862500Y-64305417D02*
X97862500Y-63010350D01*
X97862500Y-71300000D02*
X97862500Y-69685561D01*
X97862500Y-72396628D02*
X97862500Y-72300000D01*
X97862500Y-74095602D02*
X97862500Y-73205381D01*
X97862500Y-85763359D02*
X97862500Y-74095602D01*
X97862500Y-87565164D02*
X97862500Y-87428666D01*
X97862500Y-90259224D02*
X97862500Y-87565164D01*
X97862500Y-94800000D02*
X97862500Y-92469606D01*
X97862500Y-110841596D02*
X97862500Y-95800000D01*
X97862500Y-116530394D02*
X97862500Y-111959106D01*
X97862500Y-124066532D02*
X97862500Y-118334573D01*
X97862500Y-125247890D02*
X97862500Y-125134573D01*
X97862500Y-125970139D02*
X97862500Y-125247890D01*
X97862500Y-126752110D02*
X97862500Y-125970139D01*
X97862500Y-133168958D02*
X97862500Y-126752110D01*
X97862500Y-140305417D02*
X97862500Y-135328981D01*
X97862500Y-146989876D02*
X97862500Y-145685561D01*
X97625000Y-64531821D02*
X97625000Y-63138766D01*
X97625000Y-71300000D02*
X97625000Y-69471307D01*
X97625000Y-74095602D02*
X97625000Y-73448216D01*
X97625000Y-85886267D02*
X97625000Y-74095602D01*
X97625000Y-87565164D02*
X97625000Y-87302691D01*
X97625000Y-90495893D02*
X97625000Y-87565164D01*
X97625000Y-94800000D02*
X97625000Y-92232106D01*
X97625000Y-111392186D02*
X97625000Y-95800000D01*
X97625000Y-116767894D02*
X97625000Y-111470716D01*
X97625000Y-125970139D02*
X97625000Y-125305233D01*
X97625000Y-126752110D02*
X97625000Y-125970139D01*
X97625000Y-133114903D02*
X97625000Y-126752110D01*
X97625000Y-140531821D02*
X97625000Y-135382549D01*
X97625000Y-146865714D02*
X97625000Y-145471307D01*
X97387500Y-64764398D02*
X97387500Y-63287064D01*
X97387500Y-71300000D02*
X97387500Y-69225369D01*
X97387500Y-74095602D02*
X97387500Y-73553929D01*
X97387500Y-86145168D02*
X97387500Y-74095602D01*
X97387500Y-87565164D02*
X97387500Y-87042678D01*
X97387500Y-90426768D02*
X97387500Y-87565164D01*
X97387500Y-94800000D02*
X97387500Y-91994606D01*
X97387500Y-117005394D02*
X97387500Y-95919607D01*
X97387500Y-125970139D02*
X97387500Y-125371562D01*
X97387500Y-126752110D02*
X97387500Y-125970139D01*
X97387500Y-133113908D02*
X97387500Y-126752110D01*
X97387500Y-140764398D02*
X97387500Y-135384941D01*
X97387500Y-146707166D02*
X97387500Y-145225369D01*
X97150000Y-65099758D02*
X97150000Y-63483541D01*
X97150000Y-71307861D02*
X97150000Y-68900527D01*
X97150000Y-74095602D02*
X97150000Y-73574156D01*
X97150000Y-86668572D02*
X97150000Y-74095602D01*
X97150000Y-87565164D02*
X97150000Y-86668572D01*
X97150000Y-90439605D02*
X97150000Y-87565164D01*
X97150000Y-94825389D02*
X97150000Y-91960565D01*
X97150000Y-117039605D02*
X97150000Y-96157107D01*
X97150000Y-125970139D02*
X97150000Y-125360565D01*
X97150000Y-126752110D02*
X97150000Y-125970139D01*
X97150000Y-129497578D02*
X97150000Y-126752110D01*
X97150000Y-133165063D02*
X97150000Y-129897118D01*
X97150000Y-141099758D02*
X97150000Y-135337254D01*
X97150000Y-146516210D02*
X97150000Y-144900527D01*
X96912500Y-65509128D02*
X96912500Y-63680018D01*
X96912500Y-71246215D02*
X96912500Y-68506178D01*
X96912500Y-74095602D02*
X96912500Y-73520165D01*
X96912500Y-86668572D02*
X96912500Y-74095602D01*
X96912500Y-87565164D02*
X96912500Y-86668572D01*
X96912500Y-90527346D02*
X96912500Y-87565164D01*
X96912500Y-94980393D02*
X96912500Y-91874520D01*
X96912500Y-117127346D02*
X96912500Y-104794607D01*
X96912500Y-125970139D02*
X96912500Y-125274520D01*
X96912500Y-126752110D02*
X96912500Y-125970139D01*
X96912500Y-129116182D02*
X96912500Y-126752110D01*
X96912500Y-133275586D02*
X96912500Y-130282187D01*
X96912500Y-141509128D02*
X96912500Y-135226380D01*
X96912500Y-146325255D02*
X96912500Y-144506178D01*
X96675000Y-66168849D02*
X96675000Y-63915576D01*
X96675000Y-71225000D02*
X96675000Y-67857368D01*
X96675000Y-74095602D02*
X96675000Y-73372050D01*
X96675000Y-84523841D02*
X96675000Y-74095602D01*
X96675000Y-86668572D02*
X96675000Y-84526371D01*
X96675000Y-87565164D02*
X96675000Y-86668572D01*
X96675000Y-90740968D02*
X96675000Y-87565164D01*
X96675000Y-95217893D02*
X96675000Y-91660910D01*
X96675000Y-133466448D02*
X96675000Y-130424627D01*
X96675000Y-142168849D02*
X96675000Y-135032533D01*
X96675000Y-146078839D02*
X96675000Y-143857368D01*
X96437500Y-67287983D02*
X96437500Y-64206780D01*
X96437500Y-71225000D02*
X96437500Y-67287983D01*
X96437500Y-72659575D02*
X96437500Y-72375000D01*
X96437500Y-74095602D02*
X96437500Y-72938824D01*
X96437500Y-84041357D02*
X96437500Y-74095602D01*
X96437500Y-86668572D02*
X96437500Y-85158380D01*
X96437500Y-87565164D02*
X96437500Y-86668572D01*
X96437500Y-91265164D02*
X96437500Y-87565164D01*
X96437500Y-95455393D02*
X96437500Y-91265164D01*
X96437500Y-133842663D02*
X96437500Y-130475989D01*
X96437500Y-143287983D02*
X96437500Y-134655190D01*
X96437500Y-145795798D02*
X96437500Y-143287983D01*
X96200000Y-67287983D02*
X96200000Y-64505843D01*
X96200000Y-71225000D02*
X96200000Y-67287983D01*
X96200000Y-74095602D02*
X96200000Y-72375000D01*
X96200000Y-83885384D02*
X96200000Y-74095602D01*
X96200000Y-86668572D02*
X96200000Y-85314930D01*
X96200000Y-87565164D02*
X96200000Y-86668572D01*
X96200000Y-91265164D02*
X96200000Y-87565164D01*
X96200000Y-95702551D02*
X96200000Y-91265164D01*
X96200000Y-134345602D02*
X96200000Y-130449571D01*
X96200000Y-143287983D02*
X96200000Y-134345602D01*
X96200000Y-145482953D02*
X96200000Y-143287983D01*
X95962500Y-67287983D02*
X95962500Y-64952515D01*
X95962500Y-71225000D02*
X95962500Y-67287983D01*
X95962500Y-74095602D02*
X95962500Y-72375000D01*
X95962500Y-83825385D02*
X95962500Y-74095602D01*
X95962500Y-104362886D02*
X95962500Y-101574422D01*
X95962500Y-134345602D02*
X95962500Y-130339769D01*
X95962500Y-143287983D02*
X95962500Y-134345602D01*
X95962500Y-145050942D02*
X95962500Y-143287983D01*
X95725000Y-67287983D02*
X95725000Y-65499834D01*
X95725000Y-71225000D02*
X95725000Y-67287983D01*
X95725000Y-74095602D02*
X95725000Y-72375000D01*
X95725000Y-83844374D02*
X95725000Y-74095602D01*
X95725000Y-129313991D02*
X95725000Y-101552675D01*
X95725000Y-134345602D02*
X95725000Y-130083326D01*
X95725000Y-143287983D02*
X95725000Y-134345602D01*
X95725000Y-144492367D02*
X95725000Y-143287983D01*
X95487500Y-67287983D02*
X95487500Y-66639549D01*
X95487500Y-71225000D02*
X95487500Y-67287983D01*
X95487500Y-74095602D02*
X95487500Y-72375000D01*
X95487500Y-83943705D02*
X95487500Y-74095602D01*
X95487500Y-105291708D02*
X95487500Y-101435359D01*
X95487500Y-134345602D02*
X95487500Y-106310766D01*
X95487500Y-143287983D02*
X95487500Y-134345602D01*
X95487500Y-143374622D02*
X95487500Y-143287983D01*
X95250000Y-71225000D02*
X95250000Y-67964714D01*
X95250000Y-74095602D02*
X95250000Y-72375000D01*
X95250000Y-84177480D02*
X95250000Y-74095602D01*
X95250000Y-105106402D02*
X95250000Y-101091983D01*
X95250000Y-134345602D02*
X95250000Y-131497118D01*
X95250000Y-142035005D02*
X95250000Y-134345602D01*
X95012500Y-71225000D02*
X95012500Y-68393732D01*
X95012500Y-74095602D02*
X95012500Y-72375000D01*
X95012500Y-84900000D02*
X95012500Y-74095602D01*
X95012500Y-105031900D02*
X95012500Y-84900000D01*
X95012500Y-134345602D02*
X95012500Y-131882187D01*
X95012500Y-141605333D02*
X95012500Y-134345602D01*
X94775000Y-71225000D02*
X94775000Y-68684934D01*
X94775000Y-74095602D02*
X94775000Y-72375000D01*
X94775000Y-81923841D02*
X94775000Y-74095602D01*
X94775000Y-82032591D02*
X94775000Y-81926372D01*
X94775000Y-94032591D02*
X94775000Y-93966643D01*
X94775000Y-134345602D02*
X94775000Y-132024627D01*
X94775000Y-141316988D02*
X94775000Y-134345602D01*
X94537500Y-71225000D02*
X94537500Y-68895380D01*
X94537500Y-74095602D02*
X94537500Y-72375000D01*
X94537500Y-81441357D02*
X94537500Y-74095602D01*
X94537500Y-134345602D02*
X94537500Y-132075989D01*
X94537500Y-141104756D02*
X94537500Y-134345602D01*
X94300000Y-71225000D02*
X94300000Y-69071445D01*
X94300000Y-74095602D02*
X94300000Y-72375000D01*
X94300000Y-81285384D02*
X94300000Y-74095602D01*
X94300000Y-130549143D02*
X94300000Y-106294386D01*
X94300000Y-134345602D02*
X94300000Y-132049571D01*
X94300000Y-140927237D02*
X94300000Y-134345602D01*
X94062500Y-71225000D02*
X94062500Y-69199861D01*
X94062500Y-74095602D02*
X94062500Y-72375000D01*
X94062500Y-81225385D02*
X94062500Y-74095602D01*
X94062500Y-130660065D02*
X94062500Y-105704962D01*
X94062500Y-134345602D02*
X94062500Y-131939769D01*
X94062500Y-140800956D02*
X94062500Y-134345602D01*
X93825000Y-71225000D02*
X93825000Y-69299325D01*
X93825000Y-74095602D02*
X93825000Y-72375000D01*
X93825000Y-81244374D02*
X93825000Y-74095602D01*
X93825000Y-85149190D02*
X93825000Y-82755068D01*
X93825000Y-87181190D02*
X93825000Y-86012145D01*
X93825000Y-93244374D02*
X93825000Y-88044145D01*
X93825000Y-130913991D02*
X93825000Y-94755068D01*
X93825000Y-134345602D02*
X93825000Y-131683326D01*
X93825000Y-140699824D02*
X93825000Y-134345602D01*
X93587500Y-71225000D02*
X93587500Y-69372844D01*
X93587500Y-74095602D02*
X93587500Y-72375000D01*
X93587500Y-81343705D02*
X93587500Y-74095602D01*
X93587500Y-84879318D02*
X93587500Y-82657144D01*
X93587500Y-86911318D02*
X93587500Y-86280611D01*
X93587500Y-93343705D02*
X93587500Y-88312611D01*
X93587500Y-134345602D02*
X93587500Y-94657144D01*
X93587500Y-140628119D02*
X93587500Y-134345602D01*
X93350000Y-71225000D02*
X93350000Y-69417111D01*
X93350000Y-74095602D02*
X93350000Y-72375000D01*
X93350000Y-81577480D02*
X93350000Y-74095602D01*
X93350000Y-84751700D02*
X93350000Y-82422118D01*
X93350000Y-86783700D02*
X93350000Y-86405072D01*
X93350000Y-93577480D02*
X93350000Y-88437072D01*
X93350000Y-134345602D02*
X93350000Y-94422118D01*
X93350000Y-140582161D02*
X93350000Y-134345602D01*
X93112500Y-71225000D02*
X93112500Y-69442074D01*
X93112500Y-74095602D02*
X93112500Y-72375000D01*
X93112500Y-84704308D02*
X93112500Y-74095602D01*
X93112500Y-86736308D02*
X93112500Y-86455329D01*
X93112500Y-134345602D02*
X93112500Y-88487329D01*
X93112500Y-140558874D02*
X93112500Y-134345602D01*
X92875000Y-71225000D02*
X92875000Y-69464199D01*
X92875000Y-74095602D02*
X92875000Y-72538173D01*
X92875000Y-76979120D02*
X92875000Y-74095602D01*
X92875000Y-84723474D02*
X92875000Y-78022669D01*
X92875000Y-86755474D02*
X92875000Y-86434262D01*
X92875000Y-134345602D02*
X92875000Y-88466262D01*
X92875000Y-140535586D02*
X92875000Y-134345602D01*
X92637500Y-71251292D02*
X92637500Y-69499641D01*
X92637500Y-74095602D02*
X92637500Y-72775673D01*
X92637500Y-76801148D02*
X92637500Y-74095602D01*
X92637500Y-84809736D02*
X92637500Y-78200385D01*
X92637500Y-86841736D02*
X92637500Y-86349317D01*
X92637500Y-134345602D02*
X92637500Y-88381317D01*
X92637500Y-140499688D02*
X92637500Y-134345602D01*
X92400000Y-71387081D02*
X92400000Y-69573204D01*
X92400000Y-85000587D02*
X92400000Y-78269357D01*
X92400000Y-87032587D02*
X92400000Y-86155216D01*
X92400000Y-134345602D02*
X92400000Y-88187216D01*
X92400000Y-140425648D02*
X92400000Y-134345602D01*
X92162500Y-71624327D02*
X92162500Y-69701619D01*
X92162500Y-85652572D02*
X92162500Y-78263313D01*
X92162500Y-134345602D02*
X92162500Y-85652572D01*
X92162500Y-140299367D02*
X92162500Y-134345602D01*
X91925000Y-71861827D02*
X91925000Y-69890060D01*
X91925000Y-85652572D02*
X91925000Y-78181937D01*
X91925000Y-134345602D02*
X91925000Y-85652572D01*
X91925000Y-140111077D02*
X91925000Y-134345602D01*
X91687500Y-72099327D02*
X91687500Y-70187202D01*
X91687500Y-85652572D02*
X91687500Y-77980306D01*
X91687500Y-134345602D02*
X91687500Y-85652572D01*
X91687500Y-139811390D02*
X91687500Y-134345602D01*
X100852182Y-62532713D02*
X101703648Y-62783313D01*
X102490231Y-63194528D01*
X103181960Y-63750693D01*
X103752483Y-64430617D01*
X104180083Y-65208416D01*
X104448460Y-66054449D01*
X104549689Y-66956917D01*
X104550006Y-67002410D01*
X104550052Y-67015542D01*
X104552038Y-67035096D01*
X104551901Y-67054748D01*
X104552514Y-67061001D01*
X104593315Y-67449194D01*
X104601518Y-67489153D01*
X104609159Y-67529209D01*
X104610975Y-67535225D01*
X104726399Y-67908099D01*
X104742197Y-67945680D01*
X104757482Y-67983514D01*
X104760432Y-67989062D01*
X104946083Y-68332417D01*
X104968886Y-68366224D01*
X104991223Y-68400358D01*
X104995195Y-68405227D01*
X105244001Y-68705982D01*
X105272945Y-68734724D01*
X105301477Y-68763861D01*
X105306319Y-68767866D01*
X105608803Y-69014567D01*
X105642806Y-69037158D01*
X105676427Y-69060180D01*
X105681954Y-69063168D01*
X106026596Y-69246418D01*
X106064302Y-69261959D01*
X106101793Y-69278028D01*
X106107795Y-69279886D01*
X106481466Y-69392704D01*
X106521532Y-69400637D01*
X106561370Y-69409105D01*
X106567618Y-69409762D01*
X106956087Y-69447852D01*
X107300642Y-69481636D01*
X107589839Y-69568950D01*
X107856563Y-69710770D01*
X108090666Y-69901701D01*
X108283219Y-70134457D01*
X108426899Y-70400189D01*
X108516227Y-70688760D01*
X108550000Y-71010088D01*
X108550000Y-138977994D01*
X108518364Y-139300642D01*
X108431050Y-139589839D01*
X108289230Y-139856563D01*
X108098303Y-140090662D01*
X107865544Y-140283219D01*
X107599812Y-140426899D01*
X107311238Y-140516227D01*
X106989588Y-140550034D01*
X106984458Y-140550052D01*
X106964904Y-140552038D01*
X106945252Y-140551901D01*
X106938999Y-140552514D01*
X106550806Y-140593315D01*
X106510822Y-140601523D01*
X106470790Y-140609159D01*
X106464775Y-140610975D01*
X106091900Y-140726399D01*
X106054306Y-140742202D01*
X106016486Y-140757482D01*
X106010939Y-140760432D01*
X105667583Y-140946083D01*
X105633727Y-140968919D01*
X105599642Y-140991224D01*
X105594772Y-140995195D01*
X105294018Y-141244002D01*
X105265276Y-141272946D01*
X105236139Y-141301478D01*
X105232134Y-141306319D01*
X104985433Y-141608804D01*
X104962857Y-141642783D01*
X104939820Y-141676428D01*
X104936835Y-141681950D01*
X104936832Y-141681954D01*
X104936832Y-141681955D01*
X104753582Y-142026596D01*
X104738029Y-142064331D01*
X104721972Y-142101793D01*
X104720114Y-142107795D01*
X104607296Y-142481467D01*
X104599366Y-142521518D01*
X104590895Y-142561370D01*
X104590238Y-142567618D01*
X104552148Y-142956087D01*
X104552148Y-142956088D01*
X104461230Y-143883345D01*
X104204688Y-144733051D01*
X103787995Y-145516736D01*
X103227017Y-146204564D01*
X102543121Y-146770332D01*
X101762357Y-147192490D01*
X100914474Y-147454953D01*
X100031749Y-147547731D01*
X99147818Y-147467287D01*
X98296350Y-147216686D01*
X97509769Y-146805472D01*
X96818040Y-146249307D01*
X96247515Y-145569382D01*
X95819917Y-144791584D01*
X95551539Y-143945547D01*
X95477782Y-143287983D01*
X96570498Y-143287983D01*
X96691749Y-143948626D01*
X96939010Y-144573135D01*
X97302863Y-145137725D01*
X97769449Y-145620889D01*
X98320996Y-146004224D01*
X98936496Y-146273129D01*
X99592504Y-146417362D01*
X100264034Y-146431429D01*
X100925507Y-146314793D01*
X101551728Y-146071898D01*
X102118843Y-145711996D01*
X102605253Y-145248794D01*
X102992429Y-144699936D01*
X103265625Y-144086329D01*
X103414434Y-143431343D01*
X103425147Y-142664161D01*
X103294684Y-142005276D01*
X103038728Y-141384280D01*
X102667027Y-140824826D01*
X102193741Y-140348223D01*
X101636895Y-139972626D01*
X101017701Y-139712341D01*
X100359742Y-139577281D01*
X99688081Y-139572592D01*
X99028302Y-139698452D01*
X98405533Y-139950067D01*
X97843498Y-140317852D01*
X97363603Y-140787800D01*
X96984127Y-141342010D01*
X96719526Y-141959372D01*
X96579876Y-142616372D01*
X96570498Y-143287983D01*
X95477782Y-143287983D01*
X95450311Y-143043083D01*
X95449994Y-142997590D01*
X95449948Y-142984458D01*
X95447962Y-142964904D01*
X95448099Y-142945252D01*
X95447486Y-142938999D01*
X95406685Y-142550806D01*
X95398477Y-142510822D01*
X95390841Y-142470790D01*
X95389025Y-142464775D01*
X95273601Y-142091900D01*
X95257798Y-142054306D01*
X95242518Y-142016486D01*
X95239568Y-142010939D01*
X95053917Y-141667583D01*
X95031081Y-141633727D01*
X95008776Y-141599642D01*
X95004805Y-141594772D01*
X94755998Y-141294018D01*
X94727054Y-141265276D01*
X94698522Y-141236139D01*
X94693681Y-141232134D01*
X94391196Y-140985433D01*
X94357217Y-140962857D01*
X94323572Y-140939820D01*
X94318050Y-140936835D01*
X94318046Y-140936832D01*
X94318042Y-140936830D01*
X93973404Y-140753582D01*
X93935669Y-140738029D01*
X93898207Y-140721972D01*
X93892209Y-140720115D01*
X93892203Y-140720113D01*
X93518533Y-140607296D01*
X93478482Y-140599366D01*
X93438630Y-140590895D01*
X93432382Y-140590238D01*
X93043913Y-140552148D01*
X92699358Y-140518364D01*
X92410161Y-140431050D01*
X92143437Y-140289230D01*
X91909338Y-140098303D01*
X91716781Y-139865544D01*
X91573101Y-139599812D01*
X91483773Y-139311238D01*
X91450000Y-138989912D01*
X91450000Y-134345602D01*
X96361506Y-134345602D01*
X96401758Y-134564916D01*
X96483841Y-134772235D01*
X96604629Y-134959662D01*
X96759522Y-135120058D01*
X96942620Y-135247314D01*
X97146948Y-135336583D01*
X97364723Y-135384464D01*
X97587652Y-135389134D01*
X97807241Y-135350414D01*
X98015128Y-135269780D01*
X98203394Y-135150303D01*
X98364868Y-134996534D01*
X98493399Y-134814329D01*
X98584092Y-134610629D01*
X98633492Y-134393193D01*
X98634156Y-134345602D01*
X101361506Y-134345602D01*
X101401758Y-134564916D01*
X101483841Y-134772235D01*
X101604629Y-134959662D01*
X101759522Y-135120058D01*
X101942620Y-135247314D01*
X102146948Y-135336583D01*
X102364723Y-135384464D01*
X102587652Y-135389134D01*
X102807241Y-135350414D01*
X103015128Y-135269780D01*
X103203394Y-135150303D01*
X103364868Y-134996534D01*
X103493399Y-134814329D01*
X103584092Y-134610629D01*
X103633492Y-134393193D01*
X103637048Y-134138511D01*
X103593738Y-133919781D01*
X103508769Y-133713628D01*
X103385375Y-133527906D01*
X103228258Y-133369688D01*
X103043401Y-133245001D01*
X102837847Y-133158594D01*
X102619424Y-133113758D01*
X102396452Y-133112201D01*
X102177425Y-133153983D01*
X101970684Y-133237512D01*
X101784105Y-133359606D01*
X101624793Y-133515615D01*
X101498819Y-133699596D01*
X101410979Y-133904542D01*
X101364619Y-134122647D01*
X101361506Y-134345602D01*
X98634156Y-134345602D01*
X98637048Y-134138511D01*
X98593738Y-133919781D01*
X98508769Y-133713628D01*
X98385375Y-133527906D01*
X98228258Y-133369688D01*
X98043401Y-133245001D01*
X97837847Y-133158594D01*
X97619424Y-133113758D01*
X97396452Y-133112201D01*
X97177425Y-133153983D01*
X96970684Y-133237512D01*
X96784105Y-133359606D01*
X96624793Y-133515615D01*
X96498819Y-133699596D01*
X96410979Y-133904542D01*
X96364619Y-134122647D01*
X96361506Y-134345602D01*
X91450000Y-134345602D01*
X91450000Y-85652572D01*
X92183850Y-85652572D01*
X92214826Y-85821350D01*
X92277995Y-85980896D01*
X92370950Y-86125134D01*
X92490151Y-86248570D01*
X92631057Y-86346503D01*
X92788302Y-86415201D01*
X92955895Y-86452049D01*
X93127454Y-86455643D01*
X93296443Y-86425845D01*
X93456427Y-86363792D01*
X93601311Y-86271846D01*
X93725576Y-86153510D01*
X93824490Y-86013290D01*
X93875000Y-85899842D01*
X93875000Y-87292075D01*
X93836318Y-87198225D01*
X93741358Y-87055298D01*
X93620445Y-86933539D01*
X93478185Y-86837583D01*
X93319997Y-86771087D01*
X93151905Y-86736583D01*
X92980313Y-86735385D01*
X92811756Y-86767539D01*
X92652654Y-86831820D01*
X92509069Y-86925780D01*
X92386468Y-87045839D01*
X92289521Y-87187426D01*
X92221922Y-87345146D01*
X92186245Y-87512993D01*
X92183850Y-87684572D01*
X92214826Y-87853350D01*
X92277995Y-88012896D01*
X92370950Y-88157134D01*
X92490151Y-88280570D01*
X92631057Y-88378503D01*
X92788302Y-88447201D01*
X92955895Y-88484049D01*
X93127454Y-88487643D01*
X93296443Y-88457845D01*
X93456427Y-88395792D01*
X93601311Y-88303846D01*
X93725576Y-88185510D01*
X93824490Y-88045290D01*
X93875000Y-87931842D01*
X93875000Y-93234836D01*
X93780127Y-93252934D01*
X93639208Y-93309869D01*
X93512032Y-93393091D01*
X93403443Y-93499429D01*
X93317576Y-93624834D01*
X93257703Y-93764529D01*
X93226103Y-93913194D01*
X93223981Y-94065164D01*
X93251417Y-94214653D01*
X93307367Y-94355965D01*
X93389699Y-94483719D01*
X93495277Y-94593048D01*
X93620079Y-94679788D01*
X93759353Y-94740635D01*
X93875000Y-94766062D01*
X93875000Y-105300000D01*
X93879727Y-105348205D01*
X93883958Y-105396575D01*
X93884730Y-105399233D01*
X93884999Y-105401973D01*
X93899001Y-105448350D01*
X93912545Y-105494968D01*
X93913814Y-105497417D01*
X93914613Y-105500062D01*
X93937407Y-105542932D01*
X93959698Y-105585935D01*
X93961418Y-105588089D01*
X93962716Y-105590531D01*
X93993398Y-105628150D01*
X94023622Y-105666012D01*
X94027409Y-105669851D01*
X94027475Y-105669933D01*
X94027551Y-105669995D01*
X94028769Y-105671231D01*
X94125340Y-105767802D01*
X94123981Y-105865164D01*
X94151417Y-106014653D01*
X94207367Y-106155965D01*
X94289699Y-106283719D01*
X94375000Y-106372051D01*
X94375000Y-130534836D01*
X94280127Y-130552934D01*
X94139208Y-130609869D01*
X94012032Y-130693091D01*
X93903443Y-130799429D01*
X93817576Y-130924834D01*
X93757703Y-131064529D01*
X93726103Y-131213194D01*
X93723981Y-131365164D01*
X93751417Y-131514653D01*
X93807367Y-131655965D01*
X93889699Y-131783719D01*
X93995277Y-131893048D01*
X94120079Y-131979788D01*
X94259353Y-132040635D01*
X94407793Y-132073272D01*
X94559745Y-132076455D01*
X94709421Y-132050063D01*
X94851121Y-131995101D01*
X94979446Y-131913663D01*
X95089510Y-131808851D01*
X95177119Y-131684657D01*
X95238937Y-131545812D01*
X95272609Y-131397603D01*
X95274428Y-131267339D01*
X95301979Y-131233797D01*
X95333185Y-131196608D01*
X95334518Y-131194183D01*
X95336266Y-131192055D01*
X95359150Y-131149377D01*
X95382546Y-131106820D01*
X95383381Y-131104188D01*
X95384685Y-131101756D01*
X95398875Y-131055344D01*
X95413527Y-131009154D01*
X95413834Y-131006415D01*
X95414643Y-131003770D01*
X95419549Y-130955469D01*
X95424949Y-130907330D01*
X95424987Y-130901936D01*
X95424997Y-130901833D01*
X95424988Y-130901737D01*
X95425000Y-130900000D01*
X95425000Y-106370283D01*
X95489510Y-106308851D01*
X95577119Y-106184657D01*
X95638937Y-106045812D01*
X95672609Y-105897603D01*
X95675033Y-105724007D01*
X95645513Y-105574916D01*
X95587595Y-105434399D01*
X95503488Y-105307807D01*
X95396394Y-105199963D01*
X95270392Y-105114974D01*
X95130283Y-105056077D01*
X94981402Y-105025516D01*
X94925000Y-105025122D01*
X94925000Y-94400000D01*
X94920269Y-94351749D01*
X94916041Y-94303425D01*
X94915270Y-94300772D01*
X94915001Y-94298027D01*
X94900987Y-94251609D01*
X94887455Y-94205032D01*
X94886186Y-94202583D01*
X94885387Y-94199938D01*
X94862593Y-94157068D01*
X94840302Y-94114065D01*
X94838582Y-94111911D01*
X94837284Y-94109469D01*
X94806602Y-94071850D01*
X94776378Y-94033988D01*
X94773538Y-94031108D01*
X94774428Y-93967339D01*
X94801979Y-93933797D01*
X94833185Y-93896608D01*
X94834518Y-93894183D01*
X94836266Y-93892055D01*
X94859150Y-93849377D01*
X94882546Y-93806820D01*
X94883381Y-93804188D01*
X94884685Y-93801756D01*
X94898875Y-93755344D01*
X94913527Y-93709154D01*
X94913834Y-93706415D01*
X94914643Y-93703770D01*
X94919549Y-93655469D01*
X94924949Y-93607330D01*
X94924987Y-93601936D01*
X94924997Y-93601833D01*
X94924988Y-93601737D01*
X94925000Y-93600000D01*
X94925000Y-84900000D01*
X95100000Y-84900000D01*
X95100000Y-100600000D01*
X95104505Y-100645944D01*
X95108532Y-100691976D01*
X95109265Y-100694501D01*
X95109522Y-100697117D01*
X95122869Y-100741323D01*
X95135757Y-100785684D01*
X95136967Y-100788019D01*
X95137727Y-100790535D01*
X95159394Y-100831285D01*
X95180664Y-100872320D01*
X95182306Y-100874376D01*
X95183539Y-100876696D01*
X95212728Y-100912485D01*
X95224525Y-100927262D01*
X95224113Y-100956756D01*
X95248009Y-101086955D01*
X95296739Y-101210034D01*
X95368447Y-101321303D01*
X95460402Y-101416526D01*
X95569101Y-101492073D01*
X95690404Y-101545069D01*
X95819691Y-101573495D01*
X95952036Y-101576267D01*
X96082399Y-101553280D01*
X96100000Y-101546453D01*
X96100000Y-104192894D01*
X96046447Y-104246447D01*
X96017168Y-104282092D01*
X95987443Y-104317516D01*
X95986175Y-104319823D01*
X95984508Y-104321852D01*
X95962701Y-104362521D01*
X95940432Y-104403029D01*
X95939637Y-104405536D01*
X95938395Y-104407852D01*
X95924893Y-104452015D01*
X95910926Y-104496044D01*
X95910633Y-104498655D01*
X95909864Y-104501171D01*
X95905194Y-104547147D01*
X95900049Y-104593019D01*
X95900013Y-104598157D01*
X95900003Y-104598255D01*
X95900012Y-104598346D01*
X95900000Y-104600000D01*
X95900000Y-129104874D01*
X95803443Y-129199429D01*
X95717576Y-129324834D01*
X95657703Y-129464529D01*
X95626103Y-129613194D01*
X95623981Y-129765164D01*
X95651417Y-129914653D01*
X95707367Y-130055965D01*
X95789699Y-130183719D01*
X95895277Y-130293048D01*
X96020079Y-130379788D01*
X96159353Y-130440635D01*
X96307793Y-130473272D01*
X96459745Y-130476455D01*
X96609421Y-130450063D01*
X96751121Y-130395101D01*
X96879446Y-130313663D01*
X96989510Y-130208851D01*
X97077119Y-130084657D01*
X97138937Y-129945812D01*
X97172609Y-129797603D01*
X97175033Y-129624007D01*
X97145513Y-129474916D01*
X97087595Y-129334399D01*
X97003488Y-129207807D01*
X96900000Y-129103594D01*
X96900000Y-126752110D01*
X99269103Y-126752110D01*
X99340648Y-126933041D01*
X99535345Y-127043746D01*
X99747898Y-127114341D01*
X99970139Y-127142112D01*
X100193527Y-127125992D01*
X100409479Y-127066601D01*
X100609694Y-126966220D01*
X100659352Y-126933041D01*
X100730897Y-126752110D01*
X100000000Y-126021213D01*
X99269103Y-126752110D01*
X96900000Y-126752110D01*
X96900000Y-125970139D01*
X98857888Y-125970139D01*
X98874008Y-126193527D01*
X98933399Y-126409479D01*
X99033780Y-126609694D01*
X99066959Y-126659352D01*
X99247890Y-126730897D01*
X99978787Y-126000000D01*
X100021213Y-126000000D01*
X100752110Y-126730897D01*
X100933041Y-126659352D01*
X101043746Y-126464655D01*
X101114341Y-126252102D01*
X101142112Y-126029861D01*
X101125992Y-125806473D01*
X101066601Y-125590521D01*
X100966220Y-125390306D01*
X100933041Y-125340648D01*
X100752110Y-125269103D01*
X100021213Y-126000000D01*
X99978787Y-126000000D01*
X99247890Y-125269103D01*
X99066959Y-125340648D01*
X98956254Y-125535345D01*
X98885659Y-125747898D01*
X98857888Y-125970139D01*
X96900000Y-125970139D01*
X96900000Y-125265833D01*
X96920079Y-125279788D01*
X97059353Y-125340635D01*
X97207793Y-125373272D01*
X97359745Y-125376455D01*
X97509421Y-125350063D01*
X97651121Y-125295101D01*
X97725513Y-125247890D01*
X99269103Y-125247890D01*
X100000000Y-125978787D01*
X100730897Y-125247890D01*
X100659352Y-125066959D01*
X100464655Y-124956254D01*
X100252102Y-124885659D01*
X100029861Y-124857888D01*
X99806473Y-124874008D01*
X99590521Y-124933399D01*
X99390306Y-125033780D01*
X99340648Y-125066959D01*
X99269103Y-125247890D01*
X97725513Y-125247890D01*
X97779446Y-125213663D01*
X97889510Y-125108851D01*
X97977119Y-124984657D01*
X98038937Y-124845812D01*
X98072609Y-124697603D01*
X98075033Y-124524007D01*
X98045513Y-124374916D01*
X97987595Y-124234399D01*
X97903488Y-124107807D01*
X97800000Y-124003594D01*
X97800000Y-118394090D01*
X97889510Y-118308851D01*
X97977119Y-118184657D01*
X98038937Y-118045812D01*
X98072609Y-117897603D01*
X98074919Y-117732187D01*
X98753553Y-117053553D01*
X98782832Y-117017908D01*
X98812557Y-116982484D01*
X98813825Y-116980177D01*
X98815492Y-116978148D01*
X98837299Y-116937479D01*
X98859568Y-116896971D01*
X98860363Y-116894464D01*
X98861605Y-116892148D01*
X98875107Y-116847985D01*
X98889074Y-116803956D01*
X98889367Y-116801345D01*
X98890136Y-116798829D01*
X98894806Y-116752853D01*
X98899951Y-116706981D01*
X98899987Y-116701843D01*
X98899997Y-116701745D01*
X98899988Y-116701654D01*
X98900000Y-116700000D01*
X98900000Y-111994090D01*
X98989510Y-111908851D01*
X99077119Y-111784657D01*
X99138937Y-111645812D01*
X99172609Y-111497603D01*
X99175033Y-111324007D01*
X99145513Y-111174916D01*
X99087595Y-111034399D01*
X99003488Y-110907807D01*
X98896394Y-110799963D01*
X98770392Y-110714974D01*
X98630283Y-110656077D01*
X98481402Y-110625516D01*
X98329420Y-110624455D01*
X98180127Y-110652934D01*
X98039208Y-110709869D01*
X97912032Y-110793091D01*
X97803443Y-110899429D01*
X97717576Y-111024834D01*
X97657703Y-111164529D01*
X97626103Y-111313194D01*
X97623981Y-111465164D01*
X97651417Y-111614653D01*
X97707367Y-111755965D01*
X97789699Y-111883719D01*
X97895277Y-111993048D01*
X97900000Y-111996331D01*
X97900000Y-116492894D01*
X97367475Y-117025419D01*
X97229420Y-117024455D01*
X97080127Y-117052934D01*
X96939208Y-117109869D01*
X96900000Y-117135526D01*
X96900000Y-104807107D01*
X96953554Y-104753553D01*
X96982880Y-104717852D01*
X97012557Y-104682484D01*
X97013823Y-104680181D01*
X97015493Y-104678148D01*
X97037320Y-104637440D01*
X97059568Y-104596971D01*
X97060363Y-104594464D01*
X97061605Y-104592148D01*
X97075107Y-104547985D01*
X97089074Y-104503956D01*
X97089367Y-104501345D01*
X97090136Y-104498829D01*
X97094806Y-104452853D01*
X97099951Y-104406981D01*
X97099987Y-104401843D01*
X97099997Y-104401745D01*
X97099988Y-104401654D01*
X97100000Y-104400000D01*
X97100000Y-96207106D01*
X97507107Y-95800000D01*
X98344443Y-95800000D01*
X98360402Y-95816526D01*
X98469101Y-95892073D01*
X98590404Y-95945069D01*
X98719691Y-95973495D01*
X98852036Y-95976267D01*
X98982399Y-95953280D01*
X99105815Y-95905411D01*
X99217582Y-95834481D01*
X99313444Y-95743193D01*
X99389749Y-95635024D01*
X99443590Y-95514094D01*
X99472918Y-95385009D01*
X99475029Y-95233813D01*
X99449317Y-95103960D01*
X99398873Y-94981573D01*
X99325618Y-94871316D01*
X99232343Y-94777387D01*
X99122600Y-94703364D01*
X99000569Y-94652067D01*
X98870898Y-94625450D01*
X98738527Y-94624525D01*
X98608497Y-94649330D01*
X98485762Y-94698918D01*
X98374996Y-94771402D01*
X98345792Y-94800000D01*
X97300000Y-94800000D01*
X97254011Y-94804509D01*
X97208024Y-94808532D01*
X97205499Y-94809265D01*
X97202883Y-94809522D01*
X97158677Y-94822869D01*
X97114316Y-94835757D01*
X97111981Y-94836967D01*
X97109465Y-94837727D01*
X97068675Y-94859415D01*
X97027680Y-94880665D01*
X97025627Y-94882304D01*
X97023304Y-94883539D01*
X96987512Y-94912730D01*
X96951417Y-94941545D01*
X96947754Y-94945157D01*
X96947683Y-94945215D01*
X96947628Y-94945281D01*
X96946446Y-94946447D01*
X96246447Y-95646447D01*
X96217168Y-95682092D01*
X96187443Y-95717516D01*
X96186175Y-95719823D01*
X96184508Y-95721852D01*
X96162701Y-95762521D01*
X96140432Y-95803029D01*
X96139637Y-95805536D01*
X96138395Y-95807852D01*
X96124893Y-95852015D01*
X96110926Y-95896044D01*
X96110633Y-95898655D01*
X96109864Y-95901171D01*
X96105194Y-95947147D01*
X96100049Y-95993019D01*
X96100013Y-95998157D01*
X96100003Y-95998255D01*
X96100012Y-95998346D01*
X96100000Y-96000000D01*
X96100000Y-91265164D01*
X96523981Y-91265164D01*
X96551417Y-91414653D01*
X96607367Y-91555965D01*
X96689699Y-91683719D01*
X96795277Y-91793048D01*
X96920079Y-91879788D01*
X97059353Y-91940635D01*
X97207793Y-91973272D01*
X97359745Y-91976455D01*
X97367909Y-91975015D01*
X100046447Y-94653553D01*
X100082092Y-94682832D01*
X100117516Y-94712557D01*
X100119823Y-94713825D01*
X100121852Y-94715492D01*
X100162521Y-94737299D01*
X100203029Y-94759568D01*
X100205536Y-94760363D01*
X100207852Y-94761605D01*
X100252015Y-94775107D01*
X100296044Y-94789074D01*
X100298655Y-94789367D01*
X100301171Y-94790136D01*
X100347147Y-94794806D01*
X100393019Y-94799951D01*
X100398157Y-94799987D01*
X100398255Y-94799997D01*
X100398346Y-94799988D01*
X100400000Y-94800000D01*
X101194163Y-94800000D01*
X101153483Y-94894913D01*
X101125961Y-95024394D01*
X101124113Y-95156756D01*
X101148009Y-95286955D01*
X101196739Y-95410034D01*
X101268447Y-95521303D01*
X101300000Y-95553977D01*
X101300000Y-108092893D01*
X99846447Y-109546447D01*
X99817168Y-109582092D01*
X99787443Y-109617516D01*
X99786175Y-109619823D01*
X99784508Y-109621852D01*
X99762701Y-109662521D01*
X99740432Y-109703029D01*
X99739637Y-109705536D01*
X99738395Y-109707852D01*
X99724893Y-109752015D01*
X99710926Y-109796044D01*
X99710633Y-109798655D01*
X99709864Y-109801171D01*
X99705194Y-109847147D01*
X99700049Y-109893019D01*
X99700013Y-109898157D01*
X99700003Y-109898255D01*
X99700012Y-109898346D01*
X99700000Y-109900000D01*
X99700000Y-112592894D01*
X99546447Y-112746447D01*
X99517168Y-112782092D01*
X99487443Y-112817516D01*
X99486175Y-112819823D01*
X99484508Y-112821852D01*
X99462701Y-112862521D01*
X99440432Y-112903029D01*
X99439637Y-112905536D01*
X99438395Y-112907852D01*
X99424893Y-112952015D01*
X99410926Y-112996044D01*
X99410633Y-112998655D01*
X99409864Y-113001171D01*
X99405194Y-113047147D01*
X99400049Y-113093019D01*
X99400013Y-113098157D01*
X99400003Y-113098255D01*
X99400012Y-113098346D01*
X99400000Y-113100000D01*
X99400000Y-116704874D01*
X99303443Y-116799429D01*
X99217576Y-116924834D01*
X99157703Y-117064529D01*
X99126103Y-117213194D01*
X99123981Y-117365164D01*
X99151417Y-117514653D01*
X99207367Y-117655965D01*
X99289699Y-117783719D01*
X99395277Y-117893048D01*
X99400000Y-117896331D01*
X99400000Y-122300000D01*
X99404505Y-122345944D01*
X99408532Y-122391976D01*
X99409265Y-122394501D01*
X99409522Y-122397117D01*
X99422869Y-122441323D01*
X99435757Y-122485684D01*
X99436967Y-122488019D01*
X99437727Y-122490535D01*
X99459394Y-122531285D01*
X99480664Y-122572320D01*
X99482306Y-122574376D01*
X99483539Y-122576696D01*
X99512728Y-122612485D01*
X99541545Y-122648582D01*
X99545152Y-122652240D01*
X99545215Y-122652317D01*
X99545286Y-122652376D01*
X99546447Y-122653553D01*
X101525827Y-124632934D01*
X101523981Y-124765164D01*
X101551417Y-124914653D01*
X101607367Y-125055965D01*
X101689699Y-125183719D01*
X101795277Y-125293048D01*
X101920079Y-125379788D01*
X102059353Y-125440635D01*
X102207793Y-125473272D01*
X102359745Y-125476455D01*
X102509421Y-125450063D01*
X102575000Y-125424626D01*
X102575000Y-128029355D01*
X102503443Y-128099429D01*
X102417576Y-128224834D01*
X102357703Y-128364529D01*
X102326103Y-128513194D01*
X102323981Y-128665164D01*
X102351417Y-128814653D01*
X102407367Y-128955965D01*
X102489699Y-129083719D01*
X102595277Y-129193048D01*
X102720079Y-129279788D01*
X102859353Y-129340635D01*
X103007793Y-129373272D01*
X103159745Y-129376455D01*
X103309421Y-129350063D01*
X103451121Y-129295101D01*
X103579446Y-129213663D01*
X103689510Y-129108851D01*
X103777119Y-128984657D01*
X103838937Y-128845812D01*
X103872609Y-128697603D01*
X103875033Y-128524007D01*
X103845513Y-128374916D01*
X103787595Y-128234399D01*
X103703488Y-128107807D01*
X103625000Y-128028769D01*
X103625000Y-123700000D01*
X103620269Y-123651749D01*
X103616041Y-123603425D01*
X103615270Y-123600772D01*
X103615001Y-123598027D01*
X103600987Y-123551609D01*
X103587455Y-123505032D01*
X103586186Y-123502583D01*
X103585387Y-123499938D01*
X103562593Y-123457068D01*
X103540302Y-123414065D01*
X103538582Y-123411911D01*
X103537284Y-123409469D01*
X103506602Y-123371850D01*
X103476378Y-123333988D01*
X103472591Y-123330149D01*
X103472525Y-123330067D01*
X103472449Y-123330005D01*
X103471231Y-123328769D01*
X101825000Y-121682538D01*
X101825000Y-116970283D01*
X101889510Y-116908851D01*
X101977119Y-116784657D01*
X102038937Y-116645812D01*
X102072609Y-116497603D01*
X102075033Y-116324007D01*
X102045513Y-116174916D01*
X101987595Y-116034399D01*
X101903488Y-115907807D01*
X101796394Y-115799963D01*
X101670392Y-115714974D01*
X101530283Y-115656077D01*
X101381402Y-115625516D01*
X101229420Y-115624455D01*
X101080127Y-115652934D01*
X100939208Y-115709869D01*
X100812032Y-115793091D01*
X100703443Y-115899429D01*
X100617576Y-116024834D01*
X100557703Y-116164529D01*
X100526103Y-116313194D01*
X100523981Y-116465164D01*
X100551417Y-116614653D01*
X100607367Y-116755965D01*
X100689699Y-116883719D01*
X100775000Y-116972051D01*
X100775000Y-121900000D01*
X100779727Y-121948205D01*
X100783958Y-121996575D01*
X100784730Y-121999233D01*
X100784999Y-122001973D01*
X100799001Y-122048350D01*
X100812545Y-122094968D01*
X100813814Y-122097417D01*
X100814613Y-122100062D01*
X100837407Y-122142932D01*
X100859698Y-122185935D01*
X100861418Y-122188089D01*
X100862716Y-122190531D01*
X100893398Y-122228150D01*
X100923622Y-122266012D01*
X100927409Y-122269851D01*
X100927475Y-122269933D01*
X100927551Y-122269995D01*
X100928769Y-122271231D01*
X102575000Y-123917462D01*
X102575000Y-123974874D01*
X102530283Y-123956077D01*
X102381402Y-123925516D01*
X102231577Y-123924470D01*
X100400000Y-122092894D01*
X100400000Y-117894090D01*
X100489510Y-117808851D01*
X100577119Y-117684657D01*
X100638937Y-117545812D01*
X100672609Y-117397603D01*
X100675033Y-117224007D01*
X100645513Y-117074916D01*
X100587595Y-116934399D01*
X100503488Y-116807807D01*
X100400000Y-116703594D01*
X100400000Y-114214704D01*
X100459353Y-114240635D01*
X100607793Y-114273272D01*
X100759745Y-114276455D01*
X100909421Y-114250063D01*
X101051121Y-114195101D01*
X101179446Y-114113663D01*
X101289510Y-114008851D01*
X101377119Y-113884657D01*
X101438937Y-113745812D01*
X101472609Y-113597603D01*
X101475033Y-113424007D01*
X101445513Y-113274916D01*
X101387595Y-113134399D01*
X101303488Y-113007807D01*
X101200000Y-112903594D01*
X101200000Y-110307106D01*
X101526766Y-109980340D01*
X101551417Y-110114653D01*
X101607367Y-110255965D01*
X101689699Y-110383719D01*
X101795277Y-110493048D01*
X101800000Y-110496331D01*
X101800000Y-112904874D01*
X101703443Y-112999429D01*
X101617576Y-113124834D01*
X101557703Y-113264529D01*
X101526103Y-113413194D01*
X101523981Y-113565164D01*
X101551417Y-113714653D01*
X101607367Y-113855965D01*
X101689699Y-113983719D01*
X101795277Y-114093048D01*
X101920079Y-114179788D01*
X102059353Y-114240635D01*
X102207793Y-114273272D01*
X102359745Y-114276455D01*
X102509421Y-114250063D01*
X102651121Y-114195101D01*
X102779446Y-114113663D01*
X102889510Y-114008851D01*
X102977119Y-113884657D01*
X103038937Y-113745812D01*
X103072609Y-113597603D01*
X103075033Y-113424007D01*
X103045513Y-113274916D01*
X102987595Y-113134399D01*
X102903488Y-113007807D01*
X102800000Y-112903594D01*
X102800000Y-110494090D01*
X102889510Y-110408851D01*
X102977119Y-110284657D01*
X103038937Y-110145812D01*
X103072609Y-109997603D01*
X103075033Y-109824007D01*
X103045513Y-109674916D01*
X102987595Y-109534399D01*
X102903488Y-109407807D01*
X102796394Y-109299963D01*
X102670392Y-109214974D01*
X102530283Y-109156077D01*
X102381559Y-109125548D01*
X102653554Y-108853553D01*
X102682880Y-108817852D01*
X102712557Y-108782484D01*
X102713823Y-108780181D01*
X102715493Y-108778148D01*
X102737320Y-108737440D01*
X102759568Y-108696971D01*
X102760363Y-108694464D01*
X102761605Y-108692148D01*
X102775107Y-108647985D01*
X102789074Y-108603956D01*
X102789367Y-108601345D01*
X102790136Y-108598829D01*
X102794806Y-108552853D01*
X102799951Y-108506981D01*
X102799987Y-108501843D01*
X102799997Y-108501745D01*
X102799988Y-108501654D01*
X102800000Y-108500000D01*
X102800000Y-104965164D01*
X103223981Y-104965164D01*
X103251417Y-105114653D01*
X103307367Y-105255965D01*
X103389699Y-105383719D01*
X103495277Y-105493048D01*
X103620079Y-105579788D01*
X103759353Y-105640635D01*
X103907793Y-105673272D01*
X104059745Y-105676455D01*
X104209421Y-105650063D01*
X104351121Y-105595101D01*
X104479446Y-105513663D01*
X104589510Y-105408851D01*
X104677119Y-105284657D01*
X104738937Y-105145812D01*
X104772609Y-104997603D01*
X104774418Y-104868044D01*
X107371231Y-102271231D01*
X107402001Y-102233771D01*
X107433185Y-102196608D01*
X107434516Y-102194186D01*
X107436267Y-102192055D01*
X107459180Y-102149322D01*
X107482546Y-102106820D01*
X107483380Y-102104190D01*
X107484686Y-102101755D01*
X107498885Y-102055313D01*
X107513527Y-102009154D01*
X107513834Y-102006416D01*
X107514643Y-102003770D01*
X107519549Y-101955469D01*
X107524949Y-101907330D01*
X107524987Y-101901936D01*
X107524997Y-101901833D01*
X107524988Y-101901737D01*
X107525000Y-101900000D01*
X107525000Y-100870283D01*
X107589510Y-100808851D01*
X107677119Y-100684657D01*
X107738937Y-100545812D01*
X107772609Y-100397603D01*
X107775033Y-100224007D01*
X107745513Y-100074916D01*
X107687595Y-99934399D01*
X107603488Y-99807807D01*
X107496394Y-99699963D01*
X107370392Y-99614974D01*
X107230283Y-99556077D01*
X107081402Y-99525516D01*
X106929420Y-99524455D01*
X106780127Y-99552934D01*
X106639208Y-99609869D01*
X106512032Y-99693091D01*
X106403443Y-99799429D01*
X106317576Y-99924834D01*
X106257703Y-100064529D01*
X106226103Y-100213194D01*
X106223981Y-100365164D01*
X106251417Y-100514653D01*
X106307367Y-100655965D01*
X106389699Y-100783719D01*
X106475000Y-100872051D01*
X106475000Y-101682538D01*
X104032364Y-104125174D01*
X103929420Y-104124455D01*
X103780127Y-104152934D01*
X103639208Y-104209869D01*
X103512032Y-104293091D01*
X103403443Y-104399429D01*
X103317576Y-104524834D01*
X103257703Y-104664529D01*
X103226103Y-104813194D01*
X103223981Y-104965164D01*
X102800000Y-104965164D01*
X102800000Y-95967809D01*
X102882399Y-95953280D01*
X103005815Y-95905411D01*
X103117582Y-95834481D01*
X103213444Y-95743193D01*
X103289749Y-95635024D01*
X103343590Y-95514094D01*
X103372918Y-95385009D01*
X103375029Y-95233813D01*
X103349317Y-95103960D01*
X103298873Y-94981573D01*
X103225618Y-94871316D01*
X103132343Y-94777387D01*
X103118359Y-94767955D01*
X103177119Y-94684657D01*
X103238937Y-94545812D01*
X103272609Y-94397603D01*
X103275033Y-94224007D01*
X103245513Y-94074916D01*
X103187595Y-93934399D01*
X103164741Y-93900000D01*
X103792894Y-93900000D01*
X104700000Y-94807107D01*
X104700000Y-97744843D01*
X104680418Y-97764019D01*
X104605631Y-97873243D01*
X104553483Y-97994913D01*
X104525961Y-98124394D01*
X104524113Y-98256756D01*
X104548009Y-98386955D01*
X104596739Y-98510034D01*
X104668447Y-98621303D01*
X104760402Y-98716526D01*
X104869101Y-98792073D01*
X104990404Y-98845069D01*
X105119691Y-98873495D01*
X105252036Y-98876267D01*
X105382399Y-98853280D01*
X105505815Y-98805411D01*
X105617582Y-98734481D01*
X105713444Y-98643193D01*
X105789749Y-98535024D01*
X105843590Y-98414094D01*
X105872918Y-98285009D01*
X105875029Y-98133813D01*
X105849317Y-98003960D01*
X105798873Y-97881573D01*
X105725618Y-97771316D01*
X105700000Y-97745518D01*
X105700000Y-94600000D01*
X105695491Y-94554011D01*
X105691468Y-94508024D01*
X105690735Y-94505499D01*
X105690478Y-94502883D01*
X105677131Y-94458677D01*
X105664243Y-94414316D01*
X105663033Y-94411981D01*
X105662273Y-94409465D01*
X105640585Y-94368675D01*
X105619335Y-94327680D01*
X105617696Y-94325627D01*
X105616461Y-94323304D01*
X105587270Y-94287512D01*
X105558455Y-94251417D01*
X105554843Y-94247754D01*
X105554785Y-94247683D01*
X105554719Y-94247628D01*
X105553553Y-94246446D01*
X104353553Y-93046447D01*
X104317908Y-93017168D01*
X104282484Y-92987443D01*
X104280177Y-92986175D01*
X104278148Y-92984508D01*
X104237479Y-92962701D01*
X104196971Y-92940432D01*
X104194464Y-92939637D01*
X104192148Y-92938395D01*
X104147985Y-92924893D01*
X104103956Y-92910926D01*
X104101345Y-92910633D01*
X104098829Y-92909864D01*
X104052853Y-92905194D01*
X104006981Y-92900049D01*
X104001843Y-92900013D01*
X104001745Y-92900003D01*
X104001654Y-92900012D01*
X104000000Y-92900000D01*
X101407107Y-92900000D01*
X99273051Y-90765945D01*
X99275033Y-90624007D01*
X99245513Y-90474916D01*
X99187595Y-90334399D01*
X99103488Y-90207807D01*
X98996394Y-90099963D01*
X98870392Y-90014974D01*
X98730283Y-89956077D01*
X98581402Y-89925516D01*
X98429420Y-89924455D01*
X98280127Y-89952934D01*
X98139208Y-90009869D01*
X98012032Y-90093091D01*
X97903443Y-90199429D01*
X97817576Y-90324834D01*
X97757703Y-90464529D01*
X97737377Y-90560156D01*
X97670392Y-90514974D01*
X97530283Y-90456077D01*
X97381402Y-90425516D01*
X97229420Y-90424455D01*
X97080127Y-90452934D01*
X96939208Y-90509869D01*
X96812032Y-90593091D01*
X96703443Y-90699429D01*
X96617576Y-90824834D01*
X96557703Y-90964529D01*
X96526103Y-91113194D01*
X96523981Y-91265164D01*
X96100000Y-91265164D01*
X96100000Y-87565164D01*
X100023981Y-87565164D01*
X100051417Y-87714653D01*
X100107367Y-87855965D01*
X100189699Y-87983719D01*
X100295277Y-88093048D01*
X100420079Y-88179788D01*
X100559353Y-88240635D01*
X100707793Y-88273272D01*
X100859745Y-88276455D01*
X101009421Y-88250063D01*
X101151121Y-88195101D01*
X101279446Y-88113663D01*
X101389510Y-88008851D01*
X101477119Y-87884657D01*
X101538937Y-87745812D01*
X101572609Y-87597603D01*
X101575033Y-87424007D01*
X101545513Y-87274916D01*
X101487595Y-87134399D01*
X101403488Y-87007807D01*
X101300000Y-86903594D01*
X101300000Y-80475203D01*
X101359745Y-80476455D01*
X101509421Y-80450063D01*
X101651121Y-80395101D01*
X101779446Y-80313663D01*
X101889510Y-80208851D01*
X101977119Y-80084657D01*
X102038937Y-79945812D01*
X102072609Y-79797603D01*
X102075033Y-79624007D01*
X102045513Y-79474916D01*
X101987595Y-79334399D01*
X101903488Y-79207807D01*
X101796394Y-79099963D01*
X101670392Y-79014974D01*
X101530283Y-78956077D01*
X101381402Y-78925516D01*
X101229420Y-78924455D01*
X101080127Y-78952934D01*
X100939208Y-79009869D01*
X100812032Y-79093091D01*
X100703443Y-79199429D01*
X100617576Y-79324834D01*
X100557703Y-79464529D01*
X100526103Y-79613194D01*
X100523981Y-79765164D01*
X100524562Y-79768332D01*
X100446447Y-79846447D01*
X100417168Y-79882092D01*
X100387443Y-79917516D01*
X100386175Y-79919823D01*
X100384508Y-79921852D01*
X100362701Y-79962521D01*
X100340432Y-80003029D01*
X100339637Y-80005536D01*
X100338395Y-80007852D01*
X100324893Y-80052015D01*
X100310926Y-80096044D01*
X100310633Y-80098655D01*
X100309864Y-80101171D01*
X100305194Y-80147147D01*
X100300049Y-80193019D01*
X100300013Y-80198157D01*
X100300003Y-80198255D01*
X100300012Y-80198346D01*
X100300000Y-80200000D01*
X100300000Y-86904874D01*
X100203443Y-86999429D01*
X100117576Y-87124834D01*
X100057703Y-87264529D01*
X100026103Y-87413194D01*
X100023981Y-87565164D01*
X96100000Y-87565164D01*
X96100000Y-86668572D01*
X97263850Y-86668572D01*
X97294826Y-86837350D01*
X97357995Y-86996896D01*
X97450950Y-87141134D01*
X97570151Y-87264570D01*
X97711057Y-87362503D01*
X97868302Y-87431201D01*
X98035895Y-87468049D01*
X98207454Y-87471643D01*
X98376443Y-87441845D01*
X98536427Y-87379792D01*
X98681311Y-87287846D01*
X98805576Y-87169510D01*
X98904490Y-87029290D01*
X98974284Y-86872529D01*
X99012301Y-86705197D01*
X99015038Y-86509202D01*
X98981708Y-86340873D01*
X98916318Y-86182225D01*
X98821358Y-86039298D01*
X98700445Y-85917539D01*
X98558185Y-85821583D01*
X98399997Y-85755087D01*
X98231905Y-85720583D01*
X98060313Y-85719385D01*
X97891756Y-85751539D01*
X97732654Y-85815820D01*
X97589069Y-85909780D01*
X97466468Y-86029839D01*
X97369521Y-86171426D01*
X97301922Y-86329146D01*
X97266245Y-86496993D01*
X97263850Y-86668572D01*
X96100000Y-86668572D01*
X96100000Y-85351724D01*
X96109421Y-85350063D01*
X96251121Y-85295101D01*
X96379446Y-85213663D01*
X96489510Y-85108851D01*
X96577119Y-84984657D01*
X96638937Y-84845812D01*
X96672609Y-84697603D01*
X96675033Y-84524007D01*
X96645513Y-84374916D01*
X96587595Y-84234399D01*
X96503488Y-84107807D01*
X96396394Y-83999963D01*
X96270392Y-83914974D01*
X96130283Y-83856077D01*
X95981402Y-83825516D01*
X95829420Y-83824455D01*
X95680127Y-83852934D01*
X95539208Y-83909869D01*
X95412032Y-83993091D01*
X95303443Y-84099429D01*
X95217576Y-84224834D01*
X95157703Y-84364529D01*
X95126103Y-84513194D01*
X95123981Y-84665164D01*
X95134284Y-84721299D01*
X95124893Y-84752015D01*
X95110926Y-84796044D01*
X95110633Y-84798655D01*
X95109864Y-84801171D01*
X95105194Y-84847147D01*
X95100049Y-84893019D01*
X95100013Y-84898157D01*
X95100003Y-84898255D01*
X95100012Y-84898346D01*
X95100000Y-84900000D01*
X94925000Y-84900000D01*
X94925000Y-82400000D01*
X94920269Y-82351749D01*
X94916041Y-82303425D01*
X94915270Y-82300772D01*
X94915001Y-82298027D01*
X94900987Y-82251609D01*
X94887455Y-82205032D01*
X94886186Y-82202583D01*
X94885387Y-82199938D01*
X94862593Y-82157068D01*
X94840302Y-82114065D01*
X94838582Y-82111911D01*
X94837284Y-82109469D01*
X94806602Y-82071850D01*
X94776378Y-82033988D01*
X94773538Y-82031108D01*
X94775033Y-81924007D01*
X94745513Y-81774916D01*
X94687595Y-81634399D01*
X94603488Y-81507807D01*
X94496394Y-81399963D01*
X94370392Y-81314974D01*
X94230283Y-81256077D01*
X94081402Y-81225516D01*
X93929420Y-81224455D01*
X93780127Y-81252934D01*
X93639208Y-81309869D01*
X93512032Y-81393091D01*
X93403443Y-81499429D01*
X93317576Y-81624834D01*
X93257703Y-81764529D01*
X93226103Y-81913194D01*
X93223981Y-82065164D01*
X93251417Y-82214653D01*
X93307367Y-82355965D01*
X93389699Y-82483719D01*
X93495277Y-82593048D01*
X93620079Y-82679788D01*
X93759353Y-82740635D01*
X93875000Y-82766062D01*
X93875000Y-85260075D01*
X93836318Y-85166225D01*
X93741358Y-85023298D01*
X93620445Y-84901539D01*
X93478185Y-84805583D01*
X93319997Y-84739087D01*
X93151905Y-84704583D01*
X92980313Y-84703385D01*
X92811756Y-84735539D01*
X92652654Y-84799820D01*
X92509069Y-84893780D01*
X92386468Y-85013839D01*
X92289521Y-85155426D01*
X92221922Y-85313146D01*
X92186245Y-85480993D01*
X92183850Y-85652572D01*
X91450000Y-85652572D01*
X91450000Y-77358218D01*
X91451290Y-77362490D01*
X91466120Y-77413536D01*
X91467513Y-77416223D01*
X91468386Y-77419115D01*
X91493299Y-77465969D01*
X91517764Y-77513168D01*
X91519652Y-77515533D01*
X91521070Y-77518200D01*
X91524577Y-77522500D01*
X91523981Y-77565164D01*
X91551417Y-77714653D01*
X91607367Y-77855965D01*
X91689699Y-77983719D01*
X91795277Y-78093048D01*
X91920079Y-78179788D01*
X92059353Y-78240635D01*
X92207793Y-78273272D01*
X92359745Y-78276455D01*
X92509421Y-78250063D01*
X92651121Y-78195101D01*
X92779446Y-78113663D01*
X92889510Y-78008851D01*
X92977119Y-77884657D01*
X93038937Y-77745812D01*
X93072609Y-77597603D01*
X93075033Y-77424007D01*
X93045513Y-77274916D01*
X92987595Y-77134399D01*
X92903488Y-77007807D01*
X92796394Y-76899963D01*
X92670392Y-76814974D01*
X92575000Y-76774874D01*
X92575000Y-74095602D01*
X98861506Y-74095602D01*
X98901758Y-74314916D01*
X98983841Y-74522235D01*
X99104629Y-74709662D01*
X99259522Y-74870058D01*
X99442620Y-74997314D01*
X99646948Y-75086583D01*
X99864723Y-75134464D01*
X100087652Y-75139134D01*
X100307241Y-75100414D01*
X100515128Y-75019780D01*
X100703394Y-74900303D01*
X100864868Y-74746534D01*
X100993399Y-74564329D01*
X101084092Y-74360629D01*
X101133492Y-74143193D01*
X101137048Y-73888511D01*
X101093738Y-73669781D01*
X101008769Y-73463628D01*
X100885375Y-73277906D01*
X100728258Y-73119688D01*
X100543401Y-72995001D01*
X100337847Y-72908594D01*
X100119424Y-72863758D01*
X99896452Y-72862201D01*
X99677425Y-72903983D01*
X99470684Y-72987512D01*
X99284105Y-73109606D01*
X99124793Y-73265615D01*
X98998819Y-73449596D01*
X98910979Y-73654542D01*
X98864619Y-73872647D01*
X98861506Y-74095602D01*
X92575000Y-74095602D01*
X92575000Y-72838172D01*
X93038173Y-72375000D01*
X96527512Y-72375000D01*
X96541868Y-72389356D01*
X96517576Y-72424834D01*
X96457703Y-72564529D01*
X96426103Y-72713194D01*
X96423981Y-72865164D01*
X96451417Y-73014653D01*
X96507367Y-73155965D01*
X96589699Y-73283719D01*
X96695277Y-73393048D01*
X96820079Y-73479788D01*
X96959353Y-73540635D01*
X97107793Y-73573272D01*
X97259745Y-73576455D01*
X97409421Y-73550063D01*
X97551121Y-73495101D01*
X97679446Y-73413663D01*
X97789510Y-73308851D01*
X97877119Y-73184657D01*
X97938937Y-73045812D01*
X97972609Y-72897603D01*
X97975033Y-72724007D01*
X97945513Y-72574916D01*
X97887595Y-72434399D01*
X97803488Y-72307807D01*
X97795735Y-72300000D01*
X101605421Y-72300000D01*
X101695277Y-72393048D01*
X101820079Y-72479788D01*
X101959353Y-72540635D01*
X102107793Y-72573272D01*
X102259745Y-72576455D01*
X102409421Y-72550063D01*
X102551121Y-72495101D01*
X102679446Y-72413663D01*
X102789510Y-72308851D01*
X102877119Y-72184657D01*
X102938937Y-72045812D01*
X102972609Y-71897603D01*
X102975033Y-71724007D01*
X102945513Y-71574916D01*
X102887595Y-71434399D01*
X102803488Y-71307807D01*
X102696394Y-71199963D01*
X102570392Y-71114974D01*
X102430283Y-71056077D01*
X102281402Y-71025516D01*
X102129420Y-71024455D01*
X101980127Y-71052934D01*
X101839208Y-71109869D01*
X101712032Y-71193091D01*
X101603443Y-71299429D01*
X101603052Y-71300000D01*
X97234315Y-71300000D01*
X97188326Y-71304509D01*
X97142339Y-71308532D01*
X97139814Y-71309265D01*
X97137198Y-71309522D01*
X97092992Y-71322869D01*
X97088186Y-71324265D01*
X97087892Y-71324104D01*
X97085555Y-71322184D01*
X97038746Y-71297085D01*
X96992202Y-71271497D01*
X96989319Y-71270583D01*
X96986655Y-71269154D01*
X96935865Y-71253626D01*
X96885234Y-71237565D01*
X96882229Y-71237228D01*
X96879338Y-71236344D01*
X96826476Y-71230974D01*
X96773713Y-71225056D01*
X96767808Y-71225015D01*
X96767692Y-71225003D01*
X96767584Y-71225013D01*
X96765685Y-71225000D01*
X92800000Y-71225000D01*
X92747133Y-71230184D01*
X92694228Y-71234812D01*
X92691323Y-71235656D01*
X92688315Y-71235951D01*
X92637510Y-71251290D01*
X92586464Y-71266120D01*
X92583777Y-71267513D01*
X92580885Y-71268386D01*
X92534031Y-71293299D01*
X92486832Y-71317764D01*
X92484467Y-71319652D01*
X92481800Y-71321070D01*
X92440669Y-71354615D01*
X92399130Y-71387776D01*
X92394921Y-71391927D01*
X92394835Y-71391997D01*
X92394769Y-71392076D01*
X92393414Y-71393413D01*
X91593414Y-72193414D01*
X91559708Y-72234448D01*
X91525560Y-72275144D01*
X91524104Y-72277793D01*
X91522184Y-72280130D01*
X91497085Y-72326939D01*
X91471497Y-72373483D01*
X91470583Y-72376366D01*
X91469154Y-72379030D01*
X91453626Y-72429820D01*
X91450000Y-72441251D01*
X91450000Y-71022006D01*
X91481636Y-70699358D01*
X91568950Y-70410161D01*
X91710770Y-70143437D01*
X91901701Y-69909334D01*
X92134457Y-69716781D01*
X92400189Y-69573101D01*
X92688760Y-69483773D01*
X93010412Y-69449966D01*
X93015542Y-69449948D01*
X93035096Y-69447962D01*
X93054748Y-69448099D01*
X93061001Y-69447486D01*
X93449194Y-69406685D01*
X93489153Y-69398482D01*
X93529209Y-69390841D01*
X93535225Y-69389025D01*
X93908099Y-69273601D01*
X93945680Y-69257803D01*
X93983514Y-69242518D01*
X93989062Y-69239568D01*
X94332417Y-69053917D01*
X94366224Y-69031114D01*
X94400358Y-69008777D01*
X94405227Y-69004805D01*
X94705982Y-68755999D01*
X94734724Y-68727055D01*
X94763861Y-68698523D01*
X94767866Y-68693681D01*
X95014567Y-68391197D01*
X95037158Y-68357194D01*
X95060180Y-68323573D01*
X95063168Y-68318046D01*
X95246418Y-67973404D01*
X95261959Y-67935698D01*
X95278028Y-67898207D01*
X95279886Y-67892205D01*
X95392704Y-67518534D01*
X95400637Y-67478468D01*
X95409105Y-67438630D01*
X95409762Y-67432382D01*
X95423920Y-67287983D01*
X96570498Y-67287983D01*
X96691749Y-67948626D01*
X96939010Y-68573135D01*
X97302863Y-69137725D01*
X97769449Y-69620889D01*
X98320996Y-70004224D01*
X98936496Y-70273129D01*
X99592504Y-70417362D01*
X100264034Y-70431429D01*
X100925507Y-70314793D01*
X101551728Y-70071898D01*
X102118843Y-69711996D01*
X102605253Y-69248794D01*
X102992429Y-68699936D01*
X103265625Y-68086329D01*
X103414434Y-67431343D01*
X103425147Y-66664161D01*
X103294684Y-66005276D01*
X103038728Y-65384280D01*
X102667027Y-64824826D01*
X102193741Y-64348223D01*
X101636895Y-63972626D01*
X101017701Y-63712341D01*
X100359742Y-63577281D01*
X99688081Y-63572592D01*
X99028302Y-63698452D01*
X98405533Y-63950067D01*
X97843498Y-64317852D01*
X97363603Y-64787800D01*
X96984127Y-65342010D01*
X96719526Y-65959372D01*
X96579876Y-66616372D01*
X96570498Y-67287983D01*
X95423920Y-67287983D01*
X95447852Y-67043913D01*
X95447852Y-67043912D01*
X95538770Y-66116655D01*
X95795312Y-65266949D01*
X96212005Y-64483264D01*
X96772983Y-63795436D01*
X97456879Y-63229668D01*
X98237641Y-62807511D01*
X99085527Y-62545047D01*
X99968251Y-62452269D01*
X100852182Y-62532713D01*
M02*
