M48
;DRILL file {KiCad no-vcs-found-835c19f~60~ubuntu16.04.1} date Wed Oct 18 23:44:41 2017
;FORMAT={-:-/ absolute / metric / decimal}
FMAT,2
METRIC,TZ
T1C0.300
T2C0.400
T3C0.650
T4C1.100
T5C0.600
T6C1.000
T7C3.300
%
G90
G05
M71
T1
X24.225Y-65.725
X25.375Y-64.275
X26.2Y-41.
X27.9Y-65.9
X30.8Y-60.3
X33.8Y-60.1
X34.7Y-60.3
X37.2Y-63.2
X49.225Y-65.725
X50.375Y-64.275
X51.2Y-41.
X52.9Y-65.9
X55.8Y-60.3
X58.8Y-60.1
X59.7Y-60.3
X62.2Y-63.2
X74.225Y-65.725
X75.375Y-64.275
X76.2Y-41.
X77.9Y-65.9
X80.8Y-60.3
X83.8Y-60.1
X84.7Y-60.3
X87.2Y-63.2
X99.225Y-65.725
X100.375Y-64.275
X101.2Y-41.
X102.9Y-65.9
X105.8Y-60.3
X108.8Y-60.1
X109.7Y-60.3
X112.2Y-63.2
T2
X24.3Y-42.5
X24.3Y-54.5
X24.3Y-56.9
X24.3Y-76.2
X24.35Y-60.05
X24.4Y-68.1
X25.Y-69.4
X25.1Y-38.7
X25.2Y-48.6
X25.5Y-68.2
X26.Y-47.
X26.Y-59.
X26.5Y-96.3
X26.9Y-70.8
X27.5Y-45.6
X27.9Y-49.6
X28.4Y-56.9
X28.4Y-94.7
X29.2Y-37.8
X29.2Y-45.1
X29.2Y-58.1
X29.3Y-56.2
X29.3Y-79.6
X29.3Y-82.8
X29.3Y-89.6
X30.4Y-76.4
X30.5Y-55.7
X30.8Y-43.8
X31.9Y-82.3
X32.Y-93.5
X32.7Y-78.5
X32.8Y-52.5
X33.3Y-44.7
X33.3Y-81.4
X34.2Y-36.8
X34.3Y-74.9
X34.3Y-78.5
X34.3Y-89.7
X34.5Y-59.3
X35.1Y-93.6
X35.2Y-73.1
X35.5Y-49.7
X35.5Y-51.
X35.75Y-101.05
X36.Y-69.9
X36.1Y-54.5
X36.1Y-55.3
X37.2Y-43.6
X37.3Y-39.8
X38.565Y-87.835
X38.6Y-77.4
X39.Y-65.3
X39.3Y-46.9
X39.3Y-61.
X39.8Y-97.1
X40.Y-55.
X40.1Y-62.2
X40.1Y-63.8
X41.4Y-91.
X41.4Y-91.6
X41.4Y-92.3
X41.4Y-93.
X41.5Y-49.
X41.5Y-49.6
X41.5Y-50.3
X41.5Y-51.
X47.5Y-49.
X47.5Y-49.6
X47.5Y-50.3
X47.5Y-51.
X47.5Y-91.
X47.5Y-91.6
X47.5Y-92.3
X47.5Y-93.
X49.3Y-42.5
X49.3Y-54.5
X49.3Y-56.9
X49.3Y-76.2
X49.35Y-60.05
X49.4Y-68.1
X50.Y-69.4
X50.1Y-38.7
X50.2Y-48.6
X50.5Y-68.2
X51.Y-47.
X51.Y-59.
X51.5Y-96.3
X51.9Y-70.8
X52.5Y-45.6
X52.9Y-49.6
X53.4Y-56.9
X53.4Y-94.7
X54.2Y-37.8
X54.2Y-45.1
X54.2Y-58.1
X54.3Y-56.2
X54.3Y-79.6
X54.3Y-82.8
X54.3Y-89.6
X55.4Y-76.4
X55.5Y-55.7
X55.8Y-43.8
X56.9Y-82.3
X57.Y-93.5
X57.7Y-78.5
X57.8Y-52.5
X58.3Y-44.7
X58.3Y-81.4
X59.2Y-36.8
X59.3Y-74.9
X59.3Y-78.5
X59.3Y-89.7
X59.5Y-59.3
X60.1Y-93.6
X60.2Y-73.1
X60.5Y-49.7
X60.5Y-51.
X60.75Y-101.05
X61.Y-69.9
X61.1Y-54.5
X61.1Y-55.3
X62.2Y-43.6
X62.3Y-39.8
X63.565Y-87.835
X63.6Y-77.4
X64.Y-65.3
X64.3Y-46.9
X64.3Y-61.
X64.8Y-97.1
X65.Y-55.
X65.1Y-62.2
X65.1Y-63.8
X66.5Y-49.
X66.5Y-49.6
X66.5Y-50.3
X66.5Y-51.
X66.5Y-91.
X66.5Y-91.6
X66.5Y-92.3
X66.5Y-93.
X72.5Y-49.
X72.5Y-49.6
X72.5Y-50.3
X72.5Y-51.
X72.5Y-91.
X72.5Y-91.6
X72.5Y-92.3
X72.5Y-93.
X74.3Y-42.5
X74.3Y-54.5
X74.3Y-56.9
X74.3Y-76.2
X74.35Y-60.05
X74.4Y-68.1
X75.Y-69.4
X75.1Y-38.7
X75.2Y-48.6
X75.5Y-68.2
X76.Y-47.
X76.Y-59.
X76.5Y-96.3
X76.9Y-70.8
X77.5Y-45.6
X77.9Y-49.6
X78.4Y-56.9
X78.4Y-94.7
X79.2Y-37.8
X79.2Y-45.1
X79.2Y-58.1
X79.3Y-56.2
X79.3Y-79.6
X79.3Y-82.8
X79.3Y-89.6
X80.4Y-76.4
X80.5Y-55.7
X80.8Y-43.8
X81.9Y-82.3
X82.Y-93.5
X82.7Y-78.5
X82.8Y-52.5
X83.3Y-44.7
X83.3Y-81.4
X84.2Y-36.8
X84.3Y-74.9
X84.3Y-78.5
X84.3Y-89.7
X84.5Y-59.3
X85.1Y-93.6
X85.2Y-73.1
X85.5Y-49.7
X85.5Y-51.
X85.75Y-101.05
X86.Y-69.9
X86.1Y-54.5
X86.1Y-55.3
X87.2Y-43.6
X87.3Y-39.8
X88.565Y-87.835
X88.6Y-77.4
X89.Y-65.3
X89.3Y-46.9
X89.3Y-61.
X89.8Y-97.1
X90.Y-55.
X90.1Y-62.2
X90.1Y-63.8
X91.5Y-49.
X91.5Y-49.6
X91.5Y-50.3
X91.5Y-51.
X91.5Y-91.
X91.5Y-91.6
X91.5Y-92.3
X91.5Y-93.
X97.5Y-49.
X97.5Y-49.6
X97.5Y-50.3
X97.5Y-51.
X97.5Y-91.
X97.5Y-91.6
X97.5Y-92.3
X97.5Y-93.
X99.3Y-42.5
X99.3Y-54.5
X99.3Y-56.9
X99.3Y-76.2
X99.35Y-60.05
X99.4Y-68.1
X100.Y-69.4
X100.1Y-38.7
X100.2Y-48.6
X100.5Y-68.2
X101.Y-47.
X101.Y-59.
X101.5Y-96.3
X101.9Y-70.8
X102.5Y-45.6
X102.9Y-49.6
X103.4Y-56.9
X103.4Y-94.7
X104.2Y-37.8
X104.2Y-45.1
X104.2Y-58.1
X104.3Y-56.2
X104.3Y-79.6
X104.3Y-82.8
X104.3Y-89.6
X105.4Y-76.4
X105.5Y-55.7
X105.8Y-43.8
X106.9Y-82.3
X107.Y-93.5
X107.7Y-78.5
X107.8Y-52.5
X108.3Y-44.7
X108.3Y-81.4
X109.2Y-36.8
X109.3Y-74.9
X109.3Y-78.5
X109.3Y-89.7
X109.5Y-59.3
X110.1Y-93.6
X110.2Y-73.1
X110.5Y-49.7
X110.5Y-51.
X110.75Y-101.05
X111.Y-69.9
X111.1Y-54.5
X111.1Y-55.3
X112.2Y-43.6
X112.3Y-39.8
X113.565Y-87.835
X113.6Y-77.4
X114.Y-65.3
X114.3Y-46.9
X114.3Y-61.
X114.8Y-97.1
X115.Y-55.
X115.1Y-62.2
X115.1Y-63.8
X30.3Y-62.5
X30.3Y-65.
X30.3Y-67.5
X32.8Y-62.5
X32.8Y-65.
X32.8Y-67.5
X35.3Y-62.5
X35.3Y-65.
X35.3Y-67.5
X80.3Y-62.5
X80.3Y-65.
X80.3Y-67.5
X82.8Y-62.5
X82.8Y-65.
X82.8Y-67.5
X85.3Y-62.5
X85.3Y-65.
X85.3Y-67.5
X55.3Y-62.5
X55.3Y-65.
X55.3Y-67.5
X57.8Y-62.5
X57.8Y-65.
X57.8Y-67.5
X60.3Y-62.5
X60.3Y-65.
X60.3Y-67.5
X105.3Y-62.5
X105.3Y-65.
X105.3Y-67.5
X107.8Y-62.5
X107.8Y-65.
X107.8Y-67.5
X110.3Y-62.5
X110.3Y-65.
X110.3Y-67.5
T3
X29.5Y-99.25
X34.5Y-99.25
X54.5Y-99.25
X59.5Y-99.25
X104.5Y-99.25
X109.5Y-99.25
X79.5Y-99.25
X84.5Y-99.25
T4
X57.Y-39.
X57.Y-91.
X82.Y-39.
X82.Y-91.
X32.Y-39.
X32.Y-91.
X107.Y-39.
X107.Y-91.
T5
X54.5Y-32.
X55.2Y-30.2
X55.2Y-33.8
X57.Y-29.5
X57.Y-34.5
X58.8Y-30.2
X58.8Y-33.8
X59.5Y-32.
X29.5Y-32.
X30.2Y-30.2
X30.2Y-33.8
X32.Y-29.5
X32.Y-34.5
X33.8Y-30.2
X33.8Y-33.8
X34.5Y-32.
X79.5Y-32.
X80.2Y-30.2
X80.2Y-33.8
X82.Y-29.5
X82.Y-34.5
X83.8Y-30.2
X83.8Y-33.8
X84.5Y-32.
X54.5Y-108.
X55.2Y-106.2
X55.2Y-109.8
X57.Y-105.5
X57.Y-110.5
X58.8Y-106.2
X58.8Y-109.8
X59.5Y-108.
X104.5Y-108.
X105.2Y-106.2
X105.2Y-109.8
X107.Y-105.5
X107.Y-110.5
X108.8Y-106.2
X108.8Y-109.8
X109.5Y-108.
X29.5Y-108.
X30.2Y-106.2
X30.2Y-109.8
X32.Y-105.5
X32.Y-110.5
X33.8Y-106.2
X33.8Y-109.8
X34.5Y-108.
X104.5Y-32.
X105.2Y-30.2
X105.2Y-33.8
X107.Y-29.5
X107.Y-34.5
X108.8Y-30.2
X108.8Y-33.8
X109.5Y-32.
X79.5Y-108.
X80.2Y-106.2
X80.2Y-109.8
X82.Y-105.5
X82.Y-110.5
X83.8Y-106.2
X83.8Y-109.8
X84.5Y-108.
T6
X75.06Y-50.579
X75.06Y-52.611
X80.14Y-51.595
X100.06Y-50.579
X100.06Y-52.611
X105.14Y-51.595
X25.06Y-50.579
X25.06Y-52.611
X30.14Y-51.595
X50.06Y-50.579
X50.06Y-52.611
X55.14Y-51.595
T7
X107.Y-108.
X107.Y-32.
X57.Y-32.
X32.Y-32.
X82.Y-32.
X57.Y-108.
X32.Y-108.
X82.Y-108.
T0
M30
