G04 #@! TF.GenerationSoftware,KiCad,Pcbnew,no-vcs-found-835c19f~60~ubuntu16.04.1*
G04 #@! TF.CreationDate,2017-10-18T23:44:36+01:00*
G04 #@! TF.ProjectId,panel_altimeter,70616E656C5F616C74696D657465722E,rev?*
G04 #@! TF.SameCoordinates,Original*
G04 #@! TF.FileFunction,Soldermask,Bot*
G04 #@! TF.FilePolarity,Negative*
%FSLAX46Y46*%
G04 Gerber Fmt 4.6, Leading zero omitted, Abs format (unit mm)*
G04 Created by KiCad (PCBNEW no-vcs-found-835c19f~60~ubuntu16.04.1) date Wed Oct 18 23:44:36 2017*
%MOMM*%
%LPD*%
G01*
G04 APERTURE LIST*
%ADD10C,0.600000*%
%ADD11C,6.300000*%
%ADD12C,1.524000*%
%ADD13C,1.000000*%
G04 APERTURE END LIST*
D10*
X108800000Y-33800000D03*
X105200000Y-33800000D03*
X108800000Y-30200000D03*
X105200000Y-30200000D03*
X104500000Y-32000000D03*
X107000000Y-34500000D03*
X109500000Y-32000000D03*
X107000000Y-29500000D03*
D11*
X107000000Y-32000000D03*
D12*
X107000000Y-91000000D03*
X107000000Y-39000000D03*
D11*
X107000000Y-108000000D03*
D10*
X107000000Y-105500000D03*
X109500000Y-108000000D03*
X107000000Y-110500000D03*
X104500000Y-108000000D03*
X105200000Y-106200000D03*
X108800000Y-106200000D03*
X105200000Y-109800000D03*
X108800000Y-109800000D03*
D13*
X100060000Y-52611000D03*
X100060000Y-50579000D03*
X105140000Y-51595000D03*
D12*
X109500000Y-99250000D03*
X104500000Y-99250000D03*
D11*
X82000000Y-32000000D03*
D10*
X82000000Y-29500000D03*
X84500000Y-32000000D03*
X82000000Y-34500000D03*
X79500000Y-32000000D03*
X80200000Y-30200000D03*
X83800000Y-30200000D03*
X80200000Y-33800000D03*
X83800000Y-33800000D03*
D12*
X82000000Y-39000000D03*
X82000000Y-91000000D03*
D10*
X83800000Y-109800000D03*
X80200000Y-109800000D03*
X83800000Y-106200000D03*
X80200000Y-106200000D03*
X79500000Y-108000000D03*
X82000000Y-110500000D03*
X84500000Y-108000000D03*
X82000000Y-105500000D03*
D11*
X82000000Y-108000000D03*
D13*
X80140000Y-51595000D03*
X75060000Y-50579000D03*
X75060000Y-52611000D03*
D12*
X79500000Y-99250000D03*
X84500000Y-99250000D03*
D11*
X57000000Y-108000000D03*
D10*
X57000000Y-105500000D03*
X59500000Y-108000000D03*
X57000000Y-110500000D03*
X54500000Y-108000000D03*
X55200000Y-106200000D03*
X58800000Y-106200000D03*
X55200000Y-109800000D03*
X58800000Y-109800000D03*
D13*
X50060000Y-52611000D03*
X50060000Y-50579000D03*
X55140000Y-51595000D03*
D12*
X59500000Y-99250000D03*
X54500000Y-99250000D03*
D10*
X58800000Y-33800000D03*
X55200000Y-33800000D03*
X58800000Y-30200000D03*
X55200000Y-30200000D03*
X54500000Y-32000000D03*
X57000000Y-34500000D03*
X59500000Y-32000000D03*
X57000000Y-29500000D03*
D11*
X57000000Y-32000000D03*
D12*
X57000000Y-91000000D03*
X57000000Y-39000000D03*
X32000000Y-39000000D03*
X32000000Y-91000000D03*
X29500000Y-99250000D03*
X34500000Y-99250000D03*
D13*
X30140000Y-51595000D03*
X25060000Y-50579000D03*
X25060000Y-52611000D03*
D11*
X32000000Y-32000000D03*
D10*
X32000000Y-29500000D03*
X34500000Y-32000000D03*
X32000000Y-34500000D03*
X29500000Y-32000000D03*
X30200000Y-30200000D03*
X33800000Y-30200000D03*
X30200000Y-33800000D03*
X33800000Y-33800000D03*
X33800000Y-109800000D03*
X30200000Y-109800000D03*
X33800000Y-106200000D03*
X30200000Y-106200000D03*
X29500000Y-108000000D03*
X32000000Y-110500000D03*
X34500000Y-108000000D03*
X32000000Y-105500000D03*
D11*
X32000000Y-108000000D03*
M02*
