M48
;DRILL file {KiCad no-vcs-found-835c19f~60~ubuntu16.04.1} date Wed Oct 18 23:24:23 2017
;FORMAT={-:-/ absolute / metric / decimal}
FMAT,2
METRIC,TZ
T1C0.300
T2C0.400
T3C0.650
T4C1.100
T5C0.600
T6C1.000
T7C3.300
%
G90
G05
M71
T1
X92.225Y-100.725
X93.375Y-99.275
X94.2Y-76.
X95.9Y-100.9
X98.8Y-95.3
X101.8Y-95.1
X102.7Y-95.3
X105.2Y-98.2
T2
X92.3Y-77.5
X92.3Y-89.5
X92.3Y-91.9
X92.3Y-111.2
X92.35Y-95.05
X92.4Y-103.1
X93.Y-104.4
X93.1Y-73.7
X93.2Y-83.6
X93.5Y-103.2
X94.Y-82.
X94.Y-94.
X94.5Y-131.3
X94.9Y-105.8
X95.5Y-80.6
X95.9Y-84.6
X96.4Y-91.9
X96.4Y-129.7
X97.2Y-72.8
X97.2Y-80.1
X97.2Y-93.1
X97.3Y-91.2
X97.3Y-114.6
X97.3Y-117.8
X97.3Y-124.6
X98.4Y-111.4
X98.5Y-90.7
X98.8Y-78.8
X99.9Y-117.3
X100.Y-128.5
X100.7Y-113.5
X100.8Y-87.5
X101.3Y-79.7
X101.3Y-116.4
X102.2Y-71.8
X102.3Y-109.9
X102.3Y-113.5
X102.3Y-124.7
X102.5Y-94.3
X103.1Y-128.6
X103.2Y-108.1
X103.5Y-84.7
X103.5Y-86.
X103.75Y-136.05
X104.Y-104.9
X104.1Y-89.5
X104.1Y-90.3
X105.2Y-78.6
X105.3Y-74.8
X106.565Y-122.835
X106.6Y-112.4
X107.Y-100.3
X107.3Y-81.9
X107.3Y-96.
X107.8Y-132.1
X108.Y-90.
X108.1Y-97.2
X108.1Y-98.8
X98.3Y-97.5
X98.3Y-100.
X98.3Y-102.5
X100.8Y-97.5
X100.8Y-100.
X100.8Y-102.5
X103.3Y-97.5
X103.3Y-100.
X103.3Y-102.5
T3
X97.5Y-134.25
X102.5Y-134.25
T4
X100.Y-74.
X100.Y-126.
T5
X97.5Y-143.
X98.2Y-141.2
X98.2Y-144.8
X100.Y-140.5
X100.Y-145.5
X101.8Y-141.2
X101.8Y-144.8
X102.5Y-143.
X97.5Y-67.
X98.2Y-65.2
X98.2Y-68.8
X100.Y-64.5
X100.Y-69.5
X101.8Y-65.2
X101.8Y-68.8
X102.5Y-67.
T6
X93.06Y-85.579
X93.06Y-87.611
X98.14Y-86.595
T7
X100.Y-143.
X100.Y-67.
T0
M30
