G04 #@! TF.GenerationSoftware,KiCad,Pcbnew,no-vcs-found-835c19f~60~ubuntu16.04.1*
G04 #@! TF.CreationDate,2017-10-18T23:24:13+01:00*
G04 #@! TF.ProjectId,altimeter,616C74696D657465722E6B696361645F,rev?*
G04 #@! TF.SameCoordinates,Original*
G04 #@! TF.FileFunction,Soldermask,Top*
G04 #@! TF.FilePolarity,Negative*
%FSLAX46Y46*%
G04 Gerber Fmt 4.6, Leading zero omitted, Abs format (unit mm)*
G04 Created by KiCad (PCBNEW no-vcs-found-835c19f~60~ubuntu16.04.1) date Wed Oct 18 23:24:13 2017*
%MOMM*%
%LPD*%
G01*
G04 APERTURE LIST*
%ADD10C,1.524000*%
%ADD11R,0.620000X0.620000*%
%ADD12R,1.450000X1.150000*%
%ADD13R,1.150000X1.450000*%
%ADD14R,0.900000X0.750000*%
%ADD15R,0.520000X0.520000*%
%ADD16R,1.000000X0.950000*%
%ADD17R,1.100000X0.600000*%
%ADD18R,0.550000X0.300000*%
%ADD19R,0.300000X0.550000*%
%ADD20R,2.002000X2.002000*%
%ADD21R,0.750000X1.300000*%
%ADD22C,0.787000*%
%ADD23C,1.000000*%
%ADD24R,0.600000X1.000000*%
%ADD25R,0.750000X0.900000*%
%ADD26R,1.100000X0.700000*%
%ADD27R,1.830000X1.140000*%
%ADD28R,2.800000X0.860000*%
%ADD29R,3.330000X0.700000*%
%ADD30R,0.930000X0.900000*%
%ADD31R,0.780000X1.050000*%
%ADD32C,6.300000*%
%ADD33C,0.600000*%
%ADD34R,0.850000X0.950000*%
%ADD35R,1.000000X1.600000*%
%ADD36R,0.500000X0.400000*%
G04 APERTURE END LIST*
D10*
X100000000Y-74000000D03*
X100000000Y-126000000D03*
D11*
X105350000Y-90400000D03*
X106250000Y-90400000D03*
D12*
X97200000Y-78800000D03*
X97200000Y-77000000D03*
D13*
X93000000Y-78800000D03*
X94800000Y-78800000D03*
D14*
X95300000Y-127300000D03*
X95300000Y-125900000D03*
D11*
X94350000Y-80600000D03*
X93450000Y-80600000D03*
X94800000Y-102850000D03*
X94800000Y-101950000D03*
D15*
X92400000Y-97800000D03*
X93200000Y-97800000D03*
X92400000Y-102200000D03*
X93200000Y-102200000D03*
D11*
X96050000Y-83200000D03*
X95150000Y-83200000D03*
X98000000Y-93150000D03*
X98000000Y-94050000D03*
X96400000Y-94050000D03*
X96400000Y-93150000D03*
X102400000Y-106950000D03*
X102400000Y-106050000D03*
X93250000Y-96200000D03*
X92350000Y-96200000D03*
X107250000Y-97200000D03*
X106350000Y-97200000D03*
X104000000Y-106050000D03*
X104000000Y-106950000D03*
X93950000Y-104400000D03*
X94850000Y-104400000D03*
X107250000Y-98800000D03*
X106350000Y-98800000D03*
D16*
X104000000Y-74800000D03*
X104000000Y-73200000D03*
X104000000Y-77000000D03*
X104000000Y-78600000D03*
D17*
X106900000Y-88475000D03*
X106900000Y-87225000D03*
X106900000Y-85975000D03*
X106900000Y-84725000D03*
X104700000Y-84725000D03*
X104700000Y-85975000D03*
X104700000Y-87225000D03*
X104700000Y-88475000D03*
D18*
X97425000Y-97250000D03*
X97425000Y-97750000D03*
X97425000Y-98250000D03*
X97425000Y-98750000D03*
X97425000Y-99250000D03*
X97425000Y-99750000D03*
X97425000Y-100250000D03*
X97425000Y-100750000D03*
X97425000Y-101250000D03*
X97425000Y-101750000D03*
X97425000Y-102250000D03*
X97425000Y-102750000D03*
D19*
X98050000Y-103375000D03*
X98550000Y-103375000D03*
X99050000Y-103375000D03*
X99550000Y-103375000D03*
X100050000Y-103375000D03*
X100550000Y-103375000D03*
X101050000Y-103375000D03*
X101550000Y-103375000D03*
X102050000Y-103375000D03*
X102550000Y-103375000D03*
X103050000Y-103375000D03*
X103550000Y-103375000D03*
D18*
X104175000Y-102750000D03*
X104175000Y-102250000D03*
X104175000Y-101750000D03*
X104175000Y-101250000D03*
X104175000Y-100750000D03*
X104175000Y-100250000D03*
X104175000Y-99750000D03*
X104175000Y-99250000D03*
X104175000Y-98750000D03*
X104175000Y-98250000D03*
X104175000Y-97750000D03*
X104175000Y-97250000D03*
D19*
X103550000Y-96625000D03*
X103050000Y-96625000D03*
X102550000Y-96625000D03*
X102050000Y-96625000D03*
X101550000Y-96625000D03*
X101050000Y-96625000D03*
X100550000Y-96625000D03*
X100050000Y-96625000D03*
X99550000Y-96625000D03*
X99050000Y-96625000D03*
X98550000Y-96625000D03*
X98050000Y-96625000D03*
D20*
X99550000Y-98750000D03*
X99550000Y-101250000D03*
X102050000Y-98750000D03*
X102050000Y-101250000D03*
D21*
X94875000Y-71600000D03*
X93525000Y-71600000D03*
D10*
X97500000Y-134250000D03*
X102500000Y-134250000D03*
D22*
X96870000Y-85960000D03*
X96870000Y-87230000D03*
X95600000Y-85960000D03*
X95600000Y-87230000D03*
X94330000Y-85960000D03*
X94330000Y-87230000D03*
D23*
X98140000Y-86595000D03*
X93060000Y-85579000D03*
X93060000Y-87611000D03*
D24*
X106750000Y-136050000D03*
X104850000Y-136050000D03*
X105800000Y-138350000D03*
D14*
X93700000Y-125900000D03*
X93700000Y-127300000D03*
D11*
X105350000Y-134200000D03*
X106250000Y-134200000D03*
D14*
X92100000Y-125900000D03*
X92100000Y-127300000D03*
D11*
X100800000Y-135950000D03*
X100800000Y-136850000D03*
D14*
X103900000Y-125900000D03*
X103900000Y-127300000D03*
D11*
X99200000Y-135950000D03*
X99200000Y-136850000D03*
D14*
X102300000Y-127300000D03*
X102300000Y-125900000D03*
X96900000Y-127300000D03*
X96900000Y-125900000D03*
D25*
X93700000Y-73700000D03*
X95100000Y-73700000D03*
D11*
X103050000Y-91200000D03*
X102150000Y-91200000D03*
D14*
X97200000Y-75300000D03*
X97200000Y-73900000D03*
D11*
X102300000Y-84950000D03*
X102300000Y-85850000D03*
D14*
X102200000Y-74700000D03*
X102200000Y-73300000D03*
X102200000Y-78500000D03*
X102200000Y-77100000D03*
D15*
X94800000Y-100600000D03*
X94800000Y-99800000D03*
D23*
X107800000Y-134200000D03*
X100000000Y-78200000D03*
X98700000Y-81400000D03*
X100700000Y-85400000D03*
X102700000Y-92800000D03*
X96700000Y-81400000D03*
D26*
X95300000Y-120000000D03*
X95300000Y-118900000D03*
X95300000Y-117800000D03*
X95300000Y-116700000D03*
X95300000Y-115700000D03*
X95300000Y-114600000D03*
X95300000Y-113500000D03*
X95300000Y-112400000D03*
D27*
X95315000Y-123880000D03*
D28*
X95800000Y-111220000D03*
D29*
X106565000Y-111140000D03*
X106565000Y-124100000D03*
D30*
X107765000Y-121790000D03*
D31*
X107840000Y-117525000D03*
D32*
X100000000Y-67000000D03*
D33*
X100000000Y-64500000D03*
X102500000Y-67000000D03*
X100000000Y-69500000D03*
X97500000Y-67000000D03*
X98200000Y-65200000D03*
X101800000Y-65200000D03*
X98200000Y-68800000D03*
X101800000Y-68800000D03*
X101800000Y-144800000D03*
X98200000Y-144800000D03*
X101800000Y-141200000D03*
X98200000Y-141200000D03*
X97500000Y-143000000D03*
X100000000Y-145500000D03*
X102500000Y-143000000D03*
X100000000Y-140500000D03*
D32*
X100000000Y-143000000D03*
D34*
X92225000Y-99275000D03*
X92225000Y-100725000D03*
X93375000Y-100725000D03*
X93375000Y-99275000D03*
D35*
X94200000Y-76000000D03*
D36*
X95100000Y-76650000D03*
X95100000Y-76000000D03*
X95100000Y-75350000D03*
X93300000Y-75350000D03*
X93300000Y-76000000D03*
X93300000Y-76650000D03*
M02*
